<svg xmlns="http://www.w3.org/2000/svg" viewBox="0 0 300 300"><defs><style>.a{fill:#330b01;}.b{fill:#096;}.c{opacity:0.2;}.d{fill:#e0bf36;}.e{fill:#b12903;}</style></defs><title>cannon</title><rect class="a" x="-400" y="-800" width="1920.08" height="800"/><path class="b" d="M1337,1h183V-32.11C1518-17.75,1515.88-6,1515.88-6a71.71,71.71,0,0,1-6.54-31.89c-6.27,12.44-3.43,32.46-3.43,32.46S1498.3-40,1498.19-64.1c-4,21.42-5.88,47.1-5.88,47.1s-7.49-24.82,0-55c-11.15,30.77-13.36,67.64-13.36,67.64s2.21-31.91-7.36-65.38c4.08,32.27-7.88,66.35-7.88,66.35s-10.67-17-4.21-34.55c-7,8.85-13,26.83-13,26.83s2.48-33.45,13-66.2c-8,8.45-26.09,67.76-26.09,67.76S1435.31-28,1441-56.63c-15.26,28.76-23.43,44.83-23.43,44.83s-7.95-12.92-4.37-43.69c-13.35,26.88-8.3,47.51-8.3,47.51s-9.4-25.64-5.93-47.51c-8.33,21.81-5.67,35.49-5.67,35.49s-8.1-22.6,0-57.3c-11.58,23.31-16,59.69-16,59.69s-.87-20.34-3.82-34c.93,23.39-16.45,44.69-16.45,44.69a348.93,348.93,0,0,1,4.06-59c-12.78,27.85-20,60.27-20,60.27s5.53-34,3.24-46.35c-2.48,20.6-14.31,36.62-14.31,36.62s3.71-25.37-.3-50.38c0,23.22-6.87,59.75-6.87,59.75a71.71,71.71,0,0,1-6.54-31.89c-6.27,12.44-3.43,32.46-3.43,32.46S1305.3-40,1305.19-64.1c-4,21.42-5.88,47.1-5.88,47.1s-7.49-24.82,0-55c-11.15,30.77-13.36,67.64-13.36,67.64s2.21-31.91-7.36-65.38c4.08,32.27-7.88,66.35-7.88,66.35s-10.67-17-4.21-34.55c-7,8.85-13,26.83-13,26.83s2.48-33.45,13-66.2c-8,8.45-26.09,67.76-26.09,67.76S1242.31-28,1248-56.63c-15.26,28.76-23.43,44.83-23.43,44.83s-7.95-12.92-4.37-43.69c-13.35,26.88-8.3,47.51-8.3,47.51s-9.4-25.64-5.93-47.51c-8.33,21.81-5.67,35.49-5.67,35.49s-8.1-22.6,0-57.3c-11.58,23.31-16,59.69-16,59.69s-.87-20.34-3.82-34c.93,23.39-16.45,44.69-16.45,44.69s-.68-29,8.2-57a219.92,219.92,0,0,0-23.19,50s-1.77-26.23-5.1-43c-1.15,26-7.43,33.77-7.43,33.77s4.19-17.78.18-42.79c0,23.22-6.87,59.75-6.87,59.75a71.71,71.71,0,0,1-6.54-31.89c-6.27,12.44-3.43,32.46-3.43,32.46S1112.3-40,1112.19-64.1c-4,21.42-5.88,47.1-5.88,47.1s-7.49-24.82,0-55c-11.15,30.77-13.36,67.64-13.36,67.64s2.21-31.91-7.36-65.38c4.08,32.27-7.88,66.35-7.88,66.35s-10.67-17-4.21-34.55c-7,8.85-13,26.83-13,26.83s2.48-33.45,13-66.2c-8,8.45-26.09,67.76-26.09,67.76S1049.31-28,1055-56.63c-15.26,28.76-23.43,44.83-23.43,44.83s-7.95-12.92-4.37-43.69c-13.35,26.88-8.3,47.51-8.3,47.51s-9.4-25.64-5.93-47.51c-8.33,21.81-5.67,35.49-5.67,35.49s-8.1-22.6,0-57.3c-11.58,23.31-16,59.69-16,59.69s-.87-20.34-3.82-34c.93,23.39-16.45,44.69-16.45,44.69a348.93,348.93,0,0,1,4.06-59c-12.78,27.85-20,60.27-20,60.27s5.53-34,3.24-46.35c-2.48,20.6-14.31,36.62-14.31,36.62s3.71-25.37-.3-50.38c0,23.22-6.87,59.75-6.87,59.75a71.71,71.71,0,0,1-6.54-31.89c-6.27,12.44-3.43,32.46-3.43,32.46S919.3-40,919.19-64.1c-4,21.42-5.88,47.1-5.88,47.1s-7.49-24.82,0-55C902.15-41.22,899.94-4.35,899.94-4.35s2.21-31.91-7.36-65.38c4.08,32.27-7.88,66.35-7.88,66.35s-10.67-17-4.21-34.55c-7,8.85-13,26.83-13,26.83s2.48-33.45,13-66.2c-8,8.45-26.09,67.76-26.09,67.76S856.31-28,862-56.63C846.78-27.87,838.62-11.8,838.62-11.8s-7.95-12.92-4.37-43.69C820.89-28.61,825.94-8,825.94-8s-9.4-25.64-5.93-47.51C811.68-33.68,814.34-20,814.34-20s-8.1-22.6,0-57.3c-11.58,23.31-16,59.69-16,59.69s-.87-20.34-3.82-34c.93,23.39-16.45,44.69-16.45,44.69s3.56-9.31,9.85-35.77a206.73,206.73,0,0,0-15.23,30.19s4.89-11.59,3.86-39.33C774.72-24.36,761.7-9.49,761.7-9.49s7.22-27,6.58-40.9c-2.57,16.3-14,30.89-14,30.89a285,285,0,0,0-3.51-46.29c0,23.22-6.87,59.75-6.87,59.75a71.71,71.71,0,0,1-6.54-31.89c-6.27,12.44-3.43,32.46-3.43,32.46S726.3-40,726.19-64.1c-4,21.42-5.88,47.1-5.88,47.1s-7.49-24.82,0-55C709.15-41.22,706.94-4.35,706.94-4.35s2.21-31.91-7.36-65.38c4.08,32.27-7.88,66.35-7.88,66.35s-10.67-17-4.21-34.55c-7,8.85-13,26.83-13,26.83s2.48-33.45,13-66.2c-8,8.45-26.09,67.76-26.09,67.76S663.31-28,669-56.63C653.78-27.87,645.62-11.8,645.62-11.8s-7.95-12.92-4.37-43.69C627.89-28.61,632.94-8,632.94-8s-9.4-25.64-5.93-47.51C618.68-33.68,621.34-20,621.34-20s-8.1-22.6,0-57.3c-11.58,23.31-16,59.69-16,59.69s-.87-20.34-3.82-34c.93,23.39-16.45,44.69-16.45,44.69a348.93,348.93,0,0,1,4.06-59c-12.78,27.85-20,60.27-20,60.27s5.53-34,3.24-46.35c-2.48,20.6-14.31,36.62-14.31,36.62s3.71-25.37-.3-50.38c0,23.22-6.87,59.75-6.87,59.75a71.71,71.71,0,0,1-6.54-31.89c-6.27,12.44-3.43,32.46-3.43,32.46S533.3-40,533.19-64.1c-4,21.42-5.88,47.1-5.88,47.1s-7.49-24.82,0-55C516.15-41.22,513.94-4.35,513.94-4.35s2.21-31.91-7.36-65.38c4.08,32.27-7.88,66.35-7.88,66.35s-10.67-17-4.21-34.55c-7,8.85-13,26.83-13,26.83s2.48-33.45,13-66.2c-8,8.45-26.09,67.76-26.09,67.76S470.31-28,476-56.63C460.78-27.87,452.62-11.8,452.62-11.8s-7.95-12.92-4.37-43.69C434.89-28.61,439.94-8,439.94-8s-9.4-25.64-5.93-47.51C425.68-33.68,428.34-20,428.34-20s-8.1-22.6,0-57.3c-11.58,23.31-16,59.69-16,59.69s-.87-20.34-3.82-34c.93,23.39-16.45,44.69-16.45,44.69s-6-25.07,8.2-57L372-11s-3.24-29.74-7.24-54.75c0,23.22-6.87,59.75-6.87,59.75a71.71,71.71,0,0,1-6.54-31.89c-6.27,12.44-3.43,32.46-3.43,32.46S340.3-40,340.19-64.1c-4,21.42-5.88,47.1-5.88,47.1s-7.49-24.82,0-55C323.15-41.22,320.94-4.35,320.94-4.35s2.21-31.91-7.36-65.38c4.08,32.27-7.88,66.35-7.88,66.35s-10.67-17-4.21-34.55c-7,8.85-13,26.83-13,26.83s2.48-33.45,13-66.2c-8,8.45-26.09,67.76-26.09,67.76S277.31-28,283-56.63C267.78-27.87,259.62-11.8,259.62-11.8s-7.95-12.92-4.37-43.69C241.89-28.61,246.94-8,246.94-8s-9.4-25.64-5.93-47.51C232.68-33.68,235.34-20,235.34-20s-8.1-22.6,0-57.3c-11.58,23.31-16,59.69-16,59.69s-.87-20.34-3.82-34c.93,23.39-16.45,44.69-16.45,44.69a348.93,348.93,0,0,1,4.06-59c-12.78,27.85-20,60.27-20,60.27s5.53-34,3.24-46.35c-2.48,20.6-14.31,36.62-14.31,36.62s3.71-25.37-.3-50.38c0,23.22-6.87,59.75-6.87,59.75a71.71,71.71,0,0,1-6.54-31.89c-6.27,12.44-3.43,32.46-3.43,32.46S147.3-40,147.19-64.1c-4,21.42-5.88,47.1-5.88,47.1s-7.49-24.82,0-55C130.15-41.22,127.94-4.35,127.94-4.35s2.21-31.91-7.36-65.38c4.08,32.27-7.88,66.35-7.88,66.35s-10.67-17-4.21-34.55c-7,8.85-13,26.83-13,26.83s2.48-33.45,13-66.2c-8,8.45-26.09,67.76-26.09,67.76S84.31-28,90-56.63C74.78-27.87,66.62-11.8,66.62-11.8s-7.95-12.92-4.37-43.69C48.89-28.61,53.94-8,53.94-8S44.54-33.62,48-55.49C39.68-33.68,42.34-20,42.34-20s-8.1-22.6,0-57.3c-11.58,23.31-16,59.69-16,59.69s-.87-20.34-3.82-34C23.47-28.2,6.09-6.91,6.09-6.91s3.56-9.31,9.85-35.77A206.73,206.73,0,0,0,.71-12.49S5.61-24.08,4.58-51.82C2.72-24.36-10.3-9.49-10.3-9.49s7.22-27,6.58-40.9c-2.57,16.3-14,30.89-14,30.89a285,285,0,0,0-3.51-46.29C-21.23-42.57-28.12-6-28.12-6a71.71,71.71,0,0,1-6.54-31.89C-40.92-25.5-38.09-5.48-38.09-5.48S-45.7-40-45.81-64.1C-49.81-42.68-51.7-17-51.7-17s-7.49-24.82,0-55C-62.85-41.22-65.06-4.35-65.06-4.35s2.21-31.91-7.36-65.38C-68.34-37.47-80.3-3.38-80.3-3.38s-10.67-17-4.21-34.55c-7,8.85-13,26.83-13,26.83s2.48-33.45,13-66.2c-8,8.45-26.09,67.76-26.09,67.76S-108.69-28-103-56.63c-15.26,28.76-23.43,44.83-23.43,44.83s-7.95-12.92-4.37-43.69C-144.11-28.61-139.06-8-139.06-8s-9.4-25.64-5.93-47.51C-153.32-33.68-150.66-20-150.66-20s-8.1-22.6,0-57.3c-11.58,23.31-16,59.69-16,59.69s-.87-20.34-3.82-34c.93,23.39-16.45,44.69-16.45,44.69a348.93,348.93,0,0,1,4.06-59c-12.78,27.85-20,60.27-20,60.27s5.53-34,3.24-46.35c-2.48,20.6-14.31,36.62-14.31,36.62s3.71-25.37-.3-50.38c0,23.22-6.87,59.75-6.87,59.75a71.71,71.71,0,0,1-6.54-31.89c-6.27,12.44-3.43,32.46-3.43,32.46S-238.7-40-238.81-64.1c-4,21.42-5.88,47.1-5.88,47.1s-7.49-24.82,0-55c-11.15,30.77-13.36,67.64-13.36,67.64s2.21-31.91-7.36-65.38c4.08,32.27-7.88,66.35-7.88,66.35s-10.67-17-4.21-34.55c-7,8.85-13,26.83-13,26.83s2.48-33.45,13-66.2c-8,8.45-26.09,67.76-26.09,67.76S-301.69-28-296-56.63c-15.26,28.76-23.43,44.83-23.43,44.83s-7.95-12.92-4.37-43.69C-337.11-28.61-332.06-8-332.06-8s-9.4-25.64-5.93-47.51C-346.32-33.68-343.66-20-343.66-20s-8.1-22.6,0-57.3c-11.58,23.31-16,59.69-16,59.69s-.87-20.34-3.82-34c.93,23.39-16.45,44.69-16.45,44.69s-6-25.07,8.2-57C-389.91-42.9-400,1-400,1H1337Z"/><ellipse class="c" cx="109.73" cy="276.29" rx="109.73" ry="22.71"/><circle class="d" cx="162.55" cy="173.34" r="110.74"/><path class="e" d="M78.16,101.63c-28.58,94.45,157.19,162.87,194.93,65.2,0,0,2.31,18.3-5.51,41.67s-17.09,32.26-17.09,32.26c-61.76,54.12-183.65,14.6-198.72-65.57,0,0-1.71-14.24,5.48-36.22A116.21,116.21,0,0,1,78.16,101.63Z"/><path class="e" d="M221.35,79.48,217.23,77c-12-4.5-31.46-.32-31.46-.32s-23.51-13-53.52-7.5c20.51,2.5,25,16.51,25,16.51s-25.51,14-44,37.51c29-12.5,58-11,58-11a198.22,198.22,0,0,1,16,56.52c11.5-29.51,21-51.52,21-51.52s23,4,46,23.26c-13.5-26.76-37.51-45.77-37.51-45.77s4.5-8,4.5-14a11.55,11.55,0,0,1,.06-1.22"/></svg>