<svg xmlns="http://www.w3.org/2000/svg" viewBox="0 0 300 260"><defs><style>.a{opacity:0.2;}.b{fill:#e0bf36;}.c{fill:#b12903;}</style></defs><title>ball</title><ellipse class="a" cx="121.73" cy="231.29" rx="109.73" ry="22.71"/><circle class="b" cx="162.55" cy="128.34" r="110.74"/><path class="c" d="M78.16,56.63c-28.58,94.45,157.19,162.87,194.93,65.2,0,0,2.31,18.3-5.51,41.67s-17.09,32.26-17.09,32.26c-61.76,54.12-183.65,14.6-198.72-65.57,0,0-1.71-14.24,5.48-36.22A116.21,116.21,0,0,1,78.16,56.63Z"/><path class="c" d="M221.35,34.48,217.23,32c-12-4.5-31.46-.32-31.46-.32s-23.51-13-53.52-7.5c20.51,2.5,25,16.51,25,16.51s-25.51,14-44,37.51c29-12.5,58-11,58-11a198.22,198.22,0,0,1,16,56.52c11.5-29.51,21-51.52,21-51.52s23,4,46,23.26c-13.5-26.76-37.51-45.77-37.51-45.77s4.5-8,4.5-14a11.55,11.55,0,0,1,.06-1.22"/></svg>