<svg xmlns="http://www.w3.org/2000/svg" viewBox="0 0 1920 859.63"><defs><style>.a{fill:#dc2903;}.b{fill:#ecd036;}.c{fill:none;stroke:#b12903;stroke-miterlimit:10;stroke-width:6px;}.d,.g{fill:#b12903;}.e{fill:#fbff64;}.f,.g{font-size:200px;}.f{fill:#fff;font-family:RosewoodStd-Fill, Rosewood Std;}.g{font-family:RosewoodStd-Regular, Rosewood Std;}</style></defs><title>big_top</title><path class="a" d="M0,968.58v-264c241-53.41,453.82-158.7,491.54-410.16l73.86-15.09C614.62,388.74,751.79,442,960.64,442S1300,395.6,1356.19,275.84l70.29,22.29C1458,528.87,1680,651.25,1920,704.58v264" transform="translate(0 -108.94)"/><path class="b" d="M511.85,290.06l-13.1,2.63C492.52,513.94,308.6,718.23,0,800.58v168C345.68,872.73,511.85,502.39,511.85,290.06Z" transform="translate(0 -108.94)"/><path class="b" d="M538.45,285l-13.08,3.71S525,871.63,549,968.58h816c24-96.95,29.54-679.41,29.54-679.41l-11.26-4s-23.79,562.57-423.52,562.57C539.74,847.71,538.45,285,538.45,285Z" transform="translate(0 -108.94)"/><path class="b" d="M547.48,282.87S590,650.74,959.76,650.74s414.38-369,414.38-369l-11.5-3.61s-33.1,233.05-402.89,233.05S557.93,280.73,557.93,280.73Z" transform="translate(0 -108.94)"/><path class="b" d="M1404.11,291.4l12.28,4C1422.49,511.28,1610,718.43,1920,800.78v167.8C1573,872.73,1404.11,498.61,1404.11,291.4Z" transform="translate(0 -108.94)"/><line class="c" x1="518.7" y1="125.99" x2="511.77" y2="55.11"/><path class="d" d="M552.82,232.19a19.09,19.09,0,0,0-22.63-11.72,160.25,160.25,0,0,1-24.72,4.47,19.17,19.17,0,0,0-17.3,17.92l-5.78,49.79c-.59,5.1,3.44,8.86,8.52,9.62,26.58,4,59.51-1.58,76.94-16.92,3.18-2.8,5.46-6.4,3.76-10.28Z" transform="translate(0 -108.94)"/><path class="c" d="M511.77,164.05s30.12-11.46,48.59-11.46-18.59,9.32-.89,9.32,18.17-2.52,38.18-.38-22.44,9-6.28,9,58.37-1,58.37-1l-18.47-19.28L645.9,134.1s-18.11.16-38.89,1.23c-.51-8.43,2-10.16-9.35-9.8s-31.41.72-31.41.72c.85-11.71,3.86-14.31-6.76-14.31s-51.23,12-51.23,12Z" transform="translate(0 -108.94)"/><path class="d" d="M514.36,163.11s27.53-10.52,46-10.52-18.59,9.32-.89,9.32,18.17-2.52,38.18-.38-22.44,9-6.28,9,58.37-1,58.37-1l-18.47-19.28L645.9,134.1s-20.84.28-41.62,1.35l.56-10.08c-16.22-.15-21.87.28-38.59.89l-.16-14.31c-18.71,0-55.35,11.46-55.35,11.46Z" transform="translate(0 -108.94)"/><line class="c" x1="1392.7" y1="125.99" x2="1405.84" y2="56"/><path class="d" d="M1363,232.19a19.09,19.09,0,0,1,22.63-11.72,160.25,160.25,0,0,0,24.72,4.47,19.17,19.17,0,0,1,17.3,17.92l5.78,49.79c.59,5.1-3.41,9.15-8.52,9.62-30.39,2.75-53.7-3.22-74-15.54-5.13-3.11-7.89-8.92-5.48-14.42Z" transform="translate(0 -108.94)"/><path class="c" d="M1405.87,165s32.22,2.27,50.12,10.85-19.86-.51-2.28,6.9,17.21,8.09,36,19.58-24.11-1.26-8.46,6.25,56.82,26.05,56.82,26.05l-12.77-28.31,18.43-9.64s-17.58-8.25-38-16.82c1.75-8.86,4.66-9.45-6.46-14.37s-30.61-13.86-30.61-13.86c3.93-11.59,7.54-12.85-2.75-17.78s-52.81-11.56-52.81-11.56Z" transform="translate(0 -108.94)"/><path class="d" d="M1408.49,165.07s29.6,2.15,47.49,10.73-19.86-.51-2.28,6.9,17.21,8.09,36,19.58-24.11-1.26-8.46,6.25,56.82,26.05,56.82,26.05l-12.77-28.31,18.43-9.64s-20.26-9.4-40.67-18l3.22-10.05c-15.67-7.69-21.26-9.88-37.62-17l3.64-14.72c-18.12-8.7-56.36-14.49-56.36-14.49Z" transform="translate(0 -108.94)"/><path class="b" d="M1264.28,721.74h-590a42.44,42.44,0,0,1-42.44-42.44V587.91a42.44,42.44,0,0,1,42.44-42.44l599.22-4.08,20.8,16.51a42.31,42.31,0,0,1,12.43,30V679.3A42.44,42.44,0,0,1,1264.28,721.74Z" transform="translate(0 -108.94)"/><rect class="e" x="617.83" y="425.53" width="674.89" height="176.27" rx="42.44" ry="42.44"/><text class="f" transform="translate(618.83 569.26)">CIRCUS</text><text class="g" transform="translate(618.83 569.26)">CIRCUS</text></svg>