<svg xmlns="http://www.w3.org/2000/svg" xmlns:xlink="http://www.w3.org/1999/xlink" viewBox="0 0 1920 1005"><defs><style>.a{fill:#b12903;}.b,.i{fill:none;}.c{clip-path:url(#a);}.d{clip-path:url(#b);}.e{fill:#cc2105;}.f{fill:#e0bf36;}.g{fill:#dc2903;}.h{fill:#ecd036;}.i{stroke:#b12903;stroke-miterlimit:10;stroke-width:6px;}</style><clipPath id="a"><polygon class="a" points="0 1098.78 24.13 1111.9 48.2 1098.9 72.23 1111.8 96.25 1098.85 120.26 1111.77 144.25 1098.84 168.23 1111.77 192.17 1098.84 215.65 1111.76 239 1098.84 239 1098.51 263.66 1111.76 288.12 1098.84 312.22 1111.76 336.27 1098.84 360.3 1111.76 384.3 1098.84 408.28 1111.76 432.23 1098.84 456.18 1111.76 480 1098.84 480 1098.51 504.19 1111.76 528.41 1098.84 552.4 1111.76 576.39 1098.84 600.38 1111.76 624.37 1098.84 648.35 1111.76 672.29 1098.84 696.21 1111.76 720 1098.84 720 1098.51 744.22 1111.76 768.45 1098.84 792.45 1111.76 816.45 1098.84 840.44 1111.76 864.43 1098.84 888.4 1111.76 912.35 1098.84 935.74 1111.76 959 1098.84 959 1098.51 983.75 1111.76 1008.25 1098.84 1032.37 1111.76 1056.44 1098.84 1080.47 1111.76 1104.47 1098.84 1128.45 1111.76 1152.4 1098.84 1175.76 1111.76 1199 1098.84 1199 1098.51 1223.78 1111.76 1248.29 1098.84 1272.42 1111.76 1296.49 1098.84 1320.52 1111.76 1344.53 1098.84 1368.51 1111.76 1392.46 1098.84 1416.29 1111.76 1440 1098.84 1440 1098.51 1464.3 1111.76 1488.58 1098.84 1512.6 1111.76 1536.61 1098.84 1560.61 1111.76 1584.6 1098.84 1608.58 1111.76 1632.52 1098.84 1656.32 1111.76 1680 1098.84 1680 1098.51 1704.33 1111.76 1728.63 1098.84 1752.65 1111.76 1776.67 1098.84 1800.68 1111.76 1824.69 1098.84 1848.7 1111.76 1872.7 1098.84 1896.35 1111.76 1920 1098.84 1920 1005 0 1005 0 1098.78"/></clipPath><clipPath id="b"><polyline class="b" points="1920 987 1920 918 0 918 0 987"/></clipPath></defs><title>big_top</title><polygon class="a" points="0 1098.78 24.13 1111.9 48.2 1098.9 72.23 1111.8 96.25 1098.85 120.26 1111.77 144.25 1098.84 168.23 1111.77 192.17 1098.84 215.65 1111.76 239 1098.84 239 1098.51 263.66 1111.76 288.12 1098.84 312.22 1111.76 336.27 1098.84 360.3 1111.76 384.3 1098.84 408.28 1111.76 432.23 1098.84 456.18 1111.76 480 1098.84 480 1098.51 504.19 1111.76 528.41 1098.84 552.4 1111.76 576.39 1098.84 600.38 1111.76 624.37 1098.84 648.35 1111.76 672.29 1098.84 696.21 1111.76 720 1098.84 720 1098.51 744.22 1111.76 768.45 1098.84 792.45 1111.76 816.45 1098.84 840.44 1111.76 864.43 1098.84 888.4 1111.76 912.35 1098.84 935.74 1111.76 959 1098.84 959 1098.51 983.75 1111.76 1008.25 1098.84 1032.37 1111.76 1056.44 1098.84 1080.47 1111.76 1104.47 1098.84 1128.45 1111.76 1152.4 1098.84 1175.76 1111.76 1199 1098.84 1199 1098.51 1223.78 1111.76 1248.29 1098.84 1272.42 1111.76 1296.49 1098.84 1320.52 1111.76 1344.53 1098.84 1368.51 1111.76 1392.46 1098.84 1416.29 1111.76 1440 1098.84 1440 1098.51 1464.3 1111.76 1488.58 1098.84 1512.6 1111.76 1536.61 1098.84 1560.61 1111.76 1584.6 1098.84 1608.58 1111.76 1632.52 1098.84 1656.32 1111.76 1680 1098.84 1680 1098.51 1704.33 1111.76 1728.63 1098.84 1752.65 1111.76 1776.67 1098.84 1800.68 1111.76 1824.69 1098.84 1848.7 1111.76 1872.7 1098.84 1896.35 1111.76 1920 1098.84 1920 1005 0 1005 0 1098.78"/><g class="c"><rect class="a" y="1004.93" width="1920" height="106.84"/></g><rect class="a" y="960" width="1920" height="45"/><g class="d"><rect class="e" y="907.14" width="1920" height="89.6"/><rect class="f" x="549" y="907.14" width="816" height="89.61"/></g><path class="g" d="M0,960V696c241-53.41,475.86-158.7,512-410.16l70.72-15.09c47.12,109.42,169.11,162.7,378,162.7S1286,387,1339.77,267.26l67.3,22.29C1435,516.85,1605,626,1920,696V960"/><path class="h" d="M531.42,281.48l-12.54,2.63C512.9,505.36,308.6,709.65,0,792V960C345.68,864.15,531.42,493.82,531.42,281.48Z"/><path class="h" d="M556.88,276.46l-12.52,3.71S525,863.05,549,960h816c24-96.95,11.48-679.41,11.48-679.41l-10.78-4s-6.22,562.57-405.94,562.57C539.74,839.13,556.88,276.46,556.88,276.46Z"/><path class="h" d="M565.53,274.3S590,642.16,959.76,642.16s397.2-369,397.2-369l-11-3.61s-16.4,233.05-386.19,233.05S575.53,272.15,575.53,272.15Z"/><path class="h" d="M1385.65,282.82l11.75,4C1403.25,502.7,1610,709.85,1920,792.2V960C1573,864.15,1385.65,490,1385.65,282.82Z"/><line class="i" x1="537.96" y1="228.81" x2="526.88" y2="168.24"/><path class="i" d="M526.88,168.24s19.39-10.26,31.78-11.62-11.81,7.9.06,6.6,12-3.11,25.59-3.08-14.42,7.94-3.58,6.74,39.07-5,39.07-5l-13.75-12.15,8.67-12.34s-12.13,1.45-26,3.73c-.93-5.87.64-7.27-7-6.18s-21,2.82-21,2.82c-.26-8.27,1.58-10.31-5.54-9.53s-33.52,12.17-33.52,12.17Z"/><path class="a" d="M528.56,167.38s17.72-9.4,30.11-10.76-11.81,7.9.06,6.6,12-3.11,25.59-3.08-14.42,7.94-3.58,6.74,39.07-5,39.07-5l-13.75-12.15,8.67-12.34s-14,1.73-27.82,4l-.33-7.11c-10.89,1.09-14.65,1.81-25.82,3.47l-1.12-10c-12.55,1.38-36.32,12.12-36.32,12.12Z"/><path class="a" d="M512,285.84c26,4.28,53.56.09,72.49-11.08-12.16-28.37-22.57-49.82-35.73-50.59-6.67-.49-17.09.91-21.85,3.73C516.1,235.32,513.83,254.74,512,285.84Z"/><path class="a" d="M1334.37,278.63c16.38,13.41,51.28,19.38,73.16,14.48-1.59-28.82-4.4-56.74-13.88-63.59-5.38-3.41-16-4.67-22.68-3.66C1355.56,228.71,1344,255.78,1334.37,278.63Z"/><line class="i" x1="1381.67" y1="231.99" x2="1390.29" y2="166.69"/><path class="i" d="M1390.31,166.7s21.19.58,33.2,6-13,.25-1.27,4.84,11.54,5.07,24.24,12.44-15.85-.13-5.34,4.58,38.08,16.28,38.08,16.28l-9.29-19.19,11.77-7.23s-11.79-5.17-25.45-10.47c.86-6.18,2.75-6.68-4.7-9.74s-20.51-8.65-20.51-8.65c2.2-8.13,4.53-9.12-2.37-12.21s-35-6.38-35-6.38Z"/><path class="a" d="M1392,166.71s19.47.58,31.47,6-13,.25-1.27,4.84,11.54,5.07,24.24,12.44-15.85-.13-5.34,4.58,38.08,16.28,38.08,16.28l-9.29-19.19,11.77-7.23s-13.58-5.88-27.24-11.18l1.79-7.05c-10.52-4.84-14.25-6.18-25.2-10.63l1.91-10.29c-12.16-5.46-37.41-8.3-37.41-8.3Z"/></svg>