<svg xmlns="http://www.w3.org/2000/svg" viewBox="0 0 400 300"><defs><style>.a{fill:#330b01;}.b{fill:#096;}.c{opacity:0.2;}.d{fill:#b12903;}.e{fill:#e09d8d;}.f{fill:#1d2533;}.g{fill:#ecd036;}.h{fill:#ffc697;}.i{fill:#dc2903;}</style></defs><title>cannon</title><rect class="a" y="-800" width="1920.08" height="800"/><path class="b" d="M1737,1h183V-32.11C1918-17.75,1915.88-6,1915.88-6a71.71,71.71,0,0,1-6.54-31.89c-6.27,12.44-3.43,32.46-3.43,32.46S1898.3-40,1898.19-64.1c-4,21.42-5.88,47.1-5.88,47.1s-7.49-24.82,0-55c-11.15,30.77-13.36,67.64-13.36,67.64s2.21-31.91-7.36-65.38c4.08,32.27-7.88,66.35-7.88,66.35s-10.67-17-4.21-34.55c-7,8.85-13,26.83-13,26.83s2.48-33.45,13-66.2c-8,8.45-26.09,67.76-26.09,67.76S1835.31-28,1841-56.63c-15.26,28.76-23.43,44.83-23.43,44.83s-7.95-12.92-4.37-43.69c-13.35,26.88-8.3,47.51-8.3,47.51s-9.4-25.64-5.93-47.51c-8.33,21.81-5.67,35.49-5.67,35.49s-8.1-22.6,0-57.3c-11.58,23.31-16,59.69-16,59.69s-.87-20.34-3.82-34c.93,23.39-16.45,44.69-16.45,44.69a348.93,348.93,0,0,1,4.06-59c-12.78,27.85-20,60.27-20,60.27s5.53-34,3.24-46.35c-2.48,20.6-14.31,36.62-14.31,36.62s3.71-25.37-.3-50.38c0,23.22-6.87,59.75-6.87,59.75a71.71,71.71,0,0,1-6.54-31.89c-6.27,12.44-3.43,32.46-3.43,32.46S1705.3-40,1705.19-64.1c-4,21.42-5.88,47.1-5.88,47.1s-7.49-24.82,0-55c-11.15,30.77-13.36,67.64-13.36,67.64s2.21-31.91-7.36-65.38c4.08,32.27-7.88,66.35-7.88,66.35s-10.67-17-4.21-34.55c-7,8.85-13,26.83-13,26.83s2.48-33.45,13-66.2c-8,8.45-26.09,67.76-26.09,67.76S1642.31-28,1648-56.63c-15.26,28.76-23.43,44.83-23.43,44.83s-7.95-12.92-4.37-43.69c-13.35,26.88-8.3,47.51-8.3,47.51s-9.4-25.64-5.93-47.51c-8.33,21.81-5.67,35.49-5.67,35.49s-8.1-22.6,0-57.3c-11.58,23.31-16,59.69-16,59.69s-.87-20.34-3.82-34c.93,23.39-16.45,44.69-16.45,44.69s-.68-29,8.2-57a219.92,219.92,0,0,0-23.19,50s-1.77-26.23-5.1-43c-1.15,26-7.43,33.77-7.43,33.77s4.19-17.78.18-42.79c0,23.22-6.87,59.75-6.87,59.75a71.71,71.71,0,0,1-6.54-31.89c-6.27,12.44-3.43,32.46-3.43,32.46S1512.3-40,1512.19-64.1c-4,21.42-5.88,47.1-5.88,47.1s-7.49-24.82,0-55c-11.15,30.77-13.36,67.64-13.36,67.64s2.21-31.91-7.36-65.38c4.08,32.27-7.88,66.35-7.88,66.35s-10.67-17-4.21-34.55c-7,8.85-13,26.83-13,26.83s2.48-33.45,13-66.2c-8,8.45-26.09,67.76-26.09,67.76S1449.31-28,1455-56.63c-15.26,28.76-23.43,44.83-23.43,44.83s-7.95-12.92-4.37-43.69c-13.35,26.88-8.3,47.51-8.3,47.51s-9.4-25.64-5.93-47.51c-8.33,21.81-5.67,35.49-5.67,35.49s-8.1-22.6,0-57.3c-11.58,23.31-16,59.69-16,59.69s-.87-20.34-3.82-34c.93,23.39-16.45,44.69-16.45,44.69a348.93,348.93,0,0,1,4.06-59c-12.78,27.85-20,60.27-20,60.27s5.53-34,3.24-46.35c-2.48,20.6-14.31,36.62-14.31,36.62s3.71-25.37-.3-50.38c0,23.22-6.87,59.75-6.87,59.75a71.71,71.71,0,0,1-6.54-31.89c-6.27,12.44-3.43,32.46-3.43,32.46S1319.3-40,1319.19-64.1c-4,21.42-5.88,47.1-5.88,47.1s-7.49-24.82,0-55c-11.15,30.77-13.36,67.64-13.36,67.64s2.21-31.91-7.36-65.38c4.08,32.27-7.88,66.35-7.88,66.35s-10.67-17-4.21-34.55c-7,8.85-13,26.83-13,26.83s2.48-33.45,13-66.2c-8,8.45-26.09,67.76-26.09,67.76S1256.31-28,1262-56.63c-15.26,28.76-23.43,44.83-23.43,44.83s-7.95-12.92-4.37-43.69c-13.35,26.88-8.3,47.51-8.3,47.51s-9.4-25.64-5.93-47.51c-8.33,21.81-5.67,35.49-5.67,35.49s-8.1-22.6,0-57.3c-11.58,23.31-16,59.69-16,59.69s-.87-20.34-3.82-34c.93,23.39-16.45,44.69-16.45,44.69s3.56-9.31,9.85-35.77a206.73,206.73,0,0,0-15.23,30.19s4.89-11.59,3.86-39.33c-1.86,27.46-14.87,42.33-14.87,42.33s7.22-27,6.58-40.9c-2.57,16.3-14,30.89-14,30.89a285,285,0,0,0-3.51-46.29c0,23.22-6.87,59.75-6.87,59.75a71.71,71.71,0,0,1-6.54-31.89c-6.27,12.44-3.43,32.46-3.43,32.46S1126.3-40,1126.19-64.1c-4,21.42-5.88,47.1-5.88,47.1s-7.49-24.82,0-55c-11.15,30.77-13.36,67.64-13.36,67.64s2.21-31.91-7.36-65.38c4.08,32.27-7.88,66.35-7.88,66.35s-10.67-17-4.21-34.55c-7,8.85-13,26.83-13,26.83s2.48-33.45,13-66.2c-8,8.45-26.09,67.76-26.09,67.76S1063.31-28,1069-56.63c-15.26,28.76-23.43,44.83-23.43,44.83s-7.95-12.92-4.37-43.69c-13.35,26.88-8.3,47.51-8.3,47.51s-9.4-25.64-5.93-47.51c-8.33,21.81-5.67,35.49-5.67,35.49s-8.1-22.6,0-57.3c-11.58,23.31-16,59.69-16,59.69s-.87-20.34-3.82-34c.93,23.39-16.45,44.69-16.45,44.69a348.93,348.93,0,0,1,4.06-59c-12.78,27.85-20,60.27-20,60.27s5.53-34,3.24-46.35c-2.48,20.6-14.31,36.62-14.31,36.62s3.71-25.37-.3-50.38c0,23.22-6.87,59.75-6.87,59.75a71.71,71.71,0,0,1-6.54-31.89c-6.27,12.44-3.43,32.46-3.43,32.46S933.3-40,933.19-64.1c-4,21.42-5.88,47.1-5.88,47.1s-7.49-24.82,0-55C916.15-41.22,913.94-4.35,913.94-4.35s2.21-31.91-7.36-65.38c4.08,32.27-7.88,66.35-7.88,66.35s-10.67-17-4.21-34.55c-7,8.85-13,26.83-13,26.83s2.48-33.45,13-66.2c-8,8.45-26.09,67.76-26.09,67.76S870.31-28,876-56.63C860.78-27.87,852.62-11.8,852.62-11.8s-7.95-12.92-4.37-43.69C834.89-28.61,839.94-8,839.94-8s-9.4-25.64-5.93-47.51C825.68-33.68,828.34-20,828.34-20s-8.1-22.6,0-57.3c-11.58,23.31-16,59.69-16,59.69s-.87-20.34-3.82-34c.93,23.39-16.45,44.69-16.45,44.69s-6-25.07,8.2-57L772-11s-3.24-29.74-7.24-54.75c0,23.22-6.87,59.75-6.87,59.75a71.71,71.71,0,0,1-6.54-31.89c-6.27,12.44-3.43,32.46-3.43,32.46S740.3-40,740.19-64.1c-4,21.42-5.88,47.1-5.88,47.1s-7.49-24.82,0-55C723.15-41.22,720.94-4.35,720.94-4.35s2.21-31.91-7.36-65.38c4.08,32.27-7.88,66.35-7.88,66.35s-10.67-17-4.21-34.55c-7,8.85-13,26.83-13,26.83s2.48-33.45,13-66.2c-8,8.45-26.09,67.76-26.09,67.76S677.31-28,683-56.63C667.78-27.87,659.62-11.8,659.62-11.8s-7.95-12.92-4.37-43.69C641.89-28.61,646.94-8,646.94-8s-9.4-25.64-5.93-47.51C632.68-33.68,635.34-20,635.34-20s-8.1-22.6,0-57.3c-11.58,23.31-16,59.69-16,59.69s-.87-20.34-3.82-34c.93,23.39-16.45,44.69-16.45,44.69a348.93,348.93,0,0,1,4.06-59c-12.78,27.85-20,60.27-20,60.27s5.53-34,3.24-46.35c-2.48,20.6-14.31,36.62-14.31,36.62s3.71-25.37-.3-50.38c0,23.22-6.87,59.75-6.87,59.75a71.71,71.71,0,0,1-6.54-31.89c-6.27,12.44-3.43,32.46-3.43,32.46S547.3-40,547.19-64.1c-4,21.42-5.88,47.1-5.88,47.1s-7.49-24.82,0-55C530.15-41.22,527.94-4.35,527.94-4.35s2.21-31.91-7.36-65.38c4.08,32.27-7.88,66.35-7.88,66.35s-10.67-17-4.21-34.55c-7,8.85-13,26.83-13,26.83s2.48-33.45,13-66.2c-8,8.45-26.09,67.76-26.09,67.76S484.31-28,490-56.63C474.78-27.87,466.62-11.8,466.62-11.8s-7.95-12.92-4.37-43.69C448.89-28.61,453.94-8,453.94-8s-9.4-25.64-5.93-47.51C439.68-33.68,442.34-20,442.34-20s-8.1-22.6,0-57.3c-11.58,23.31-16,59.69-16,59.69s-.87-20.34-3.82-34c.93,23.39-16.45,44.69-16.45,44.69s3.56-9.31,9.85-35.77a206.73,206.73,0,0,0-15.23,30.19s4.89-11.59,3.86-39.33C402.72-24.36,389.7-9.49,389.7-9.49s7.22-27,6.58-40.9c-2.57,16.3-14,30.89-14,30.89a285,285,0,0,0-3.51-46.29c0,23.22-6.87,59.75-6.87,59.75a71.71,71.71,0,0,1-6.54-31.89c-6.27,12.44-3.43,32.46-3.43,32.46S354.3-40,354.19-64.1c-4,21.42-5.88,47.1-5.88,47.1s-7.49-24.82,0-55C337.15-41.22,334.94-4.35,334.94-4.35s2.21-31.91-7.36-65.38c4.08,32.27-7.88,66.35-7.88,66.35s-10.67-17-4.21-34.55c-7,8.85-13,26.83-13,26.83s2.48-33.45,13-66.2c-8,8.45-26.09,67.76-26.09,67.76S291.31-28,297-56.63C281.78-27.87,273.62-11.8,273.62-11.8s-7.95-12.92-4.37-43.69C255.89-28.61,260.94-8,260.94-8s-9.4-25.64-5.93-47.51C246.68-33.68,249.34-20,249.34-20s-8.1-22.6,0-57.3c-11.58,23.31-16,59.69-16,59.69s-.87-20.34-3.82-34c.93,23.39-16.45,44.69-16.45,44.69a348.93,348.93,0,0,1,4.06-59c-12.78,27.85-20,60.27-20,60.27s5.53-34,3.24-46.35c-2.48,20.6-14.31,36.62-14.31,36.62s3.71-25.37-.3-50.38c0,23.22-6.87,59.75-6.87,59.75a71.71,71.71,0,0,1-6.54-31.89c-6.27,12.44-3.43,32.46-3.43,32.46S161.3-40,161.19-64.1c-4,21.42-5.88,47.1-5.88,47.1s-7.49-24.82,0-55C144.15-41.22,141.94-4.35,141.94-4.35s2.21-31.91-7.36-65.38c4.08,32.27-7.88,66.35-7.88,66.35s-10.67-17-4.21-34.55c-7,8.85-13,26.83-13,26.83s2.48-33.45,13-66.2c-8,8.45-26.09,67.76-26.09,67.76S98.31-28,104-56.63C88.78-27.87,80.62-11.8,80.62-11.8s-7.95-12.92-4.37-43.69C62.89-28.61,67.94-8,67.94-8S58.54-33.62,62-55.49C53.68-33.68,56.34-20,56.34-20s-8.1-22.6,0-57.3c-11.58,23.31-16,59.69-16,59.69s-.87-20.34-3.82-34C37.47-28.2,20.09-6.91,20.09-6.91s-6-25.07,8.2-57C10.09-42.9,0,1,0,1H1737Z"/><path class="c" d="M348.4,295.94H21.93a8.53,8.53,0,0,1-6.76-13.74l16.17-21a11.81,11.81,0,0,1,9.36-4.61H351.49a11.81,11.81,0,0,1,11.17,15.67l-6.19,17.95A8.53,8.53,0,0,1,348.4,295.94Z"/><circle class="d" cx="149.06" cy="225.28" r="51.94"/><path class="e" d="M272.74,271.86,207.3,221.11a5.53,5.53,0,0,0-3.37-1.16l-67.84-.16a5.53,5.53,0,0,1-5.51-5.53v-84.4a5.53,5.53,0,0,1,5.53-5.53H185.4a5.53,5.53,0,0,1,4.57,2.41l32.39,47.42a5.53,5.53,0,0,0,4.57,2.41h41.79a5.53,5.53,0,0,1,5.53,5.53v7.05a5.53,5.53,0,0,0,2.44,4.58l81.05,54.63a5.53,5.53,0,0,1,2.42,5L359,267.92a5.53,5.53,0,0,1-5.51,5.1H276.13A5.53,5.53,0,0,1,272.74,271.86Z"/><path class="f" d="M27.1,90.13c-.16-22,20.47-67.44,34.93-78.7,0,0,3.38-1.33,5.32.87s0,4.89,0,4.89L332.94,106.3C365.37,119.47,368.06,151,368.06,151s3.66-2.91,4.6,3.65c2.48,21.87-14.29,65.28-33.14,71.43-4.36,1.35-4.58-1.62-4.58-1.62s-27,16.93-55.12,2.57L35.46,90.84S33.22,95,30.16,94A4.28,4.28,0,0,1,27.1,90.13Z"/><path class="g" d="M159.21,48,113.14,32.55,80.36,25.69C100,35.8,118.57,51.82,118.57,51.82s-24.24-2-52.25-1.4L102,87.5A343.42,343.42,0,0,1,52,84.4s20.93,20.22,38.35,32.3l-22.87-8,43,24"/><path class="d" d="M74.64,112.68l74.68,41.63c6.93-25.87,25.25-69.63,43.81-94.92l-70-23.47L88.4,28.7c19.67,10.11,38.21,26.13,38.21,26.13s-24.24-2-52.25-1.4L110,90.51a343.42,343.42,0,0,1-50-3.09s22.19,22.19,39.61,34.27Z"/><path class="d" d="M332.94,106.3c-20.11,32.82-42.8,82.33-53.12,120.75,28.31,15.61,55.12-2.57,55.12-2.57-3.47-7.88,24.18-72.75,33.13-73.46C368.06,151,366.24,117.47,332.94,106.3Z"/><path class="h" d="M258.75,285.28l-65.44-50.75a5.53,5.53,0,0,0-3.37-1.16l-67.84-.16a5.53,5.53,0,0,1-5.51-5.53v-84.4a5.53,5.53,0,0,1,5.53-5.53h49.31a5.53,5.53,0,0,1,4.57,2.41l32.39,47.42a5.53,5.53,0,0,0,4.57,2.41h41.79a5.53,5.53,0,0,1,5.53,5.53v7.05a5.53,5.53,0,0,0,2.44,4.58l81.05,54.63a5.53,5.53,0,0,1,2.42,5L345,281.34a5.53,5.53,0,0,1-5.51,5.1H262.14A5.53,5.53,0,0,1,258.75,285.28Z"/><circle class="i" cx="135.62" cy="237.02" r="51.94"/></svg>