<svg xmlns="http://www.w3.org/2000/svg" viewBox="0 0 1920 800"><defs><style>.a{fill:#330b01;}.b{fill:#70601b;}.c{fill:#b12903;}.d{fill:#e0bf36;}.e{fill:#096;}</style></defs><title>entrance</title><rect class="a" width="1920.08" height="800"/><rect class="b" x="565.86" width="81.26" height="541.39"/><rect class="b" x="742.63" width="81.26" height="541.39"/><rect class="b" x="919.98" width="81.26" height="541.39"/><rect class="b" x="1096.75" width="81.26" height="541.39"/><rect class="b" x="1282.88" width="81.26" height="541.39"/><path class="c" d="M454,0V800h76s8-254.29-18.15-400c0,0,162.08-66.5,212.83-151.88S790.08,0,790.08,0Z"/><path class="d" d="M511.83,400.14c7,2.12,13,11.77,5.77,16a7.32,7.32,0,0,1-5.51,1.38c-30.2-5.29-60.09-20.13-60.09-20.13V380S486.7,395.61,511.83,400.14Z"/><rect class="d" width="454" height="800"/><rect class="c" x="286.12" width="88.19" height="800"/><rect class="c" x="117.31" width="88.19" height="800"/><rect class="c" width="37.04" height="800"/><path class="c" d="M1466,0V800h-75.92s-8-254.29,18.15-400c0,0-162.08-66.5-212.83-151.88S1130,0,1130,0Z"/><path class="d" d="M1408.21,400.14c-7,2.12-13,11.77-5.75,16a7.25,7.25,0,0,0,5.47,1.38c30.2-5.29,62.06-20.13,62.06-20.13V380S1433.34,395.61,1408.21,400.14Z"/><rect class="d" x="1466.08" width="454" height="800" transform="translate(3386.16 800) rotate(-180)"/><rect class="c" x="1545.76" width="88.19" height="800" transform="translate(3179.72 800) rotate(-180)"/><rect class="c" x="1714.58" width="88.19" height="800" transform="translate(3517.35 800) rotate(-180)"/><rect class="c" x="1883.04" width="37.04" height="800" transform="translate(3803.12 800) rotate(-180)"/><path class="e" d="M1737,801h183V767.89c-2,14.37-4.12,26.07-4.12,26.07a71.71,71.71,0,0,1-6.54-31.89c-6.27,12.44-3.43,32.46-3.43,32.46s-7.61-34.54-7.72-58.62c-4,21.42-5.88,47.1-5.88,47.1s-7.49-24.82,0-55c-11.15,30.77-13.36,67.64-13.36,67.64s2.21-31.91-7.36-65.38c4.08,32.27-7.88,66.35-7.88,66.35s-10.67-17-4.21-34.55c-7,8.85-13,26.83-13,26.83s2.48-33.45,13-66.2c-8,8.45-26.09,67.76-26.09,67.76s1.91-18.44,7.65-47.09c-15.26,28.76-23.43,44.83-23.43,44.83s-7.95-12.92-4.37-43.69c-13.35,26.88-8.3,47.51-8.3,47.51s-9.4-25.64-5.93-47.51c-8.33,21.81-5.67,35.49-5.67,35.49s-8.1-22.6,0-57.3c-11.58,23.31-16,59.69-16,59.69s-.87-20.34-3.82-34c.93,23.39-16.45,44.69-16.45,44.69a348.93,348.93,0,0,1,4.06-59c-12.78,27.85-20,60.27-20,60.27s5.53-34,3.24-46.35c-2.48,20.6-14.31,36.62-14.31,36.62s3.71-25.37-.3-50.38c0,23.22-6.87,59.75-6.87,59.75a71.71,71.71,0,0,1-6.54-31.89c-6.27,12.44-3.43,32.46-3.43,32.46s-7.61-34.54-7.72-58.62c-4,21.42-5.88,47.1-5.88,47.1s-7.49-24.82,0-55c-11.15,30.77-13.36,67.64-13.36,67.64s2.21-31.91-7.36-65.38c4.08,32.27-7.88,66.35-7.88,66.35s-10.67-17-4.21-34.55c-7,8.85-13,26.83-13,26.83s2.48-33.45,13-66.2c-8,8.45-26.09,67.76-26.09,67.76s1.91-18.44,7.65-47.09c-15.26,28.76-23.43,44.83-23.43,44.83s-7.95-12.92-4.37-43.69c-13.35,26.88-8.3,47.51-8.3,47.51s-9.4-25.64-5.93-47.51c-8.33,21.81-5.67,35.49-5.67,35.49s-8.1-22.6,0-57.3c-11.58,23.31-16,59.69-16,59.69s-.87-20.34-3.82-34c.93,23.39-16.45,44.69-16.45,44.69s-.68-29,8.2-57a219.92,219.92,0,0,0-23.19,50s-1.77-26.23-5.1-43c-1.15,26-7.43,33.77-7.43,33.77s4.19-17.78.18-42.79c0,23.22-6.87,59.75-6.87,59.75a71.71,71.71,0,0,1-6.54-31.89c-6.27,12.44-3.43,32.46-3.43,32.46s-7.61-34.54-7.72-58.62c-4,21.42-5.88,47.1-5.88,47.1s-7.49-24.82,0-55c-11.15,30.77-13.36,67.64-13.36,67.64s2.21-31.91-7.36-65.38c4.08,32.27-7.88,66.35-7.88,66.35s-10.67-17-4.21-34.55c-7,8.85-13,26.83-13,26.83s2.48-33.45,13-66.2c-8,8.45-26.09,67.76-26.09,67.76s1.91-18.44,7.65-47.09c-15.26,28.76-23.43,44.83-23.43,44.83s-7.95-12.92-4.37-43.69c-13.35,26.88-8.3,47.51-8.3,47.51s-9.4-25.64-5.93-47.51c-8.33,21.81-5.67,35.49-5.67,35.49s-8.1-22.6,0-57.3c-11.58,23.31-16,59.69-16,59.69s-.87-20.34-3.82-34c.93,23.39-16.45,44.69-16.45,44.69a348.93,348.93,0,0,1,4.06-59c-12.78,27.85-20,60.27-20,60.27s5.53-34,3.24-46.35c-2.48,20.6-14.31,36.62-14.31,36.62s3.71-25.37-.3-50.38c0,23.22-6.87,59.75-6.87,59.75a71.71,71.71,0,0,1-6.54-31.89c-6.27,12.44-3.43,32.46-3.43,32.46s-7.61-34.54-7.72-58.62c-4,21.42-5.88,47.1-5.88,47.1s-7.49-24.82,0-55c-11.15,30.77-13.36,67.64-13.36,67.64s2.21-31.91-7.36-65.38c4.08,32.27-7.88,66.35-7.88,66.35s-10.67-17-4.21-34.55c-7,8.85-13,26.83-13,26.83s2.48-33.45,13-66.2c-8,8.45-26.09,67.76-26.09,67.76s1.91-18.44,7.65-47.09c-15.26,28.76-23.43,44.83-23.43,44.83s-7.95-12.92-4.37-43.69c-13.35,26.88-8.3,47.51-8.3,47.51s-9.4-25.64-5.93-47.51c-8.33,21.81-5.67,35.49-5.67,35.49s-8.1-22.6,0-57.3c-11.58,23.31-16,59.69-16,59.69s-.87-20.34-3.82-34c.93,23.39-16.45,44.69-16.45,44.69s3.56-9.31,9.85-35.77a206.73,206.73,0,0,0-15.23,30.19s4.89-11.59,3.86-39.33c-1.86,27.46-14.87,42.33-14.87,42.33s7.22-27,6.58-40.9c-2.57,16.3-14,30.89-14,30.89a285,285,0,0,0-3.51-46.29c0,23.22-6.87,59.75-6.87,59.75a71.71,71.71,0,0,1-6.54-31.89c-6.27,12.44-3.43,32.46-3.43,32.46s-7.61-34.54-7.72-58.62c-4,21.42-5.88,47.1-5.88,47.1s-7.49-24.82,0-55c-11.15,30.77-13.36,67.64-13.36,67.64s2.21-31.91-7.36-65.38c4.08,32.27-7.88,66.35-7.88,66.35s-10.67-17-4.21-34.55c-7,8.85-13,26.83-13,26.83s2.48-33.45,13-66.2c-8,8.45-26.09,67.76-26.09,67.76s1.91-18.44,7.65-47.09c-15.26,28.76-23.43,44.83-23.43,44.83s-7.95-12.92-4.37-43.69c-13.35,26.88-8.3,47.51-8.3,47.51s-9.4-25.64-5.93-47.51c-8.33,21.81-5.67,35.49-5.67,35.49s-8.1-22.6,0-57.3c-11.58,23.31-16,59.69-16,59.69s-.87-20.34-3.82-34c.93,23.39-16.45,44.69-16.45,44.69a348.93,348.93,0,0,1,4.06-59c-12.78,27.85-20,60.27-20,60.27s5.53-34,3.24-46.35c-2.48,20.6-14.31,36.62-14.31,36.62s3.71-25.37-.3-50.38c0,23.22-6.87,59.75-6.87,59.75a71.71,71.71,0,0,1-6.54-31.89c-6.27,12.44-3.43,32.46-3.43,32.46S933.3,760,933.19,735.9c-4,21.42-5.88,47.1-5.88,47.1s-7.49-24.82,0-55c-11.15,30.77-13.36,67.64-13.36,67.64s2.21-31.91-7.36-65.38c4.08,32.27-7.88,66.35-7.88,66.35s-10.67-17-4.21-34.55c-7,8.85-13,26.83-13,26.83s2.48-33.45,13-66.2c-8,8.45-26.09,67.76-26.09,67.76S870.31,772,876,743.37c-15.26,28.76-23.43,44.83-23.43,44.83s-7.95-12.92-4.37-43.69c-13.35,26.88-8.3,47.51-8.3,47.51s-9.4-25.64-5.93-47.51c-8.33,21.81-5.67,35.49-5.67,35.49s-8.1-22.6,0-57.3c-11.58,23.31-16,59.69-16,59.69s-.87-20.34-3.82-34c.93,23.39-16.45,44.69-16.45,44.69s-6-25.07,8.2-57L772,789s-3.24-29.74-7.24-54.75c0,23.22-6.87,59.75-6.87,59.75a71.71,71.71,0,0,1-6.54-31.89c-6.27,12.44-3.43,32.46-3.43,32.46S740.3,760,740.19,735.9c-4,21.42-5.88,47.1-5.88,47.1s-7.49-24.82,0-55c-11.15,30.77-13.36,67.64-13.36,67.64s2.21-31.91-7.36-65.38c4.08,32.27-7.88,66.35-7.88,66.35s-10.67-17-4.21-34.55c-7,8.85-13,26.83-13,26.83s2.48-33.45,13-66.2c-8,8.45-26.09,67.76-26.09,67.76S677.31,772,683,743.37c-15.26,28.76-23.43,44.83-23.43,44.83s-7.95-12.92-4.37-43.69c-13.35,26.88-8.3,47.51-8.3,47.51s-9.4-25.64-5.93-47.51c-8.33,21.81-5.67,35.49-5.67,35.49s-8.1-22.6,0-57.3c-11.58,23.31-16,59.69-16,59.69s-.87-20.34-3.82-34c.93,23.39-16.45,44.69-16.45,44.69a348.93,348.93,0,0,1,4.06-59c-12.78,27.85-20,60.27-20,60.27s5.53-34,3.24-46.35c-2.48,20.6-14.31,36.62-14.31,36.62s3.71-25.37-.3-50.38c0,23.22-6.87,59.75-6.87,59.75a71.71,71.71,0,0,1-6.54-31.89c-6.27,12.44-3.43,32.46-3.43,32.46S547.3,760,547.19,735.9c-4,21.42-5.88,47.1-5.88,47.1s-7.49-24.82,0-55c-11.15,30.77-13.36,67.64-13.36,67.64s2.21-31.91-7.36-65.38c4.08,32.27-7.88,66.35-7.88,66.35s-10.67-17-4.21-34.55c-7,8.85-13,26.83-13,26.83s2.48-33.45,13-66.2c-8,8.45-26.09,67.76-26.09,67.76S484.31,772,490,743.37c-15.26,28.76-23.43,44.83-23.43,44.83s-7.95-12.92-4.37-43.69c-13.35,26.88-8.3,47.51-8.3,47.51s-9.4-25.64-5.93-47.51c-8.33,21.81-5.67,35.49-5.67,35.49s-8.1-22.6,0-57.3c-11.58,23.31-16,59.69-16,59.69s-.87-20.34-3.82-34c.93,23.39-16.45,44.69-16.45,44.69s3.56-9.31,9.85-35.77a206.73,206.73,0,0,0-15.23,30.19s4.89-11.59,3.86-39.33c-1.86,27.46-14.87,42.33-14.87,42.33s7.22-27,6.58-40.9c-2.57,16.3-14,30.89-14,30.89a285,285,0,0,0-3.51-46.29c0,23.22-6.87,59.75-6.87,59.75a71.71,71.71,0,0,1-6.54-31.89c-6.27,12.44-3.43,32.46-3.43,32.46S354.3,760,354.19,735.9c-4,21.42-5.88,47.1-5.88,47.1s-7.49-24.82,0-55c-11.15,30.77-13.36,67.64-13.36,67.64s2.21-31.91-7.36-65.38c4.08,32.27-7.88,66.35-7.88,66.35s-10.67-17-4.21-34.55c-7,8.85-13,26.83-13,26.83s2.48-33.45,13-66.2c-8,8.45-26.09,67.76-26.09,67.76S291.31,772,297,743.37c-15.26,28.76-23.43,44.83-23.43,44.83s-7.95-12.92-4.37-43.69c-13.35,26.88-8.3,47.51-8.3,47.51s-9.4-25.64-5.93-47.51c-8.33,21.81-5.67,35.49-5.67,35.49s-8.1-22.6,0-57.3c-11.58,23.31-16,59.69-16,59.69s-.87-20.34-3.82-34c.93,23.39-16.45,44.69-16.45,44.69a348.93,348.93,0,0,1,4.06-59c-12.78,27.85-20,60.27-20,60.27s5.53-34,3.24-46.35c-2.48,20.6-14.31,36.62-14.31,36.62s3.71-25.37-.3-50.38c0,23.22-6.87,59.75-6.87,59.75a71.71,71.71,0,0,1-6.54-31.89c-6.27,12.44-3.43,32.46-3.43,32.46S161.3,760,161.19,735.9c-4,21.42-5.88,47.1-5.88,47.1s-7.49-24.82,0-55c-11.15,30.77-13.36,67.64-13.36,67.64s2.21-31.91-7.36-65.38c4.08,32.27-7.88,66.35-7.88,66.35s-10.67-17-4.21-34.55c-7,8.85-13,26.83-13,26.83s2.48-33.45,13-66.2c-8,8.45-26.09,67.76-26.09,67.76S98.31,772,104,743.37C88.78,772.13,80.62,788.2,80.62,788.2s-7.95-12.92-4.37-43.69C62.89,771.39,67.94,792,67.94,792s-9.4-25.64-5.93-47.51C53.68,766.32,56.34,780,56.34,780s-8.1-22.6,0-57.3c-11.58,23.31-16,59.69-16,59.69s-.87-20.34-3.82-34c.93,23.39-16.45,44.69-16.45,44.69s-6-25.07,8.2-57C10.09,757.1,0,801,0,801H1737Z"/></svg>