<svg xmlns="http://www.w3.org/2000/svg" viewBox="0 0 1920.08 801"><defs><style>.a{fill:#c4d9ff;}.b{fill:#330b01;}.c{fill:#b12903;}.d{fill:#e09d8d;}.e{fill:#1d2533;}.f{fill:#ecd036;}.g{fill:#ffc697;}.h{fill:#dc2903;}.i{fill:#e0bf36;}.j{fill:#096;}</style></defs><title>entrance</title><rect class="a" width="1920.08" height="800"/><rect class="b" width="1920.08" height="390.46"/><circle class="c" cx="1187.72" cy="530.12" r="51.94"/><path class="d" d="M1311.4,576.7,1246,525.95a5.53,5.53,0,0,0-3.37-1.16l-67.84-.16a5.53,5.53,0,0,1-5.51-5.53v-84.4a5.53,5.53,0,0,1,5.53-5.53h49.31a5.53,5.53,0,0,1,4.57,2.41L1261,479a5.53,5.53,0,0,0,4.57,2.41h41.79a5.53,5.53,0,0,1,5.53,5.53V494a5.53,5.53,0,0,0,2.44,4.58l81.05,54.63a5.53,5.53,0,0,1,2.42,5l-1.12,14.55a5.53,5.53,0,0,1-5.51,5.1h-77.38A5.53,5.53,0,0,1,1311.4,576.7Z" transform="translate(0 0)"/><path class="e" d="M1065.76,395c-.16-22,20.47-67.44,34.93-78.7,0,0,3.38-1.33,5.32.87s0,4.89,0,4.89l265.59,89.11c32.43,13.17,35.12,44.72,35.12,44.72s3.66-2.91,4.6,3.65c2.48,21.87-14.29,65.28-33.14,71.43-4.36,1.35-4.58-1.62-4.58-1.62s-27,16.93-55.12,2.57l-244.35-136.2s-2.24,4.19-5.3,3.15A4.28,4.28,0,0,1,1065.76,395Z" transform="translate(0 0)"/><path class="f" d="M1197.87,352.85l-46.07-15.46L1119,330.53c19.67,10.11,38.21,26.13,38.21,26.13s-24.24-2-52.25-1.4l35.68,37.08a343.42,343.42,0,0,1-50-3.09s20.93,20.22,38.35,32.3l-22.87-8,43,24" transform="translate(0 0)"/><path class="c" d="M1113.3,417.52,1188,459.14c6.93-25.87,25.25-69.63,43.81-94.92l-70-23.47-34.78-7.21c19.67,10.11,38.21,26.13,38.21,26.13s-24.24-2-52.25-1.4l35.68,37.08a343.42,343.42,0,0,1-50-3.09s22.19,22.19,39.61,34.27Z" transform="translate(0 0)"/><path class="c" d="M1371.6,411.14c-20.11,32.82-42.8,82.33-53.12,120.75,28.31,15.61,55.12-2.57,55.12-2.57-3.47-7.88,24.18-72.75,33.13-73.46C1406.72,455.85,1404.9,422.31,1371.6,411.14Z" transform="translate(0 0)"/><path class="g" d="M1297.41,590.12,1232,539.37a5.53,5.53,0,0,0-3.37-1.16l-67.84-.16a5.53,5.53,0,0,1-5.51-5.53v-84.4a5.53,5.53,0,0,1,5.53-5.53h49.31a5.53,5.53,0,0,1,4.57,2.41L1247,492.42a5.53,5.53,0,0,0,4.57,2.41h41.79a5.53,5.53,0,0,1,5.53,5.53v7.05a5.53,5.53,0,0,0,2.44,4.58l81.05,54.63a5.53,5.53,0,0,1,2.42,5l-1.12,14.55a5.53,5.53,0,0,1-5.51,5.1H1300.8A5.53,5.53,0,0,1,1297.41,590.12Z" transform="translate(0 0)"/><circle class="h" cx="1174.28" cy="541.86" r="51.94"/><circle class="c" cx="734.01" cy="529.11" r="51.94"/><path class="d" d="M606.94,576.85H529.56a5.53,5.53,0,0,1-5.51-5.1l-1.12-14.55a5.53,5.53,0,0,1,2.42-5l81.05-54.63a5.53,5.53,0,0,0,2.44-4.58v-7.05a5.53,5.53,0,0,1,5.53-5.53h41.79a5.53,5.53,0,0,0,4.57-2.41l32.39-47.42a5.53,5.53,0,0,1,4.57-2.41H747a5.53,5.53,0,0,1,5.53,5.53v84.4a5.53,5.53,0,0,1-5.51,5.53l-67.84.16a5.53,5.53,0,0,0-3.37,1.16l-65.44,50.75A5.53,5.53,0,0,1,606.94,576.85Z" transform="translate(0 0)"/><path class="e" d="M856,394c.16-22-20.47-67.44-34.93-78.7,0,0-3.38-1.33-5.32.87s0,4.89,0,4.89L550.13,410.13C517.7,423.3,515,454.85,515,454.85s-3.66-2.91-4.6,3.65c-2.48,21.87,14.29,65.28,33.14,71.43,4.36,1.35,4.58-1.62,4.58-1.62s27,16.93,55.12,2.57l244.35-136.2s2.24,4.19,5.3,3.15A4.28,4.28,0,0,0,856,394Z" transform="translate(0 0)"/><path class="f" d="M723.86,351.84l46.07-15.46,32.78-6.86C783,339.64,764.5,355.65,764.5,355.65s24.24-2,52.25-1.4l-35.68,37.08a343.42,343.42,0,0,0,50-3.09s-20.93,20.22-38.35,32.3l22.87-8-43,24" transform="translate(0 0)"/><path class="c" d="M808.43,416.51l-74.68,41.63c-6.93-25.87-25.25-69.63-43.81-94.92l70-23.47,34.78-7.21c-19.67,10.11-38.21,26.13-38.21,26.13s24.24-2,52.25-1.4L773,394.34a343.42,343.42,0,0,0,50-3.09s-22.19,22.19-39.61,34.27Z" transform="translate(0 0)"/><path class="c" d="M550.13,410.13c20.11,32.82,42.8,82.33,53.12,120.75-28.31,15.61-55.12-2.57-55.12-2.57,3.47-7.88-24.18-72.75-33.13-73.46C515,454.85,516.83,421.3,550.13,410.13Z" transform="translate(0 0)"/><path class="g" d="M620.93,590.28H543.54a5.53,5.53,0,0,1-5.51-5.1l-1.12-14.55a5.53,5.53,0,0,1,2.42-5L620.38,511a5.53,5.53,0,0,0,2.44-4.58v-7.05a5.53,5.53,0,0,1,5.53-5.53h41.79a5.53,5.53,0,0,0,4.57-2.41L707.09,444a5.53,5.53,0,0,1,4.57-2.41H761a5.53,5.53,0,0,1,5.53,5.53v84.4A5.53,5.53,0,0,1,761,537l-67.84.16a5.53,5.53,0,0,0-3.37,1.16l-65.44,50.75A5.53,5.53,0,0,1,620.93,590.28Z" transform="translate(0 0)"/><circle class="h" cx="747.45" cy="540.85" r="51.94"/><circle class="c" cx="1222.45" cy="600.82" r="59.28"/><path class="d" d="M1363.6,654l-74.69-57.92a6.31,6.31,0,0,0-3.85-1.32l-77.43-.19a6.31,6.31,0,0,1-6.29-6.31V491.91a6.31,6.31,0,0,1,6.31-6.31h56.28a6.31,6.31,0,0,1,5.21,2.75l37,54.12a6.31,6.31,0,0,0,5.21,2.75H1359a6.31,6.31,0,0,1,6.31,6.31v8a6.31,6.31,0,0,0,2.78,5.23l92.51,62.35a6.31,6.31,0,0,1,2.76,5.72l-1.28,16.6a6.31,6.31,0,0,1-6.29,5.82h-88.32A6.31,6.31,0,0,1,1363.6,654Z" transform="translate(0 0)"/><path class="e" d="M1083.25,446.57c-.19-25.14,23.36-77,39.87-89.82,0,0,3.85-1.52,6.07,1s0,5.58,0,5.58L1432.31,465c37,15,40.08,51,40.08,51s4.18-3.32,5.24,4.17c2.83,25-16.3,74.5-37.83,81.52-5,1.54-5.23-1.84-5.23-1.84s-30.84,19.33-62.9,2.93L1092.79,447.39s-2.56,4.78-6.05,3.59A4.88,4.88,0,0,1,1083.25,446.57Z" transform="translate(0 0)"/><path class="f" d="M1234,398.5l-52.58-17.64L1144,373c22.44,11.54,43.61,29.82,43.61,29.82s-27.67-2.31-59.64-1.6l40.72,42.32a392,392,0,0,1-57.07-3.53s23.88,23.08,43.76,36.87l-26.1-9.16,49.12,27.38" transform="translate(0 0)"/><path class="c" d="M1137.51,472.31l85.23,47.51c7.91-29.53,28.81-79.47,50-108.33L1192.9,384.7l-39.69-8.23c22.44,11.54,43.61,29.82,43.61,29.82s-27.67-2.31-59.64-1.6L1177.9,447a392,392,0,0,1-57.07-3.53s25.33,25.33,45.21,39.12Z" transform="translate(0 0)"/><path class="c" d="M1432.31,465c-23,37.46-48.85,94-60.63,137.81,32.31,17.81,62.9-2.93,62.9-2.93-4-9,27.59-83,37.81-83.85C1472.4,516.06,1470.32,477.78,1432.31,465Z" transform="translate(0 0)"/><path class="g" d="M1347.64,669.3l-74.69-57.92a6.31,6.31,0,0,0-3.85-1.32l-77.43-.19a6.31,6.31,0,0,1-6.29-6.31V507.23a6.31,6.31,0,0,1,6.31-6.31H1248a6.31,6.31,0,0,1,5.21,2.75l37,54.12a6.31,6.31,0,0,0,5.21,2.75H1343a6.31,6.31,0,0,1,6.31,6.31v8a6.31,6.31,0,0,0,2.78,5.23l92.51,62.35a6.31,6.31,0,0,1,2.76,5.72l-1.28,16.6a6.31,6.31,0,0,1-6.29,5.82h-88.32A6.31,6.31,0,0,1,1347.64,669.3Z" transform="translate(0 0)"/><circle class="h" cx="1207.1" cy="614.22" r="59.28"/><circle class="c" cx="704.61" cy="599.67" r="59.28"/><path class="d" d="M559.59,654.16H471.27a6.31,6.31,0,0,1-6.29-5.82l-1.28-16.6a6.31,6.31,0,0,1,2.76-5.72L559,563.67a6.31,6.31,0,0,0,2.78-5.23v-8a6.31,6.31,0,0,1,6.31-6.31h47.69a6.31,6.31,0,0,0,5.21-2.75l37-54.12a6.31,6.31,0,0,1,5.21-2.75h56.28a6.31,6.31,0,0,1,6.31,6.31v96.33a6.31,6.31,0,0,1-6.29,6.31l-77.43.19a6.31,6.31,0,0,0-3.85,1.32l-74.69,57.92A6.31,6.31,0,0,1,559.59,654.16Z" transform="translate(0 0)"/><path class="e" d="M843.81,445.43c.19-25.14-23.36-77-39.87-89.82,0,0-3.85-1.52-6.07,1s0,5.58,0,5.58L494.75,463.88c-37,15-40.08,51-40.08,51s-4.18-3.32-5.24,4.17c-2.83,25,16.3,74.5,37.83,81.52,5,1.54,5.23-1.84,5.23-1.84s30.84,19.33,62.9,2.93L834.27,446.24s2.56,4.78,6.05,3.59A4.88,4.88,0,0,0,843.81,445.43Z" transform="translate(0 0)"/><path class="f" d="M693,397.35l52.58-17.64L783,371.88c-22.44,11.54-43.61,29.82-43.61,29.82s27.67-2.31,59.64-1.6l-40.72,42.32a392,392,0,0,0,57.07-3.53S791.52,462,771.65,475.76l26.1-9.16L748.62,494" transform="translate(0 0)"/><path class="c" d="M789.56,471.16l-85.23,47.51c-7.91-29.53-28.81-79.47-50-108.33l79.84-26.79,39.69-8.23c-22.44,11.54-43.61,29.82-43.61,29.82s27.67-2.31,59.64-1.6l-40.72,42.32a392,392,0,0,0,57.07-3.53S780.91,467.66,761,481.45Z" transform="translate(0 0)"/><path class="c" d="M494.75,463.88c23,37.46,48.85,94,60.63,137.81-32.31,17.81-62.9-2.93-62.9-2.93,4-9-27.59-83-37.81-83.85C454.66,514.92,456.74,476.63,494.75,463.88Z" transform="translate(0 0)"/><path class="g" d="M575.55,669.48H487.23a6.31,6.31,0,0,1-6.29-5.82l-1.28-16.6a6.31,6.31,0,0,1,2.76-5.72L574.93,579a6.31,6.31,0,0,0,2.78-5.23v-8A6.31,6.31,0,0,1,584,559.4h47.69a6.31,6.31,0,0,0,5.21-2.75l37-54.12a6.31,6.31,0,0,1,5.21-2.75h56.28a6.31,6.31,0,0,1,6.31,6.31v96.33a6.31,6.31,0,0,1-6.29,6.31l-77.43.19a6.31,6.31,0,0,0-3.85,1.32l-74.69,57.92A6.31,6.31,0,0,1,575.55,669.48Z" transform="translate(0 0)"/><circle class="h" cx="719.96" cy="613.07" r="59.28"/><circle class="c" cx="1260.57" cy="688.21" r="68.93"/><path class="d" d="M1424.69,750l-86.84-67.35a7.34,7.34,0,0,0-4.48-1.54l-90-.22a7.34,7.34,0,0,1-7.32-7.34v-112a7.34,7.34,0,0,1,7.34-7.34h65.43a7.34,7.34,0,0,1,6.06,3.2l43,62.93a7.34,7.34,0,0,0,6.06,3.2h55.45a7.34,7.34,0,0,1,7.34,7.34v9.36a7.34,7.34,0,0,0,3.24,6.08l107.55,72.49a7.34,7.34,0,0,1,3.21,6.65l-1.49,19.3a7.34,7.34,0,0,1-7.31,6.77H1429.18A7.34,7.34,0,0,1,1424.69,750Z" transform="translate(0 0)"/><path class="e" d="M1098.72,508.88c-.22-29.23,27.16-89.49,46.35-104.43,0,0,4.48-1.77,7.06,1.15s0,6.48,0,6.48l352.44,118.25c43,17.48,46.6,59.34,46.6,59.34s4.86-3.86,6.1,4.85c3.29,29-19,86.62-44,94.78-5.79,1.79-6.08-2.14-6.08-2.14s-35.86,22.47-73.14,3.41L1109.82,509.82s-3,5.56-7,4.17A5.68,5.68,0,0,1,1098.72,508.88Z" transform="translate(0 0)"/><path class="f" d="M1274,453l-61.14-20.51-43.5-9.11c26.1,13.42,50.7,34.67,50.7,34.67s-32.17-2.69-69.34-1.86l47.34,49.21a455.71,455.71,0,0,1-66.36-4.1s27.77,26.83,50.88,42.86l-30.35-10.65,57.11,31.84" transform="translate(0 0)"/><path class="c" d="M1161.81,538.8,1260.9,594c9.2-34.33,33.5-92.4,58.14-126l-92.83-31.15-46.15-9.57c26.1,13.42,50.7,34.67,50.7,34.67s-32.17-2.69-69.34-1.86l47.34,49.21a455.71,455.71,0,0,1-66.36-4.1s29.45,29.45,52.56,45.48Z" transform="translate(0 0)"/><path class="c" d="M1504.57,530.33c-26.68,43.55-56.8,109.25-70.5,160.23,37.56,20.71,73.14-3.41,73.14-3.41-4.61-10.46,32.08-96.54,44-97.48C1551.18,589.67,1548.76,545.16,1504.57,530.33Z" transform="translate(0 0)"/><path class="g" d="M1406.13,767.84l-86.84-67.35a7.34,7.34,0,0,0-4.48-1.54l-90-.22a7.34,7.34,0,0,1-7.32-7.34v-112a7.34,7.34,0,0,1,7.34-7.34h65.43a7.34,7.34,0,0,1,6.06,3.2l43,62.93a7.34,7.34,0,0,0,6.06,3.2h55.45a7.34,7.34,0,0,1,7.34,7.34v9.36a7.34,7.34,0,0,0,3.24,6.08l107.55,72.49a7.34,7.34,0,0,1,3.21,6.65l-1.49,19.3a7.34,7.34,0,0,1-7.31,6.77H1410.62A7.34,7.34,0,0,1,1406.13,767.84Z" transform="translate(0 0)"/><circle class="h" cx="1242.73" cy="703.8" r="68.93"/><circle class="c" cx="658.49" cy="686.88" r="68.93"/><path class="d" d="M489.88,750.23H387.19a7.34,7.34,0,0,1-7.31-6.77l-1.49-19.3a7.34,7.34,0,0,1,3.21-6.65L489.16,645a7.34,7.34,0,0,0,3.24-6.08v-9.36a7.34,7.34,0,0,1,7.34-7.34h55.45a7.34,7.34,0,0,0,6.06-3.2l43-62.93a7.34,7.34,0,0,1,6.06-3.2H675.7a7.34,7.34,0,0,1,7.34,7.34v112a7.34,7.34,0,0,1-7.32,7.34l-90,.22a7.34,7.34,0,0,0-4.48,1.54l-86.84,67.35A7.34,7.34,0,0,1,489.88,750.23Z" transform="translate(0 0)"/><path class="e" d="M820.34,507.54c.22-29.23-27.16-89.49-46.35-104.43,0,0-4.48-1.77-7.06,1.15s0,6.48,0,6.48L414.49,529c-43,17.48-46.6,59.34-46.6,59.34s-4.86-3.86-6.1,4.85c-3.29,29,19,86.62,44,94.78,5.79,1.79,6.08-2.14,6.08-2.14s35.86,22.47,73.14,3.41L809.24,508.49s3,5.56,7,4.17A5.68,5.68,0,0,0,820.34,507.54Z" transform="translate(0 0)"/><path class="f" d="M645,451.65l61.14-20.51,43.5-9.11C723.57,435.45,699,456.7,699,456.7s32.17-2.69,69.34-1.86L721,504a455.71,455.71,0,0,0,66.36-4.1s-27.77,26.83-50.88,42.86l30.35-10.65L709.66,564" transform="translate(0 0)"/><path class="c" d="M757.26,537.47l-99.1,55.24c-9.2-34.33-33.5-92.4-58.14-126l92.83-31.15L739,426c-26.1,13.42-50.7,34.67-50.7,34.67s32.17-2.69,69.34-1.86L710.29,508a455.71,455.71,0,0,0,66.36-4.1s-29.45,29.45-52.56,45.48Z" transform="translate(0 0)"/><path class="c" d="M414.49,529c26.68,43.55,56.8,109.25,70.5,160.23-37.56,20.71-73.14-3.41-73.14-3.41,4.61-10.46-32.08-96.54-44-97.48C367.89,588.34,370.3,543.82,414.49,529Z" transform="translate(0 0)"/><path class="g" d="M508.44,768H405.75a7.34,7.34,0,0,1-7.31-6.77L396.95,742a7.34,7.34,0,0,1,3.21-6.65l107.55-72.49a7.34,7.34,0,0,0,3.24-6.08v-9.36a7.34,7.34,0,0,1,7.34-7.34h55.45a7.34,7.34,0,0,0,6.06-3.2l43-62.93a7.34,7.34,0,0,1,6.06-3.2h65.43a7.34,7.34,0,0,1,7.34,7.34v112a7.34,7.34,0,0,1-7.32,7.34l-90,.22a7.34,7.34,0,0,0-4.48,1.54l-86.84,67.35A7.34,7.34,0,0,1,508.44,768Z" transform="translate(0 0)"/><circle class="h" cx="676.34" cy="702.46" r="68.93"/><path class="c" d="M454,0V800h76s8-254.29-18.15-400c0,0,162.08-66.5,212.83-151.88S790.08,0,790.08,0Z" transform="translate(0 0)"/><path class="f" d="M511.83,400.14c7,2.12,13,11.77,5.77,16a7.32,7.32,0,0,1-5.51,1.38c-30.2-5.29-60.09-20.13-60.09-20.13V380S486.7,395.61,511.83,400.14Z" transform="translate(0 0)"/><rect class="i" width="454" height="800"/><rect class="c" x="286.12" width="88.19" height="800"/><rect class="c" x="117.31" width="88.19" height="800"/><rect class="c" width="37.04" height="800"/><path class="c" d="M1466,0V800h-75.92s-8-254.29,18.15-400c0,0-162.08-66.5-212.83-151.88S1130,0,1130,0Z" transform="translate(0 0)"/><path class="f" d="M1408.21,400.14c-7,2.12-13,11.77-5.75,16a7.25,7.25,0,0,0,5.47,1.38c30.2-5.29,62.06-20.13,62.06-20.13V380S1433.34,395.61,1408.21,400.14Z" transform="translate(0 0)"/><rect class="i" x="1466.08" width="454" height="800" transform="translate(3386.16 800) rotate(-180)"/><rect class="c" x="1545.76" width="88.19" height="800" transform="translate(3179.72 800) rotate(-180)"/><rect class="c" x="1714.58" width="88.19" height="800" transform="translate(3517.35 800) rotate(-180)"/><rect class="c" x="1883.04" width="37.04" height="800" transform="translate(3803.12 800) rotate(-180)"/><polyline class="j" points="965 800 1158 800 1351 800"/><path class="j" d="M1737,801h183V767.89c-2,14.37-4.12,26.07-4.12,26.07a71.71,71.71,0,0,1-6.54-31.89c-6.27,12.44-3.43,32.46-3.43,32.46s-7.61-34.54-7.72-58.62c-4,21.42-5.88,47.1-5.88,47.1s-7.49-24.82,0-55c-11.15,30.77-13.36,67.64-13.36,67.64s2.21-31.91-7.36-65.38c4.08,32.27-7.88,66.35-7.88,66.35s-10.67-17-4.21-34.55c-7,8.85-13,26.83-13,26.83s2.48-33.45,13-66.2c-8,8.45-26.09,67.76-26.09,67.76s1.91-18.44,7.65-47.09c-15.26,28.76-23.43,44.83-23.43,44.83s-7.95-12.92-4.37-43.69c-13.35,26.88-8.3,47.51-8.3,47.51s-9.4-25.64-5.93-47.51c-8.33,21.81-5.67,35.49-5.67,35.49s-8.1-22.6,0-57.3c-11.58,23.31-16,59.69-16,59.69s-.87-20.34-3.82-34c.93,23.39-16.45,44.69-16.45,44.69a348.93,348.93,0,0,1,4.06-59c-12.78,27.85-20,60.27-20,60.27s5.53-34,3.24-46.35c-2.48,20.6-14.31,36.62-14.31,36.62s3.71-25.37-.3-50.38c0,23.22-6.87,59.75-6.87,59.75a71.71,71.71,0,0,1-6.54-31.89c-6.27,12.44-3.43,32.46-3.43,32.46s-7.61-34.54-7.72-58.62c-4,21.42-5.88,47.1-5.88,47.1s-7.49-24.82,0-55c-11.15,30.77-13.36,67.64-13.36,67.64s2.21-31.91-7.36-65.38c4.08,32.27-7.88,66.35-7.88,66.35s-10.67-17-4.21-34.55c-7,8.85-13,26.83-13,26.83s2.48-33.45,13-66.2c-8,8.45-26.09,67.76-26.09,67.76s1.91-18.44,7.65-47.09c-15.26,28.76-23.43,44.83-23.43,44.83s-7.95-12.92-4.37-43.69c-13.35,26.88-8.3,47.51-8.3,47.51s-9.4-25.64-5.93-47.51c-8.33,21.81-5.67,35.49-5.67,35.49s-8.1-22.6,0-57.3c-11.58,23.31-16,59.69-16,59.69s-.87-20.34-3.82-34c.93,23.39-16.45,44.69-16.45,44.69s-.68-29,8.2-57a219.92,219.92,0,0,0-23.19,50s-1.77-26.23-5.1-43c-1.15,26-7.43,33.77-7.43,33.77s4.19-17.78.18-42.79c0,23.22-6.87,59.75-6.87,59.75a71.71,71.71,0,0,1-6.54-31.89c-6.27,12.44-3.43,32.46-3.43,32.46s-7.61-34.54-7.72-58.62c-4,21.42-5.88,47.1-5.88,47.1s-7.49-24.82,0-55c-11.15,30.77-13.36,67.64-13.36,67.64s2.21-31.91-7.36-65.38c4.08,32.27-7.88,66.35-7.88,66.35s-10.67-17-4.21-34.55c-7,8.85-13,26.83-13,26.83s2.48-33.45,13-66.2c-8,8.45-26.09,67.76-26.09,67.76s1.91-18.44,7.65-47.09c-15.26,28.76-23.43,44.83-23.43,44.83s-7.95-12.92-4.37-43.69c-13.35,26.88-8.3,47.51-8.3,47.51s-9.4-25.64-5.93-47.51c-8.33,21.81-5.67,35.49-5.67,35.49s-8.1-22.6,0-57.3c-11.58,23.31-16,59.69-16,59.69s-.87-20.34-3.82-34c.93,23.39-16.45,44.69-16.45,44.69a348.93,348.93,0,0,1,4.06-59c-12.78,27.85-20,60.27-20,60.27s5.53-34,3.24-46.35c-2.48,20.6-14.31,36.62-14.31,36.62s3.71-25.37-.3-50.38c0,23.22-6.87,59.75-6.87,59.75a71.71,71.71,0,0,1-6.54-31.89c-6.27,12.44-3.43,32.46-3.43,32.46s-7.61-34.54-7.72-58.62c-4,21.42-5.88,47.1-5.88,47.1s-7.49-24.82,0-55c-11.15,30.77-13.36,67.64-13.36,67.64s2.21-31.91-7.36-65.38c4.08,32.27-7.88,66.35-7.88,66.35s-10.67-17-4.21-34.55c-7,8.85-13,26.83-13,26.83s2.48-33.45,13-66.2c-8,8.45-26.09,67.76-26.09,67.76s1.91-18.44,7.65-47.09c-15.26,28.76-23.43,44.83-23.43,44.83s-7.95-12.92-4.37-43.69c-13.35,26.88-8.3,47.51-8.3,47.51s-9.4-25.64-5.93-47.51c-8.33,21.81-5.67,35.49-5.67,35.49s-8.1-22.6,0-57.3c-11.58,23.31-16,59.69-16,59.69s-.87-20.34-3.82-34c.93,23.39-16.45,44.69-16.45,44.69s3.56-9.31,9.85-35.77a206.73,206.73,0,0,0-15.23,30.19s4.89-11.59,3.86-39.33c-1.86,27.46-14.87,42.33-14.87,42.33s7.22-27,6.58-40.9c-2.57,16.3-14,30.89-14,30.89a285,285,0,0,0-3.51-46.29c0,23.22-6.87,59.75-6.87,59.75a71.71,71.71,0,0,1-6.54-31.89c-6.27,12.44-3.43,32.46-3.43,32.46s-7.61-34.54-7.72-58.62c-4,21.42-5.88,47.1-5.88,47.1s-7.49-24.82,0-55c-11.15,30.77-13.36,67.64-13.36,67.64s2.21-31.91-7.36-65.38c4.08,32.27-7.88,66.35-7.88,66.35s-10.67-17-4.21-34.55c-7,8.85-13,26.83-13,26.83s2.48-33.45,13-66.2c-8,8.45-26.09,67.76-26.09,67.76s1.91-18.44,7.65-47.09c-15.26,28.76-23.43,44.83-23.43,44.83s-7.95-12.92-4.37-43.69c-13.35,26.88-8.3,47.51-8.3,47.51s-9.4-25.64-5.93-47.51c-8.33,21.81-5.67,35.49-5.67,35.49s-8.1-22.6,0-57.3c-11.58,23.31-16,59.69-16,59.69s-.87-20.34-3.82-34c.93,23.39-16.45,44.69-16.45,44.69a348.93,348.93,0,0,1,4.06-59c-12.78,27.85-20,60.27-20,60.27s5.53-34,3.24-46.35c-2.48,20.6-14.31,36.62-14.31,36.62s3.71-25.37-.3-50.38c0,23.22-6.87,59.75-6.87,59.75a71.71,71.71,0,0,1-6.54-31.89c-6.27,12.44-3.43,32.46-3.43,32.46S933.3,760,933.19,735.9c-4,21.42-5.88,47.1-5.88,47.1s-7.49-24.82,0-55c-11.15,30.77-13.36,67.64-13.36,67.64s2.21-31.91-7.36-65.38c4.08,32.27-7.88,66.35-7.88,66.35s-10.67-17-4.21-34.55c-7,8.85-13,26.83-13,26.83s2.48-33.45,13-66.2c-8,8.45-26.09,67.76-26.09,67.76S870.31,772,876,743.37c-15.26,28.76-23.43,44.83-23.43,44.83s-7.95-12.92-4.37-43.69c-13.35,26.88-8.3,47.51-8.3,47.51s-9.4-25.64-5.93-47.51c-8.33,21.81-5.67,35.49-5.67,35.49s-8.1-22.6,0-57.3c-11.58,23.31-16,59.69-16,59.69s-.87-20.34-3.82-34c.93,23.39-16.45,44.69-16.45,44.69s-6-25.07,8.2-57L772,789s-3.24-29.74-7.24-54.75c0,23.22-6.87,59.75-6.87,59.75a71.71,71.71,0,0,1-6.54-31.89c-6.27,12.44-3.43,32.46-3.43,32.46S740.3,760,740.19,735.9c-4,21.42-5.88,47.1-5.88,47.1s-7.49-24.82,0-55c-11.15,30.77-13.36,67.64-13.36,67.64s2.21-31.91-7.36-65.38c4.08,32.27-7.88,66.35-7.88,66.35s-10.67-17-4.21-34.55c-7,8.85-13,26.83-13,26.83s2.48-33.45,13-66.2c-8,8.45-26.09,67.76-26.09,67.76S677.31,772,683,743.37c-15.26,28.76-23.43,44.83-23.43,44.83s-7.95-12.92-4.37-43.69c-13.35,26.88-8.3,47.51-8.3,47.51s-9.4-25.64-5.93-47.51c-8.33,21.81-5.67,35.49-5.67,35.49s-8.1-22.6,0-57.3c-11.58,23.31-16,59.69-16,59.69s-.87-20.34-3.82-34c.93,23.39-16.45,44.69-16.45,44.69a348.93,348.93,0,0,1,4.06-59c-12.78,27.85-20,60.27-20,60.27s5.53-34,3.24-46.35c-2.48,20.6-14.31,36.62-14.31,36.62s3.71-25.37-.3-50.38c0,23.22-6.87,59.75-6.87,59.75a71.71,71.71,0,0,1-6.54-31.89c-6.27,12.44-3.43,32.46-3.43,32.46S547.3,760,547.19,735.9c-4,21.42-5.88,47.1-5.88,47.1s-7.49-24.82,0-55c-11.15,30.77-13.36,67.64-13.36,67.64s2.21-31.91-7.36-65.38c4.08,32.27-7.88,66.35-7.88,66.35s-10.67-17-4.21-34.55c-7,8.85-13,26.83-13,26.83s2.48-33.45,13-66.2c-8,8.45-26.09,67.76-26.09,67.76S484.31,772,490,743.37c-15.26,28.76-23.43,44.83-23.43,44.83s-7.95-12.92-4.37-43.69c-13.35,26.88-8.3,47.51-8.3,47.51s-9.4-25.64-5.93-47.51c-8.33,21.81-5.67,35.49-5.67,35.49s-8.1-22.6,0-57.3c-11.58,23.31-16,59.69-16,59.69s-.87-20.34-3.82-34c.93,23.39-16.45,44.69-16.45,44.69s3.56-9.31,9.85-35.77a206.73,206.73,0,0,0-15.23,30.19s4.89-11.59,3.86-39.33c-1.86,27.46-14.87,42.33-14.87,42.33s7.22-27,6.58-40.9c-2.57,16.3-14,30.89-14,30.89a285,285,0,0,0-3.51-46.29c0,23.22-6.87,59.75-6.87,59.75a71.71,71.71,0,0,1-6.54-31.89c-6.27,12.44-3.43,32.46-3.43,32.46S354.3,760,354.19,735.9c-4,21.42-5.88,47.1-5.88,47.1s-7.49-24.82,0-55c-11.15,30.77-13.36,67.64-13.36,67.64s2.21-31.91-7.36-65.38c4.08,32.27-7.88,66.35-7.88,66.35s-10.67-17-4.21-34.55c-7,8.85-13,26.83-13,26.83s2.48-33.45,13-66.2c-8,8.45-26.09,67.76-26.09,67.76S291.31,772,297,743.37c-15.26,28.76-23.43,44.83-23.43,44.83s-7.95-12.92-4.37-43.69c-13.35,26.88-8.3,47.51-8.3,47.51s-9.4-25.64-5.93-47.51c-8.33,21.81-5.67,35.49-5.67,35.49s-8.1-22.6,0-57.3c-11.58,23.31-16,59.69-16,59.69s-.87-20.34-3.82-34c.93,23.39-16.45,44.69-16.45,44.69a348.93,348.93,0,0,1,4.06-59c-12.78,27.85-20,60.27-20,60.27s5.53-34,3.24-46.35c-2.48,20.6-14.31,36.62-14.31,36.62s3.71-25.37-.3-50.38c0,23.22-6.87,59.75-6.87,59.75a71.71,71.71,0,0,1-6.54-31.89c-6.27,12.44-3.43,32.46-3.43,32.46S161.3,760,161.19,735.9c-4,21.42-5.88,47.1-5.88,47.1s-7.49-24.82,0-55c-11.15,30.77-13.36,67.64-13.36,67.64s2.21-31.91-7.36-65.38c4.08,32.27-7.88,66.35-7.88,66.35s-10.67-17-4.21-34.55c-7,8.85-13,26.83-13,26.83s2.48-33.45,13-66.2c-8,8.45-26.09,67.76-26.09,67.76S98.31,772,104,743.37C88.78,772.13,80.62,788.2,80.62,788.2s-7.95-12.92-4.37-43.69C62.89,771.39,67.94,792,67.94,792s-9.4-25.64-5.93-47.51C53.68,766.32,56.34,780,56.34,780s-8.1-22.6,0-57.3c-11.58,23.31-16,59.69-16,59.69s-.87-20.34-3.82-34c.93,23.39-16.45,44.69-16.45,44.69s-6-25.07,8.2-57C10.09,757.1,0,801,0,801H1737Z" transform="translate(0 0)"/></svg>