<svg xmlns="http://www.w3.org/2000/svg" viewBox="0 0 1920 400"><defs><style>.a{fill:#006842;}.b{fill:#096;}</style></defs><title>lawn</title><polyline class="a" points="0 397.73 0 0 1920 0 1920 397.73"/><polygon class="b" points="1458.95 14.07 1486.31 5.3 1509.73 7.56 1920 99.92 1920 188.57 1395.95 10.57 1458.95 14.07"/><polygon class="b" points="1472.74 345.3 1572.73 359.13 1160.97 15.29 1173.37 7.57 1263.91 16.29 1267.54 10.79 1870.03 370.19 1920 365.38 1920 400 1621.67 400 0 400 0 189.63 436.89 15.02 476.33 11.37 548.14 21.71 589.82 13.07 54.82 364.04 159.05 352.01 256.78 386.83 361.78 369.5 725.67 17.4 742.7 7.57 820.38 24.16 849.38 15.97 670.79 371.45 748.86 381.47 874.31 366.35 960 375.42 960 14.79 985.61 24.22 1036.86 5.3 1057.58 11.06 1240.77 362.08 1333.14 380.17 1472.74 345.3"/></svg>