<svg xmlns="http://www.w3.org/2000/svg" xmlns:xlink="http://www.w3.org/1999/xlink" viewBox="0 0 945 1045"><defs><style>.a,.h{fill:none;}.b{fill:#122031;}.c{clip-path:url(#a);}.d{fill:#f6d214;}.e{fill:#ff2400;}.f{fill:#fff;}.g{clip-path:url(#b);}.h{stroke:#fff;stroke-width:18px;}.i{clip-path:url(#c);}</style><clipPath id="a"><path class="a" d="M294.27,845,438,522.5l82.24-2.62L652.1,836.59l-38.18,16-115.43-286H459.42L343.72,845ZM0,1045H945V0H0Z"/></clipPath><clipPath id="b"><path class="a" d="M874.82,473.24c0,157.88-91.5,294.38-224.37,359.37l45.33,105.76-40.17,14.69L612.46,848.81a401.68,401.68,0,0,1-270.76,1.51l-42.49,99.33-42.83-17.3,43.34-99.64c-133-65-224.56-201.51-224.56-359.46,0-220.82,179-399.83,399.83-399.83S874.82,252.43,874.82,473.24ZM0,1045H945V0H0Z"/></clipPath><clipPath id="c"><path class="a" d="M846.7,473.24C846.7,678.53,680.28,845,475,845S103.28,678.53,103.28,473.24,269.7,101.53,475,101.53,846.7,268,846.7,473.24ZM0,1045H945V0H0Z"/></clipPath></defs><title>logo_bg</title><g class="c"><path class="d" d="M476.66,159.25c-4.08,0-19.22.19-18.79,21.71-21.09.86-21.52,11.62-18.94,23.24s25,117.52,26.62,127,.89,10.78,9.94,10.78h1.64c9.06,0,8-1.61,9.9-10.19s24.08-115.93,26.67-127.55,2.15-22.38-18.94-23.24C495.2,159.44,480.74,159.25,476.66,159.25Z"/><path class="d" d="M252.7,252c-2.88,2.88-13.45,13.73,2.07,28.64-14.3,15.52-7,23.44,3,29.83s100.75,65.45,108.59,70.94,8.25,7,14.66.59l1.16-1.16c6.4-6.4,4.52-6.8-.2-14.2s-64.94-99-71.33-109-14.3-17.35-29.83-3C265.94,239,255.58,249.12,252.7,252Z"/><path class="d" d="M164.4,469.91c0,4.08.19,19.22,21.71,18.79.86,21.09,11.62,21.52,23.24,18.94s117.52-25,127-26.62,10.78-.89,10.78-9.94v-1.64c0-9.06-1.61-8-10.19-9.9S221,435.45,209.35,432.86,187,430.71,186.11,451.8C164.59,451.37,164.4,465.83,164.4,469.91Z"/><path class="d" d="M253.44,688.92c2.88,2.88,13.73,13.45,28.64-2.07,15.52,14.3,23.44,7,29.83-3s65.45-100.75,70.94-108.59,7-8.25.59-14.66l-1.16-1.16c-6.4-6.4-6.8-4.52-14.2.2s-99,64.94-109,71.33-17.35,14.3-3,29.83C240.47,675.67,250.55,686,253.44,688.92Z"/><path class="d" d="M476.16,782.67c4.08,0,19.22-.19,18.79-21.71,21.09-.86,21.52-11.62,18.94-23.24s-25-117.52-26.62-127S486.38,600,477.32,600h-1.64c-9.06,0-8,1.61-9.9,10.19S441.7,726.1,439.11,737.72,437,760.1,458.05,761C457.62,782.48,472.08,782.67,476.16,782.67Z"/><path class="d" d="M701.3,689.36c2.88-2.88,13.45-13.73-2.07-28.64,14.3-15.52,7-23.44-3-29.83s-100.75-65.45-108.59-70.94-8.25-7-14.66-.59l-1.16,1.16c-6.4,6.4-4.52,6.8.2,14.2s64.94,99,71.33,109,14.3,17.35,29.83,3C688.06,702.33,698.42,692.24,701.3,689.36Z"/><path class="d" d="M791.6,474.46c0-4.08-.19-19.22-21.71-18.79-.86-21.09-11.62-21.52-23.24-18.94s-117.52,25-127,26.62-10.78.89-10.78,9.94v1.64c0,9.06,1.61,8,10.19,9.9S735,508.92,746.65,511.5s22.38,2.15,23.24-18.94C791.41,493,791.6,478.53,791.6,474.46Z"/><path class="d" d="M701.56,253.45c-2.88-2.88-13.73-13.45-28.64,2.07-15.52-14.3-23.44-7-29.83,3s-65.45,100.75-70.94,108.59-7,8.25-.59,14.66l1.16,1.16c6.4,6.4,6.8,4.52,14.2-.2s99-64.94,109-71.33,17.35-14.3,3-29.83C714.53,266.69,704.45,256.33,701.56,253.45Z"/><path class="e" d="M356,184.48c-3.77,1.56-17.68,7.53-9,27.25-19.16,8.87-15.44,19-8.6,28.72s68,99,73.18,107.1,4.95,9.62,13.31,6.16l1.52-.63c8.37-3.47,6.78-4.55,5.25-13.2s-22.11-116.32-24.17-128-6.58-21.5-26.39-14.23C373.17,177.57,359.74,182.92,356,184.48Z"/><path class="e" d="M187.55,355.89c-1.56,3.77-7.18,17.83,12.87,25.67-7.28,19.81,2.5,24.33,14.23,26.39s118.12,21.91,127.48,24,10.3,3.31,13.77-5.06l.63-1.52c3.47-8.37,1.57-8-5.62-13S253,345.7,243.26,338.87s-19.85-10.55-28.72,8.6C194.82,338.83,189.11,352.12,187.55,355.89Z"/><path class="e" d="M187.36,588c1.56,3.77,7.53,17.68,27.25,9,8.87,19.16,19,15.44,28.72,8.6s99-68,107.1-73.18,9.62-4.95,6.16-13.31l-.63-1.52c-3.47-8.37-4.55-6.78-13.2-5.25s-116.32,22.11-128,24.17-21.5,6.58-14.23,26.39C180.44,570.8,185.8,584.23,187.36,588Z"/><path class="e" d="M354.13,758.72c3.77,1.56,17.83,7.18,25.67-12.87,19.81,7.28,24.33-2.5,26.39-14.23s21.91-118.12,24-127.48,3.31-10.3-5.06-13.77l-1.52-.63c-8.37-3.47-8-1.57-13,5.62S343.94,693.26,337.1,703s-10.55,19.85,8.6,28.72C337.07,751.45,350.36,757.16,354.13,758.72Z"/><path class="e" d="M597.08,760.65c3.77-1.56,17.68-7.53,9-27.25,19.16-8.87,15.44-19,8.6-28.72s-68-99-73.18-107.1-4.95-9.62-13.31-6.16l-1.52.63c-8.37,3.47-6.78,4.55-5.25,13.2s22.11,116.32,24.17,128,6.58,21.5,26.39,14.23C579.88,767.56,593.31,762.21,597.08,760.65Z"/><path class="e" d="M769.91,587c1.56-3.77,7.18-17.83-12.87-25.67,7.28-19.81-2.5-24.33-14.23-26.39s-118.12-21.91-127.48-24S605,507.62,601.57,516l-.63,1.52c-3.47,8.37-1.57,8,5.62,13S704.45,597.16,714.2,604s19.85,10.55,28.72-8.6C762.64,604,768.35,590.74,769.91,587Z"/><path class="e" d="M771.11,358.86c-1.56-3.77-7.53-17.68-27.25-9-8.87-19.16-19-15.44-28.72-8.6s-99,68-107.1,73.18-9.62,4.95-6.16,13.31l.63,1.52c3.47,8.37,4.55,6.78,13.2,5.25s116.32-22.11,128-24.17,21.5-6.58,14.23-26.39C778,376.06,772.67,362.63,771.11,358.86Z"/><path class="e" d="M601.34,183.14c-3.77-1.56-17.83-7.18-25.67,12.87-19.81-7.28-24.33,2.5-26.39,14.23s-21.91,118.12-24,127.48S522,348,530.35,351.48l1.52.63c8.37,3.47,8,1.57,13-5.62s66.61-97.89,73.45-107.63,10.55-19.85-8.6-28.72C618.39,190.41,605.11,184.7,601.34,183.14Z"/><path class="f" d="M846.7,473.24C846.7,678.53,680.28,845,475,845S103.28,678.53,103.28,473.24,269.7,101.53,475,101.53,846.7,268,846.7,473.24ZM475,86.32C261.3,86.32,88.07,259.55,88.07,473.24S261.3,860.17,475,860.17,861.91,686.94,861.91,473.24,688.68,86.32,475,86.32Z"/><path class="e" d="M475.5,831.13c-197.6,0-357.78-160.18-357.78-357.78S277.9,115.57,475.5,115.57,833.28,275.75,833.28,473.35,673.1,831.13,475.5,831.13Zm59.9-647.18c-8.86-1-9.84-4.69-8.41-12.66S528,154,504.45,147s-27.06-12.7-27.06-12.7-3.69,5.66-27.36,12S425.67,162,426.91,170.05s-1.07,11.2-8.72,12.45-10.9-.15-12.92-8-6.32-16.14-30.59-12.66-29.89-.28-29.89-.28-1,6.68-19.86,22.34-15.61,24.41-11.16,31.17,5.11,9.2-2,14.63-10.35,3.46-15.11-3.14-11.84-12.87-33.48-1.59-28.32,9.66-28.32,9.66,1.49,6.53-10.63,27.31-5.86,27.82.8,32.61,11.45,9,5.78,17.18-10.74,5-17.85.85-16.15-7-30.79,12.12-21.32,20.37-21.32,20.37,4.14,5.39,2.13,29.41,6.63,27.95,14.68,29.65,11.6,1.93,10.38,9.81-4.34,7.57-12.26,6.17-17.2-.91-24.19,22.68-12.73,27.16-12.73,27.16,5.62,3.67,11.86,27.38,15.5,24.36,23.46,23.09,14.13-2.86,15.34,4.8-4.68,9.79-12.49,11.84-16.06,6.4-12.7,30.71-.39,30-.39,30,6.64,1,22.13,19.82,24.2,15.56,30.94,11.06,9.16-5.16,14.53,1.9,3.4,10.36-3.18,15.15-12.84,11.91-1.71,33.56,9.49,28.34,9.49,28.34,6.49-1.52,27.1,10.55,27.63,5.77,32.42-.93,9-11.51,17.1-5.86,4.92,10.74.78,17.88S308,750.44,327,765s20.16,21.3,20.16,21.3,5.38-4.17,29.24-2.24,27.8-6.75,29.53-14.82,5.06-10,12.93-8.72,9.84,4.69,8.41,12.66-1,17.31,22.54,24.25,27.06,12.7,27.06,12.7,3.69-5.66,27.36-12,24.36-15.69,23.13-23.69,1.07-11.2,8.72-12.45,10.9.15,12.92,8,6.32,16.14,30.59,12.66,29.89.28,29.89.28,1-6.68,19.86-22.34,15.61-24.41,11.16-31.17-5.11-9.2,2-14.63,10.35-3.46,15.11,3.14,11.84,12.87,33.48,1.59,28.32-9.66,28.32-9.66-1.49-6.53,10.63-27.31,5.86-27.82-.8-32.61-11.45-9-5.78-17.18,10.74-5,17.85-.85,16.15,7,30.79-12.12,21.32-20.37,21.32-20.37S789.23,594,791.24,570s-6.63-27.95-14.68-29.65-11.6-1.93-10.38-9.81,4.34-7.57,12.26-6.17,17.2.91,24.19-22.68,12.73-27.16,12.73-27.16-5.62-3.67-11.86-27.38S788,422.82,780,424.09s-14.23,3.87-15.49-4.82,4.82-9.77,12.63-11.82,16.06-6.4,12.7-30.71.39-30,.39-30-6.64-1-22.13-19.82-24.2-15.56-30.94-11.06-9.16,5.16-14.53-1.9-3.4-10.36,3.18-15.15,12.84-11.91,1.71-33.56-9.49-28.34-9.49-28.34-6.49,1.52-27.1-10.55-27.63-5.77-32.42.93-9,11.51-17.1,5.86-4.92-10.74-.78-17.88,5.55-21.23-13.42-35.83-20.16-21.3-20.16-21.3-5.38,4.17-29.24,2.24-27.8,6.75-29.53,14.82S544.26,184.94,535.4,183.95Z"/></g><g class="g"><rect class="e" x="15.71" y="469.67" width="87.57" height="67.35" rx="13.44" ry="13.44"/><rect class="e" x="138.48" y="178.91" width="87.57" height="67.35" rx="13.44" ry="13.44"/><rect class="e" x="435.21" y="61.63" width="87.57" height="67.35" rx="13.44" ry="13.44"/><rect class="e" x="138.48" y="765.27" width="87.57" height="67.35" rx="13.44" ry="13.44"/><rect class="e" x="435.21" y="882.39" width="87.57" height="67.35" rx="13.44" ry="13.44"/><rect class="e" x="843.7" y="469.67" width="87.57" height="67.35" rx="13.44" ry="13.44" transform="translate(1774.97 1006.68) rotate(-180)"/><rect class="e" x="720.93" y="178.91" width="87.57" height="67.35" rx="13.44" ry="13.44" transform="translate(1529.43 425.16) rotate(-180)"/><rect class="e" x="720.93" y="765.27" width="87.57" height="67.35" rx="13.44" ry="13.44" transform="translate(1529.43 1597.89) rotate(-180)"/><rect class="d" x="818.22" y="625.6" width="87.57" height="67.35" rx="13.44" ry="13.44" transform="translate(1724.01 1318.54) rotate(-180)"/><rect class="d" x="818.22" y="317.53" width="87.57" height="67.35" rx="13.44" ry="13.44" transform="translate(1724.01 702.4) rotate(-180)"/><rect class="d" x="597.63" y="83.92" width="87.57" height="67.35" rx="13.44" ry="13.44" transform="translate(1282.82 235.18) rotate(-180)"/><rect class="d" x="597.63" y="848.71" width="87.57" height="67.35" rx="13.44" ry="13.44" transform="translate(1282.82 1764.78) rotate(-180)"/><rect class="d" x="265.51" y="848.71" width="87.57" height="67.35" rx="13.44" ry="13.44"/><rect class="d" x="265.51" y="83.92" width="87.57" height="67.35" rx="13.44" ry="13.44"/><rect class="d" x="44.92" y="625.6" width="87.57" height="67.35" rx="13.44" ry="13.44"/><rect class="d" x="44.92" y="317.53" width="87.57" height="67.35" rx="13.44" ry="13.44"/></g><path class="f" d="M574.36,471.24A95.37,95.37,0,1,1,479,375.88,95.37,95.37,0,0,1,574.36,471.24ZM479,390.13a81.11,81.11,0,1,0,81.11,81.11A81.11,81.11,0,0,0,479,390.13Z"/><line class="h" x1="512.8" y1="552.36" x2="695" y2="989.51"/><line class="h" x1="255.74" y1="990.41" x2="444.11" y2="552.36"/><line class="h" x1="765.21" y1="989.37" x2="185.53" y2="990.56"/><g class="i"><line class="h" x1="478.99" y1="471.24" x2="478.99" y2="895.97"/><line class="h" x1="478.99" y1="471.24" x2="779.32" y2="771.57"/><line class="h" x1="478.99" y1="471.24" x2="871.39" y2="633.78"/><line class="h" x1="478.99" y1="471.24" x2="903.72" y2="471.24"/><line class="h" x1="478.99" y1="471.24" x2="871.39" y2="308.71"/><line class="h" x1="478.99" y1="471.24" x2="779.32" y2="170.92"/><line class="h" x1="478.99" y1="471.24" x2="641.53" y2="78.85"/><line class="h" x1="478.99" y1="471.24" x2="478.99" y2="46.52"/><line class="h" x1="478.99" y1="471.24" x2="316.45" y2="78.85"/><line class="h" x1="478.99" y1="471.24" x2="178.66" y2="170.92"/><line class="h" x1="478.99" y1="471.24" x2="86.59" y2="308.71"/><line class="h" x1="478.99" y1="471.24" x2="54.26" y2="471.24"/><line class="h" x1="478.99" y1="471.24" x2="86.59" y2="633.78"/><line class="h" x1="478.99" y1="471.24" x2="178.66" y2="771.57"/></g></svg>
