<svg xmlns="http://www.w3.org/2000/svg" viewBox="0 0 1300 440"><defs><style>.a{fill:#e09d8d;}.b{fill:#996868;}.c{fill:#ffc697;}.d{fill:#c4d9ff;}.e{fill:#1d2533;}.f{fill:#fff;}.g{fill:none;stroke:#fff;stroke-miterlimit:10;stroke-width:4px;}</style></defs><title>big_top</title><path class="a" d="M122.32,231.35c3.61,10.11-73.07,46.35-73.07,46.35l74.83,45L117.95,423.3s76.27-39.93,73.07-46.35S118.71,221.24,122.32,231.35Z"/><path class="b" d="M158.65,378.22s-1.36,1.07,1.74,7.87,26.83-15.38,30.73-9.17L186,365.48Z"/><path class="c" d="M104.28,231.29c-7,3.38-10.29,7.51-7.92,13.06,2.7,6.33,61.92,136.57,64,141.58-.51-1.53,3.47-5.37,12.61-10.26,12-6.41,30.14-14.65,40.78-19.78s21.75-11.66,20.06-16.13-85.58-128-85.58-128C131.16,218.76,116.47,225.42,104.28,231.29Z"/><path class="b" d="M201.28,339.14s-.74,2.52,2,9.49,27-15.3,30.54-8.87L229.34,328Z"/><path class="a" d="M160.65,372.69a.77.77,0,0,0,.06.16S160.71,372.82,160.65,372.69Z"/><path class="a" d="M1177.59,231.35c-3.61,10.11,73.07,46.35,73.07,46.35l-74.83,45L1182,423.3s-76.27-39.93-73.07-46.35S1181.2,221.24,1177.59,231.35Z"/><path class="b" d="M1141.25,378.22s1.36,1.07-1.74,7.87-26.83-15.38-30.73-9.17l5.12-11.43Z"/><path class="c" d="M1195.63,231.29c7,3.38,10.29,7.51,7.92,13.06-2.7,6.33-61.92,136.57-64,141.58.51-1.53-3.47-5.37-12.61-10.26-12-6.41-30.14-14.65-40.78-19.78s-21.75-11.66-20.06-16.13,85.58-128,85.58-128C1168.75,218.76,1183.44,225.42,1195.63,231.29Z"/><path class="b" d="M1098.62,339.14s.74,2.52-2,9.49-27-15.3-30.54-8.87l4.44-11.71Z"/><path class="a" d="M1139.25,372.69a.77.77,0,0,1-.06.16S1139.2,372.82,1139.25,372.69Z"/><path class="a" d="M650,104.68C427.3,104.68,326,129,150.53,192.82c-7.33,2.67-10.45,7.29-8.2,12.88,2.56,6.39,59,137.88,60.92,142.92-2.05-4.91,10.67-10.06,20.4-13.63C368,282.13,470.85,256.3,650,257.41c179.1-1.11,282,24.72,426.31,77.59,9.73,3.56,22.45,8.72,20.4,13.63,2-5,58.36-136.54,60.92-142.92,2.24-5.59-.87-10.22-8.2-12.88C973.9,129,872.61,104.68,650,104.68Z"/><path class="d" d="M386.33,192.48c-3.85-17.4-15.64-40-31.4-36.56-12.13,2.68-12.42,12.88-10.24,22.73L355,225.39c3.07,13.88,10.78,22.87,22.71,20.23,12.13-2.68,17.89-11.14,13.57-30.65l20.82-4.6c4.16,18.81-3.2,40.16-32.51,46.64-31.93,7.06-49-12.75-53.78-34.19l-6.45-29.17c-4.08-18.45,7.55-43.52,33-49.15a40.84,40.84,0,0,1,17.11-.28c3.58.87,7.94,1.38,10.36.84,2-.45,3-1.77,2-6.34l13.74-3,11.54,52.2Z"/><path class="d" d="M446,155.19c-1.06-8.39-4.17-13.26-8.37-13.46l-6.68-.07-1.28-10.18,49.5-6.23,1.28,10.18L474,137.16c-4,1.23-5.83,6.72-4.78,15.11L477,214.07c1,8.22,3.33,13.19,8.57,13.43l6.68.07,1.28,10.18L443.83,244l-1.28-10.18L449,232.1c4.82-1.51,5.81-6.9,4.78-15.11Z"/><path class="d" d="M546.94,183.89l1.19,23.73c.42,8.27,3,13.91,10.46,14.25l4.78.3.52,10.25L512.83,235l-.52-10.25,6.57-1.23c4.92-1.15,6.31-6.44,5.89-14.71l-3.13-62.2c-.42-8.45-3.17-13.54-7.34-14l-6.66-.57-.51-10.25,58.3-2.93c26.46-1.33,39.45,9.55,40.38,28.07.72,14.38-6.11,22.84-13.77,27l0,.36c7.26,4.14,10.29,10.84,11.82,20.67,1.55,10.2,2.62,15,5.93,14.84,3.1-.16,3.63-6.13,3.43-10.09l-.42-8.27,12-.6.42,8.27c1.25,25-6.28,31.86-18.47,32.47-14.89.75-21.22-5.78-25.22-27.57-1.76-10.36-5.64-21.52-15.15-21Zm4.6-48.71c-4.34.22-6.92,2.51-6.49,11.14l1,20.49,21.71-1.09c6.82-.34,13.78-6.28,13.29-16-.57-11.33-8-15.64-14.86-15.29Z"/><path class="d" d="M719.23,171c.51-17.81-5.42-42.65-21.55-43.11-12.42-.35-15.18,9.47-15.46,19.55l-1.36,47.86c-.4,14.21,4.89,24.81,17.09,25.16,12.41.35,20.06-6.45,20.63-26.42l21.31.61c-.55,19.25-12.89,38.17-42.89,37.32-32.69-.93-44.45-24.31-43.83-46.27l.85-29.87c.54-18.89,17.92-40.37,44-39.63a40.84,40.84,0,0,1,16.66,3.9c3.26,1.71,7.36,3.27,9.84,3.34,2.07.06,3.34-1,3.47-5.66l14.07.4-1.52,53.44Z"/><path class="d" d="M774.62,120.49l49.6,5.31L823.13,136l-6.68.19c-4.19.27-7.22,5.2-8.12,13.61l-4.08,38.12c-3,28.1-1.69,39.1,15,40.89,10.7,1.15,18.93-3.76,21.35-26.31l5.21-48.68c.73-6.8.22-13.73-5.46-15.07L834,137.17l1.09-10.2,39.72,4.26-1.09,10.2-6.68.19c-5.63.12-7.6,6.79-8.33,13.59l-4.89,45.64c-3.6,33.65-16.11,41.54-37.31,39.27-32.52-3.48-39.39-19.06-36-50.38l4.54-42.42c.9-8.41-1-13.87-5.05-15l-6.49-1.6Z"/><path class="d" d="M968.94,184.13a34.31,34.31,0,0,0-4-15c-2.78-4.83-11.46-12.75-20.17-14.61-11.34-2.42-18.22,4-19.68,10.89-2.34,10,4.27,14.71,18.83,21.87,25.06,12.52,34.77,24.53,30.27,45.66-4.24,19.89-22.89,29.9-43.54,25.5a49.91,49.91,0,0,1-18.13-8.28c-4.24-2.93-7.55-5.29-10.79-6s-6.22,2.35-8.71,5.13l-10.12-2.16L891,209.28l10.12,2.16c0,5,1.2,9.27,3.5,14.37,3.56,8.12,12.44,16.09,26.21,19,8.5,1.81,16.13-3.19,17.63-10.23,2.14-10-7.69-16.55-13.84-20.44l-14.59-9c-16.79-10.58-22-22-18.22-39.59,4-18.66,22.86-26.78,42.9-22.51a71.88,71.88,0,0,1,16.35,5.7c3.05,1.57,5.9,3.1,8.94,3.75,2.43.52,4.35-.54,6-1.47l9.92,2.12-7.06,33.1Z"/><path class="e" d="M315.71,194.27c-5.25-23.73,11-47.22,34.82-52.5a48.88,48.88,0,0,1,17.64-.77c4.19.73,8.14,1.33,9.35,1.07s.95-2.42.25-5.59l18.6-4.11L417,145.32l12.48,56.42L402,207.81,383.6,196.4c-5-19.73-11.89-29.81-15.94-28.92-4.45,1-4.58,7.1-3,14.13l10.84,49c1.13,5.1,4,8.69,7.68,7.89,5.25-1.16,6.66-10.14,4.05-25.78l26.88-5.94,20.63,12.77c3.29,36-18.81,48.22-42.25,53.4-28.9,6.39-62.07-12.27-70.27-49.35Zm91.44-6.39-11.54-52.2-13.74,3c1,4.57,0,5.89-2,6.34-2.43.54-6.78,0-10.36-.84a40.84,40.84,0,0,0-17.11.28c-25.47,5.63-37.1,30.69-33,49.15l6.45,29.17c4.74,21.44,21.84,41.26,53.78,34.19,29.31-6.48,36.67-27.83,32.51-46.64L391.31,215c4.31,19.51-1.45,28-13.57,30.65-11.92,2.64-19.64-6.35-22.71-20.23l-10.34-46.75c-2.18-9.84-1.89-20,10.24-22.73,15.77-3.49,27.56,19.16,31.4,36.56Zm-61.51,12.31c-2.7-.69-6.54.16-9.7,2.15a33.22,33.22,0,0,0,8.17,7.23c-1.51,6.6-2.19,15,2.49,29.5A88.18,88.18,0,0,1,331,212.46a38.67,38.67,0,0,0,4.36-10c-4.11-.38-7.75.42-9.9,2.19L323.29,195c-4.31-19.51,7.34-42.55,29.77-47.51a43.74,43.74,0,0,1,15.62-.32c5.32,1,9.67,1.55,13.51.7,2.83-.63,4.87-2.92,4-6.79l6.47-1.43,10.18,46-13.54,3C383,167,370.8,149.09,354.23,152.75c-15.36,3.4-15.66,15.45-13.18,26.69Zm-9.93,1.09a22.09,22.09,0,0,1,4.36-10c-4.75-6.14-6.55-13.3-7.27-23.28a83.42,83.42,0,0,0-5.87,26.18c3.65,2.14,6.82,4.94,8.17,7.23Z"/><path class="e" d="M442.52,155.63c-1-8.21-4.22-10.35-8.17-10.22l-6.71-.25-2.07-16.43,56.89-7.16,17.4,15.59,1.77,14.11L495.38,153c-3.65.82-6.47,5-5.25,14.63l7.41,58.93L512.8,240l1.71,13.57L455.56,261l-15-13.35-2.07-16.43,7.88-2.08c3.81-1.21,4.62-6.39,3.83-12.64ZM453.78,217c1,8.22,0,13.6-4.78,15.11l-6.46,1.72L443.83,244l49.7-6.25-1.28-10.18-6.68-.07c-5.25-.25-7.54-5.22-8.57-13.43l-7.77-61.79c-1.06-8.39.76-13.88,4.78-15.11l6.46-1.72-1.28-10.18-49.5,6.23L431,141.67l6.68.07c4.2.2,7.31,5.07,8.37,13.46Zm15.38-35.31c-2.23-1.17-5.11-.81-7.6,1a31.81,31.81,0,0,0,7.67,7.92c-2.34,6.28-3.57,14.78-3.09,30.14-3.35-15-6.64-22.93-10.46-28.44a27.11,27.11,0,0,0,5.27-9.55c-3.06-1.07-5.73-.73-7.6,1l-3.64-28.93c-1.71-13.57-6.45-16.42-10.23-16.67L434,138l-.49-3.93,42.51-5.35.49,3.93-5.25,1.39c-3.61,1.18-7.49,5.12-5.79,18.69Zm-7.62.78c.45-6.41,2.26-10.26,5-13.33-3.62-3.9-6.69-10-9.81-23.26.25,13.58-1.2,20.29-3.75,25,3.42,2.29,6.13,5.58,7.94,11.7Z"/><path class="e" d="M518.13,146.77c-.42-8.27-3.44-10.64-7.38-10.8l-6.67-.75-.83-16.54,63.88-3.21c37.63-1.89,57.5,26.49,58.55,47.34a27,27,0,0,1-14.06,25.4l14.27-.72,16.79,16.64.53,10.61c1.17,23.37-7.7,32.47-24.44,33.31-11.58.58-24.52-5.44-32.66-18.9-6.77-11-8.2-27.16-9.83-30.69l-9.72.49,1.06,21,15,14.56.77,15.28-60.16,3-14-14.44-.83-16.54,8-1.48c3.89-.92,5.09-6,4.77-12.32Zm48.24,36.15c9.51-.48,13.39,10.68,15.15,21,4,21.79,10.33,28.32,25.22,27.57,12.2-.61,19.73-7.48,18.47-32.47l-.42-8.27-12,.6.42,8.27c.2,4-.33,9.93-3.43,10.09-3.31.17-4.38-4.65-5.93-14.84-1.53-9.84-4.56-16.53-11.82-20.67l0-.36c7.67-4.17,14.5-12.62,13.77-27-.93-18.52-13.91-29.4-40.38-28.07l-58.3,2.93.51,10.25,6.66.57c4.17.51,6.91,5.6,7.34,14l3.13,62.2c.42,8.27-1,13.57-5.89,14.71l-6.57,1.23.52,10.25,51.06-2.57-.52-10.25-4.78-.3c-7.48-.35-10-6-10.46-14.25l-1.19-23.73Zm-1-61c21.5-1.08,35.89,4.86,36.91,25.18.65,12.94-5.16,21-13.65,25.38-1.73-1.35-4.62-1.21-8.27.42a39.22,39.22,0,0,1,11,8.28c2.78,5.81,4.23,14,4.58,29.33-3.47-15.51-10.94-23.78-18-28.65,1.72-3,2.4-5.89,1.62-8.91-3-1.29-5.86-1.15-9.72.49a15.54,15.54,0,0,0-11.37.57,17.22,17.22,0,0,0-12,.6,16.09,16.09,0,0,0-11.58.58A31.8,31.8,0,0,0,542,183.6c-2.8,6.09-4.66,14.47-5.55,29.84-2.21-15.21-4.9-23.36-7.89-29.16a32.5,32.5,0,0,0,5.55-9.11c-3.38-1.27-5.45-1.17-7.24.36l-1.46-29.12c-.69-13.66-5.2-16.86-9-17.39l-5.41-.45-.2-4Zm-30.5,53.08c.72-6.34,3-10.06,6-12.92-3.32-4.16-6.12-10.51-8.25-23.92-.36,13.54-2.31,20.12-5.19,24.59,2.82,2.56,5.28,6,6.63,12.28Zm16.71-42.83c-8.48.43-10.74,4.87-10.26,14.39l1.19,23.73L567.75,169a18,18,0,0,0,17.06-19.42c-.6-12-8.19-18.69-19.36-18.13Zm14.63,2.33c6.82-.34,14.29,4,14.86,15.29.49,9.71-6.47,15.64-13.29,16l-21.71,1.09-1-20.49c-.43-8.63,2.15-10.92,6.49-11.14Zm2,18.29c-2.27.11-3.83,2.17-3.65,5.77l.23,4.49,3.51-.18c3.51-.18,8.3-3.84,8.13-7.26a3.38,3.38,0,0,0-3.47-3.07Zm12.19,19.93c6.62-4.3,12.24-8,18-13.52-.27-5.39-2.34-13.58-8.66-23.9,5.18,12.36.81,20.15-2.74,23.75-.39,4.71-3.63,10.28-7.39,13.71Z"/><path class="e" d="M650.3,155.5c.69-24.29,22.14-43.13,46.56-42.43a48.87,48.87,0,0,1,17.29,3.55c3.89,1.73,7.57,3.28,8.81,3.31s1.51-2.12,1.6-5.36l19,.54,16.89,17.59-1.64,57.76-28.14-.8-15.09-15.56c0-20.35-4.27-31.81-8.41-31.93-4.55-.13-6.17,5.77-6.37,13l-1.43,50.2c-.15,5.22,1.8,9.42,5.53,9.52,5.38.15,8.93-8.21,10.21-24l27.52.78L759.56,209c-5.57,35.68-30,42.19-54,41.5-29.59-.84-57.21-27-56.14-65Zm90.24,16.07,1.52-53.44-14.07-.4c-.13,4.68-1.41,5.72-3.47,5.66-2.48-.07-6.58-1.63-9.84-3.34a40.84,40.84,0,0,0-16.66-3.9c-26.07-.74-43.45,20.73-44,39.63l-.85,29.87c-.62,22,11.14,45.34,43.83,46.27,30,.85,42.34-18.06,42.89-37.32L718.58,194c-.57,20-8.22,26.78-20.63,26.42-12.21-.35-17.5-10.94-17.09-25.16l1.36-47.86c.29-10.08,3-19.9,15.46-19.55,16.14.46,22.06,25.3,21.55,43.11Zm-62.66-3c-2.45-1.33-6.38-1.44-9.93-.28a33.25,33.25,0,0,0,6.16,9c-3.07,6-5.78,14.06-4.76,29.22a88.22,88.22,0,0,1-8.68-29.6,38.68,38.68,0,0,0,6.67-8.63c-3.9-1.37-7.62-1.48-10.14-.29l.28-9.9c.57-20,17.48-39.48,40.45-38.83a43.74,43.74,0,0,1,15.22,3.49c4.9,2.3,9,3.86,12.93,4,2.9.08,5.43-1.65,5.54-5.6l6.62.19-1.34,47.14L723,168c-.81-22.53-8.31-42.91-25.27-43.4-15.72-.45-19,11.17-19.28,22.68Zm-9.9-1.36a22.09,22.09,0,0,1,6.66-8.63c-3.11-7.11-3.11-14.49-1.38-24.35a83.41,83.41,0,0,0-12.07,24c3,3,5.41,6.46,6.16,9Z"/><path class="e" d="M831.56,127.31l.42-3.94,46.72,5,13.56,19.19-1.51,14.14-6.68.19c-3.74,0-7.44,3.37-8.47,13l-5.46,51c-2.86,26.67-23,36.09-46.48,33.58-28.4-3-51.58-23.81-46.62-70.16l4.54-42.42c.88-8.23-1.73-11-5.6-11.82l-6.47-1.78,1.76-16.47,57,6.11Zm-58,3.38,6.49,1.6c4,1.16,6,6.61,5.05,15l-4.54,42.42c-3.35,31.32,3.51,46.9,36,50.38,21.2,2.27,33.7-5.62,37.31-39.27l4.89-45.64c.73-6.8,2.69-13.47,8.33-13.59l6.68-.19,1.09-10.2L835.13,127,834,137.17l6.29,1.58c5.69,1.33,6.19,8.27,5.46,15.07l-5.21,48.68C838.16,225,829.93,230,819.23,228.81c-16.67-1.79-18-12.79-15-40.89l4.08-38.12c.9-8.41,3.93-13.34,8.12-13.61l6.68-.19,1.09-10.2-49.6-5.31Zm46.87-2.22-.42,3.94-5.43.14c-3.78.32-8.47,3.26-9.92,16.86l-3.1,29c-.67-1.52-4-1.87-7.62-.82a34.66,34.66,0,0,0,5.65,9.48c-3.72,5.58-6.87,13.57-7.24,28.73-3.12-15.54-4.92-24.06-6.34-30.19a29.14,29.14,0,0,0,7.32-8.09c-3.14-1.78-6.43-2.14-7.62-.82l3.1-29c1.46-13.6-2.5-17.47-6.13-18.58l-5.28-1.29.42-3.94Zm-26.46,48.76c1.91-6.13,4.53-9.29,7.93-11.82-2.63-4.63-4.2-11.31-4.21-24.89-2.88,13.27-5.83,19.47-9.38,23.43,2.78,3.19,4.68,6.84,5,13.21Zm27.87,23.62c-2,18.79,1.5,21,6.44,21.51,3.29.35,7.15-6.48,8.66-20.61l4.91-45.82-7.43-.61c-5.65.3-8.19,4.55-9.11,13.14Zm49.22-67-.42,3.94-3.37.36c-9,.66-11.13,6.77-12.19,16.62l-3.1,29a4.43,4.43,0,0,0-5.76-.62l3.1-29c1.05-9.84-.15-16.13-8.6-18.84l-2.6-1,.42-3.94Z"/><path class="e" d="M897.78,165.45c4.58-21.48,26.08-30,48.55-25.17a78.61,78.61,0,0,1,15.25,4.91c3.86,1.74,6.51,3.23,8.53,3.66a6.15,6.15,0,0,0,5.22-1.65l15,3.2,11.23,20.8-7.89,37-13.36-2.85-15.07-18.67c0-8.09-1.76-16.57-10.06-18.34-7.29-1.55-11.52,1.41-12.64,6.69-1,4.58.21,8,12.91,14.9,26.71,14.71,39.82,34.63,34.14,61.21-4.73,22.18-27.32,32.82-47.57,28.5-8.5-1.81-16.23-5.3-19.75-8.63-2.83-2.63-5.93-4.95-8.56-5.51-2.83-.6-5.67,3.76-7.3,5.44l-17.61-3.76-10.3-18.21,9.28-43.48,17.82,3.8A96.93,96.93,0,0,0,914,229.11c2.95,5,8.32,10.61,16,12.25,4.25.91,10.57,0,11.55-4.53,1.39-6.51-14.74-13.27-22-18.87C906.89,208.07,892.67,189.4,897.78,165.45Zm27.32-.06c1.46-6.87,8.34-13.31,19.68-10.89,8.71,1.86,17.39,9.78,20.17,14.61a34.31,34.31,0,0,1,4,15l9.92,2.12,7.06-33.1L976,151c-1.68.93-3.6,2-6,1.47-3-.65-5.89-2.18-8.94-3.75a71.88,71.88,0,0,0-16.35-5.7c-20-4.28-38.92,3.85-42.9,22.51-3.75,17.6,1.43,29,18.22,39.59l14.59,9c6.16,3.89,16,10.4,13.84,20.44-1.5,7-9.13,12-17.63,10.23-13.77-2.94-22.65-10.9-26.21-19-2.3-5.09-3.5-9.4-3.5-14.37L891,209.28l-8.07,37.85L893,249.29c2.5-2.78,5.48-5.83,8.71-5.13s6.55,3.05,10.79,6a49.91,49.91,0,0,0,18.13,8.28c20.65,4.4,39.29-5.61,43.54-25.5,4.51-21.12-5.21-33.14-30.27-45.66C929.37,180.11,922.75,175.38,925.1,165.39Zm38.07,38.86c-6.18-2.79-10-3.61-14-3a23.43,23.43,0,0,0-13.77-2.94c11.09,4.57,19.9,7.93,25.36,11.11,4.8,10.23,4.4,20.08-4,32.64,2.45-13.47-2.33-24.79-9.24-28.11-.59-4.18-2.49-9.18-12.92-15.82a20.22,20.22,0,0,0-12.75-2.72c-4-2.32-7-3-9.92-2.12-7.72-8.46-8.81-16.24-6.52-27,3.57-16.72,21-24,38.21-20.38a62.78,62.78,0,0,1,13.3,4.13c3.82,1.92,8.75,4.63,12.8,5.49a8.79,8.79,0,0,0,6.84-1.3l5.26,1.12-5.78,27.11-3.85-.82c-.08-12.53-11-26.82-26.79-30.19-14.58-3.11-22,4.88-23.65,12.62-2,9.33.9,15.65,12.86,22.07C946.76,192.83,957.7,198.11,963.16,204.25ZM935.5,198c-11.75-8.4-16.37-14.54-14.67-21.53-4.59-4.29-5.89-10.09-3.58-19.91-4.26,6.08-8.18,13.53-9.4,20.26,4.08,7.68,11.64,13.89,26.85,21Z"/><path class="f" d="M462,102.75l.48-.06.06.54-17.12,2-.06-.54.48-.06a2.09,2.09,0,0,0,1.66-.92,2.29,2.29,0,0,0,.41-1.43,3.36,3.36,0,0,0-.42-1.26l-3.38-6.3-12.55,1.43-2,6.92a3.68,3.68,0,0,0-.12,1.34,2.21,2.21,0,0,0,.74,1.27,2.16,2.16,0,0,0,1.85.52l.43,0,.06.54L421.06,108l-.06-.54.48-.06a4.74,4.74,0,0,0,2.38-1,5.74,5.74,0,0,0,1.78-2.49l9.19-29.47q1.92-5.6,1.88-7.33l.48-.05,19.93,33.16a5.87,5.87,0,0,0,2.31,2.1A4.7,4.7,0,0,0,462,102.75Zm-29.78-9L443,92.54l-6.71-12.6Z"/><path class="f" d="M515.06,61.47a3.14,3.14,0,0,0-2.72,1.84A3.41,3.41,0,0,0,512,65l2.21,27.78a32.41,32.41,0,0,0,1,6l.23.79-.48,0L485.65,75.89l1.7,21.37a3.08,3.08,0,0,0,1.15,2.21,3.21,3.21,0,0,0,2.39.76l1-.08,0,.54L475.65,102l0-.54,1-.08a3.28,3.28,0,0,0,2.29-1.13,3.14,3.14,0,0,0,.78-2.42l-2.22-27.94a30.33,30.33,0,0,0-1-5.88l-.17-.8.48,0L506,86.89l-1.69-21.26a3.34,3.34,0,0,0-1.21-2.26,3.22,3.22,0,0,0-2.39-.76l-1,.08,0-.54L516,60.85l0,.54Z"/><path class="f" d="M522.51,97.88a3.28,3.28,0,0,0,2.34-1.14,3.48,3.48,0,0,0,.9-2.46l-1.82-29.91a3.39,3.39,0,0,0-1.2-2.31,3.32,3.32,0,0,0-2.46-.82l-.7,0,0-.54,16.39-1,0,.54-.65,0a3.41,3.41,0,0,0-2.37,1.12,3.15,3.15,0,0,0-.88,2.43l1.82,29.91A3.23,3.23,0,0,0,535,96.12a3.36,3.36,0,0,0,2.49.85l.65,0,.09.54-16.39,1,0-.54Z"/><path class="f" d="M562,97.05q-9.22.41-15-4.66t-6.21-14.1q-.4-9,5-14.57t14.9-6a41.32,41.32,0,0,1,8.4.47A27.2,27.2,0,0,1,575.61,60l.52,9.27-.49,0Q574,64.15,570.51,62a13.9,13.9,0,0,0-8.2-2q-6.53.29-9.83,5.11T549.54,78q.36,8.12,3.77,12.56a10.45,10.45,0,0,0,9.29,4.19,10.64,10.64,0,0,0,7-2.74,7.44,7.44,0,0,0,1.92-3l-.36-8.25a2.24,2.24,0,0,0-.81-1.78,3.12,3.12,0,0,0-2.1-.53l-.86,0,0-.54,15.16-.67,0,.54-.81,0a2.92,2.92,0,0,0-2,.71,2.29,2.29,0,0,0-.62,1.84l.39,8.9a17.17,17.17,0,0,1-6.75,5.16A27.16,27.16,0,0,1,562,97.05Z"/><path class="f" d="M611.24,94.22a3.06,3.06,0,0,0,2.14-.75,3.94,3.94,0,0,0,1.24-2.67L614.34,77l-17.49.37.29,13.71a3.23,3.23,0,0,0,1.08,2.38,3.36,3.36,0,0,0,2.45.95h.65l.07.54L585,95.32v-.54h.7a3.28,3.28,0,0,0,2.38-1,3.48,3.48,0,0,0,1-2.42l-.63-29.91A3.48,3.48,0,0,0,587.3,59a3.28,3.28,0,0,0-2.42-.95h-.7v-.54l16.41-.35,0,.54h-.65a3.36,3.36,0,0,0-2.41,1,3.24,3.24,0,0,0-1,2.42l.29,13.88,17.49-.37L614,60.84a3.48,3.48,0,0,0-1.1-2.38,3.28,3.28,0,0,0-2.42-.95h-.7V57l16.41-.35v.54h-.7a3.36,3.36,0,0,0-2.41,1.05,3.23,3.23,0,0,0-1,2.42l.63,29.91A3.23,3.23,0,0,0,623.8,93a3.36,3.36,0,0,0,2.45.95h.7v.54l-16.41.35v-.54Z"/><path class="f" d="M651.06,58.84l0,31.7a3.38,3.38,0,0,0,1.05,2.38,3.32,3.32,0,0,0,2.4,1h.65l.05.54H638.82V93.9h.7a3.26,3.26,0,0,0,2.35-1A3.55,3.55,0,0,0,643,90.6l0-31.75h-7.29a5.19,5.19,0,0,0-5.4,5.51V65h-.54v-9.4a17.88,17.88,0,0,0,6.37,1h21.76a22.56,22.56,0,0,0,3.64-.33,13.41,13.41,0,0,0,2.73-.65V65h-.54v-.65a5,5,0,0,0-2.54-4.75,5.93,5.93,0,0,0-2.86-.75Z"/><path class="f" d="M718.09,95h.49v.54l-17.22-.43V94.6h.49a2.09,2.09,0,0,0,1.77-.69,2.29,2.29,0,0,0,.6-1.36,3.35,3.35,0,0,0-.24-1.3l-2.48-6.71-12.63-.31-3,6.57a3.69,3.69,0,0,0-.3,1.32,2.21,2.21,0,0,0,.56,1.36,2.16,2.16,0,0,0,1.76.77h.43v.54l-11.55-.29V94h.49a4.74,4.74,0,0,0,2.5-.69,5.75,5.75,0,0,0,2.11-2.22l13.17-27.92q2.67-5.28,2.87-7h.49l15.16,35.59a5.87,5.87,0,0,0,2,2.4A4.71,4.71,0,0,0,718.09,95ZM689.83,82l10.8.27-4.91-13.41Z"/><path class="f" d="M735.51,60.72,734.2,92.39a3.37,3.37,0,0,0,1,2.42,3.32,3.32,0,0,0,2.36,1.07l.65,0,0,.54-16.4-.68,0-.54.7,0a3.26,3.26,0,0,0,2.39-.87,3.55,3.55,0,0,0,1.2-2.27l1.31-31.72-7.28-.3a5.19,5.19,0,0,0-5.62,5.28l0,.65-.54,0,.39-9.39a17.88,17.88,0,0,0,6.33,1.23l21.74.9a22.6,22.6,0,0,0,3.66-.17,13.4,13.4,0,0,0,2.75-.54l-.39,9.39-.54,0,0-.65a5,5,0,0,0-2.34-4.85,5.93,5.93,0,0,0-2.83-.87Z"/><path class="f" d="M785.58,63.55l-2.13,31.63a3.37,3.37,0,0,0,.89,2.44,3.32,3.32,0,0,0,2.33,1.13l.65,0,0,.54L771,98.23l0-.54.7,0a3.26,3.26,0,0,0,2.41-.81,3.55,3.55,0,0,0,1.26-2.24L777.5,63l-7.27-.49a5.19,5.19,0,0,0-5.76,5.13l0,.65-.54,0,.63-9.37a17.89,17.89,0,0,0,6.29,1.4l21.71,1.47a22.64,22.64,0,0,0,3.66-.08,13.39,13.39,0,0,0,2.76-.46l-.63,9.37-.54,0,0-.65A5,5,0,0,0,795.61,65a5.92,5.92,0,0,0-2.8-.95Z"/><path class="f" d="M825.33,102a3.06,3.06,0,0,0,2.21-.5,3.94,3.94,0,0,0,1.53-2.52l1.25-13.71L812.9,83.63l-1.24,13.66a3.23,3.23,0,0,0,.8,2.49,3.36,3.36,0,0,0,2.33,1.22l.65.06v.54l-16.35-1.49,0-.54.7.06a3.28,3.28,0,0,0,2.48-.78,3.48,3.48,0,0,0,1.27-2.3l2.71-29.79a3.48,3.48,0,0,0-.83-2.49,3.28,3.28,0,0,0-2.3-1.21l-.7-.06,0-.54L818.86,64l-.1.53-.65-.06a3.37,3.37,0,0,0-2.51.77,3.24,3.24,0,0,0-1.24,2.3l-1.26,13.82,17.42,1.58,1.26-13.82A3.48,3.48,0,0,0,831,66.6a3.28,3.28,0,0,0-2.3-1.21l-.7-.06,0-.54,16.35,1.49,0,.54-.7-.06a3.37,3.37,0,0,0-2.51.77,3.23,3.23,0,0,0-1.24,2.3l-2.71,29.79a3.23,3.23,0,0,0,.8,2.49,3.36,3.36,0,0,0,2.33,1.21l.7.06,0,.54-16.35-1.49,0-.54Z"/><path class="f" d="M845.91,104a3.27,3.27,0,0,0,2.5-.72,3.48,3.48,0,0,0,1.32-2.27l3.47-29.88a3,3,0,0,0-.57-2.13,3.93,3.93,0,0,0-2.49-1.48l-.7-.08.06-.54L870,69.26a19.63,19.63,0,0,0,4.39.1A18.44,18.44,0,0,0,876.6,69l-1.09,9.39-.53-.12.07-.59a5,5,0,0,0-1.92-5,5.82,5.82,0,0,0-2.7-1.07l-9-1L859.6,86.2l7.08.82a4.59,4.59,0,0,0,3.43-1,4.49,4.49,0,0,0,1.66-3.1l.06-.48.54.06-1.44,12.39-.54-.06,0-.43a4.48,4.48,0,0,0-3.92-5.13l-7.19-.83-1.75,15.07,7,.82a9.87,9.87,0,0,0,6.83-1.49,13.4,13.4,0,0,0,4.68-5.93l.54.06-3.74,10.66-27.79-3.22.06-.54Z"/><path class="g" d="M887,92.81c30.36,4.36,59.41,9.53,86.61,15.51"/><path class="g" d="M337.44,104c24.1-4.75,49.47-8.86,75.76-12.34"/><line class="g" x1="337.44" y1="104.02" x2="329.3" y2="115.38"/><line class="g" x1="325.65" y1="97.86" x2="337.44" y2="104.02"/><polyline class="g" points="966.62 97.87 973.68 109.14 962.8 115.19"/></svg>