<svg xmlns="http://www.w3.org/2000/svg" viewBox="0 0 1300 440"><defs><style>.a{fill:#e09d8d;}.b{fill:#996868;}.c{fill:#ffc697;}.d,.e{font-size:135px;}.d{fill:#c4d9ff;}.d,.f{font-family:RosewoodStd-Fill, Rosewood Std;}.e,.f{fill:#1d2533;}.e{font-family:RosewoodStd-Regular, Rosewood Std;}.f{font-size:60px;letter-spacing:-0.04em;}.g{fill:#fff;}.h{fill:none;stroke:#fff;stroke-miterlimit:10;stroke-width:4px;}</style></defs><title>sign</title><path class="a" d="M122.32,228.32C125.93,237.83,49.24,272,49.24,272l74.83,42.35L117.95,409s76.27-37.59,73.07-43.63S118.71,218.81,122.32,228.32Z"/><path class="b" d="M158.65,366.58s-1.36,1,1.74,7.41,26.83-14.48,30.73-8.63L186,354.59Z"/><path class="c" d="M104.28,228.27c-7,3.18-10.29,7.07-7.92,12.29,2.7,6,61.92,128.57,64,133.28-.51-1.44,3.47-5.05,12.61-9.66,12-6,30.14-13.79,40.78-18.62s21.75-11,20.06-15.19S148.2,209.84,148.2,209.84C131.16,216.47,116.47,222.74,104.28,228.27Z"/><path class="b" d="M201.28,329.79s-.74,2.37,2,8.93,27-14.4,30.54-8.35l-4.44-11Z"/><path class="a" d="M160.65,361.38a.69.69,0,0,0,.06.15S160.71,361.5,160.65,361.38Z"/><path class="a" d="M1177.59,228.32c-3.61,9.51,73.07,43.63,73.07,43.63l-74.83,42.35L1182,409s-76.27-37.59-73.07-43.63S1181.2,218.81,1177.59,228.32Z"/><path class="b" d="M1141.25,366.58s1.36,1-1.74,7.41-26.83-14.48-30.73-8.63l5.12-10.76Z"/><path class="c" d="M1195.63,228.27c7,3.18,10.29,7.07,7.92,12.29-2.7,6-61.92,128.57-64,133.28.51-1.44-3.47-5.05-12.61-9.66-12-6-30.14-13.79-40.78-18.62s-21.75-11-20.06-15.19,85.58-120.54,85.58-120.54C1168.75,216.47,1183.44,222.74,1195.63,228.27Z"/><path class="b" d="M1098.62,329.79s.74,2.37-2,8.93-27-14.4-30.54-8.35l4.44-11Z"/><path class="a" d="M1139.25,361.38a.69.69,0,0,1-.06.15S1139.2,361.5,1139.25,361.38Z"/><path class="a" d="M650,109.07C427.3,109.07,326,132,150.53,192c-7.33,2.51-10.45,6.86-8.2,12.13,2.56,6,59,129.8,60.92,134.55-2.05-4.62,10.67-9.47,20.4-12.83C368,276.13,470.85,251.81,650,252.86c179.1-1,282,23.27,426.31,73,9.73,3.36,22.45,8.21,20.4,12.83,2-4.75,58.36-128.54,60.92-134.55,2.24-5.27-.87-9.62-8.2-12.13C973.9,132,872.61,109.07,650,109.07Z"/><text class="d" transform="translate(749.09 221.83) rotate(5.29) scale(1.05 1)">F</text><text class="d" transform="matrix(1.04, 0.16, -0.15, 0.99, 819.91, 228.06)">U</text><text class="d" transform="matrix(1.02, 0.24, -0.23, 0.97, 898.73, 240.05)">N</text><text class="e" transform="translate(749.09 221.83) rotate(5.29) scale(1.05 1)">F</text><text class="e" transform="matrix(1.04, 0.16, -0.15, 0.99, 819.91, 228.06)">U</text><text class="e" transform="matrix(1.02, 0.24, -0.23, 0.97, 898.73, 240.05)">N</text><text class="f" transform="translate(740.75 248.79) rotate(-87.81) scale(1.15 1)">–OF–</text><text class="d" transform="translate(305.97 265.61) rotate(-14.01) scale(1.05 1)">H</text><text class="d" transform="translate(388.18 245.25) rotate(-9.69) scale(1.05 1)">O</text><text class="d" transform="matrix(1.04, -0.12, 0.11, 0.99, 460.63, 232.68)">U</text><text class="d" transform="translate(540.08 223.92) rotate(-3.18) scale(1.05 1)">S</text><text class="d" transform="translate(613.31 219.81) rotate(-0.37) scale(1.05 1)">E</text><text class="e" transform="translate(305.97 265.61) rotate(-14.01) scale(1.05 1)">H</text><text class="e" transform="translate(388.18 245.25) rotate(-9.69) scale(1.05 1)">O</text><text class="e" transform="matrix(1.04, -0.12, 0.11, 0.99, 460.63, 232.68)">U</text><text class="e" transform="translate(540.08 223.92) rotate(-3.18) scale(1.05 1)">S</text><text class="e" transform="translate(613.31 219.81) rotate(-0.37) scale(1.05 1)">E</text><path class="g" d="M462,102.75l.48-.06.06.54-17.12,2-.06-.54.48-.06a2.09,2.09,0,0,0,1.66-.92,2.29,2.29,0,0,0,.41-1.43,3.36,3.36,0,0,0-.42-1.26l-3.38-6.3-12.55,1.43-2,6.92a3.68,3.68,0,0,0-.12,1.34,2.21,2.21,0,0,0,.74,1.27,2.16,2.16,0,0,0,1.85.52l.43,0,.06.54L421.06,108l-.06-.54.48-.06a4.74,4.74,0,0,0,2.38-1,5.74,5.74,0,0,0,1.78-2.49l9.19-29.47q1.92-5.6,1.88-7.33l.48-.05,19.93,33.16a5.87,5.87,0,0,0,2.31,2.1A4.7,4.7,0,0,0,462,102.75Zm-29.78-9L443,92.54l-6.71-12.6Z"/><path class="g" d="M515.06,61.47a3.14,3.14,0,0,0-2.72,1.84A3.41,3.41,0,0,0,512,65l2.21,27.78a32.41,32.41,0,0,0,1,6l.23.79-.48,0L485.65,75.89l1.7,21.37a3.08,3.08,0,0,0,1.15,2.21,3.21,3.21,0,0,0,2.39.76l1-.08,0,.54L475.65,102l0-.54,1-.08a3.28,3.28,0,0,0,2.29-1.13,3.14,3.14,0,0,0,.78-2.42l-2.22-27.94a30.33,30.33,0,0,0-1-5.88l-.17-.8.48,0L506,86.89l-1.69-21.26a3.34,3.34,0,0,0-1.21-2.26,3.22,3.22,0,0,0-2.39-.76l-1,.08,0-.54L516,60.85l0,.54Z"/><path class="g" d="M522.51,97.88a3.28,3.28,0,0,0,2.34-1.14,3.48,3.48,0,0,0,.9-2.46l-1.82-29.91a3.39,3.39,0,0,0-1.2-2.31,3.32,3.32,0,0,0-2.46-.82l-.7,0,0-.54,16.39-1,0,.54-.65,0a3.41,3.41,0,0,0-2.37,1.12,3.15,3.15,0,0,0-.88,2.43l1.82,29.91A3.23,3.23,0,0,0,535,96.12a3.36,3.36,0,0,0,2.49.85l.65,0,.09.54-16.39,1,0-.54Z"/><path class="g" d="M562,97.05q-9.22.41-15-4.66t-6.21-14.1q-.4-9,5-14.57t14.9-6a41.32,41.32,0,0,1,8.4.47A27.2,27.2,0,0,1,575.61,60l.52,9.27-.49,0Q574,64.15,570.51,62a13.9,13.9,0,0,0-8.2-2q-6.53.29-9.83,5.11T549.54,78q.36,8.12,3.77,12.56a10.45,10.45,0,0,0,9.29,4.19,10.64,10.64,0,0,0,7-2.74,7.44,7.44,0,0,0,1.92-3l-.36-8.25a2.24,2.24,0,0,0-.81-1.78,3.12,3.12,0,0,0-2.1-.53l-.86,0,0-.54,15.16-.67,0,.54-.81,0a2.92,2.92,0,0,0-2,.71,2.29,2.29,0,0,0-.62,1.84l.39,8.9a17.17,17.17,0,0,1-6.75,5.16A27.16,27.16,0,0,1,562,97.05Z"/><path class="g" d="M611.24,94.22a3.06,3.06,0,0,0,2.14-.75,3.94,3.94,0,0,0,1.24-2.67L614.34,77l-17.49.37.29,13.71a3.23,3.23,0,0,0,1.08,2.38,3.36,3.36,0,0,0,2.45.95h.65l.07.54L585,95.32v-.54h.7a3.28,3.28,0,0,0,2.38-1,3.48,3.48,0,0,0,1-2.42l-.63-29.91A3.48,3.48,0,0,0,587.3,59a3.28,3.28,0,0,0-2.42-.95h-.7v-.54l16.41-.35,0,.54h-.65a3.36,3.36,0,0,0-2.41,1,3.24,3.24,0,0,0-1,2.42l.29,13.88,17.49-.37L614,60.84a3.48,3.48,0,0,0-1.1-2.38,3.28,3.28,0,0,0-2.42-.95h-.7V57l16.41-.35v.54h-.7a3.36,3.36,0,0,0-2.41,1.05,3.23,3.23,0,0,0-1,2.42l.63,29.91A3.23,3.23,0,0,0,623.8,93a3.36,3.36,0,0,0,2.45.95h.7v.54l-16.41.35v-.54Z"/><path class="g" d="M651.06,58.84l0,31.7a3.38,3.38,0,0,0,1.05,2.38,3.32,3.32,0,0,0,2.4,1h.65l.05.54H638.82V93.9h.7a3.26,3.26,0,0,0,2.35-1A3.55,3.55,0,0,0,643,90.6l0-31.75h-7.29a5.19,5.19,0,0,0-5.4,5.51V65h-.54v-9.4a17.88,17.88,0,0,0,6.37,1h21.76a22.56,22.56,0,0,0,3.64-.33,13.41,13.41,0,0,0,2.73-.65V65h-.54v-.65a5,5,0,0,0-2.54-4.75,5.93,5.93,0,0,0-2.86-.75Z"/><path class="g" d="M718.09,95h.49v.54l-17.22-.43V94.6h.49a2.09,2.09,0,0,0,1.77-.69,2.29,2.29,0,0,0,.6-1.36,3.35,3.35,0,0,0-.24-1.3l-2.48-6.71-12.63-.31-3,6.57a3.69,3.69,0,0,0-.3,1.32,2.21,2.21,0,0,0,.56,1.36,2.16,2.16,0,0,0,1.76.77h.43v.54l-11.55-.29V94h.49a4.74,4.74,0,0,0,2.5-.69,5.75,5.75,0,0,0,2.11-2.22l13.17-27.92q2.67-5.28,2.87-7h.49l15.16,35.59a5.87,5.87,0,0,0,2,2.4A4.71,4.71,0,0,0,718.09,95ZM689.83,82l10.8.27-4.91-13.41Z"/><path class="g" d="M735.51,60.72,734.2,92.39a3.37,3.37,0,0,0,1,2.42,3.32,3.32,0,0,0,2.36,1.07l.65,0,0,.54-16.4-.68,0-.54.7,0a3.26,3.26,0,0,0,2.39-.87,3.55,3.55,0,0,0,1.2-2.27l1.31-31.72-7.28-.3a5.19,5.19,0,0,0-5.62,5.28l0,.65-.54,0,.39-9.39a17.88,17.88,0,0,0,6.33,1.23l21.74.9a22.6,22.6,0,0,0,3.66-.17,13.4,13.4,0,0,0,2.75-.54l-.39,9.39-.54,0,0-.65a5,5,0,0,0-2.34-4.85,5.93,5.93,0,0,0-2.83-.87Z"/><path class="g" d="M785.58,63.55l-2.13,31.63a3.37,3.37,0,0,0,.89,2.44,3.32,3.32,0,0,0,2.33,1.13l.65,0,0,.54L771,98.23l0-.54.7,0a3.26,3.26,0,0,0,2.41-.81,3.55,3.55,0,0,0,1.26-2.24L777.5,63l-7.27-.49a5.19,5.19,0,0,0-5.76,5.13l0,.65-.54,0,.63-9.37a17.89,17.89,0,0,0,6.29,1.4l21.71,1.47a22.64,22.64,0,0,0,3.66-.08,13.39,13.39,0,0,0,2.76-.46l-.63,9.37-.54,0,0-.65A5,5,0,0,0,795.61,65a5.92,5.92,0,0,0-2.8-.95Z"/><path class="g" d="M825.33,102a3.06,3.06,0,0,0,2.21-.5,3.94,3.94,0,0,0,1.53-2.52l1.25-13.71L812.9,83.63l-1.24,13.66a3.23,3.23,0,0,0,.8,2.49,3.36,3.36,0,0,0,2.33,1.22l.65.06v.54l-16.35-1.49,0-.54.7.06a3.28,3.28,0,0,0,2.48-.78,3.48,3.48,0,0,0,1.27-2.3l2.71-29.79a3.48,3.48,0,0,0-.83-2.49,3.28,3.28,0,0,0-2.3-1.21l-.7-.06,0-.54L818.86,64l-.1.53-.65-.06a3.37,3.37,0,0,0-2.51.77,3.24,3.24,0,0,0-1.24,2.3l-1.26,13.82,17.42,1.58,1.26-13.82A3.48,3.48,0,0,0,831,66.6a3.28,3.28,0,0,0-2.3-1.21l-.7-.06,0-.54,16.35,1.49,0,.54-.7-.06a3.37,3.37,0,0,0-2.51.77,3.23,3.23,0,0,0-1.24,2.3l-2.71,29.79a3.23,3.23,0,0,0,.8,2.49,3.36,3.36,0,0,0,2.33,1.21l.7.06,0,.54-16.35-1.49,0-.54Z"/><path class="g" d="M845.91,104a3.27,3.27,0,0,0,2.5-.72,3.48,3.48,0,0,0,1.32-2.27l3.47-29.88a3,3,0,0,0-.57-2.13,3.93,3.93,0,0,0-2.49-1.48l-.7-.08.06-.54L870,69.26a19.63,19.63,0,0,0,4.39.1A18.44,18.44,0,0,0,876.6,69l-1.09,9.39-.53-.12.07-.59a5,5,0,0,0-1.92-5,5.82,5.82,0,0,0-2.7-1.07l-9-1L859.6,86.2l7.08.82a4.59,4.59,0,0,0,3.43-1,4.49,4.49,0,0,0,1.66-3.1l.06-.48.54.06-1.44,12.39-.54-.06,0-.43a4.48,4.48,0,0,0-3.92-5.13l-7.19-.83-1.75,15.07,7,.82a9.87,9.87,0,0,0,6.83-1.49,13.4,13.4,0,0,0,4.68-5.93l.54.06-3.74,10.66-27.79-3.22.06-.54Z"/><path class="h" d="M887,92.81c30.36,4.36,59.41,9.53,86.61,15.51"/><path class="h" d="M337.44,104c24.1-4.75,49.47-8.86,75.76-12.34"/><line class="h" x1="337.44" y1="104.02" x2="329.3" y2="115.38"/><line class="h" x1="325.65" y1="97.86" x2="337.44" y2="104.02"/><polyline class="h" points="966.62 97.87 973.68 109.14 962.8 115.19"/></svg>