<svg xmlns="http://www.w3.org/2000/svg" viewBox="0 0 1300 360"><defs><style>.a{fill:#996868;}.b{fill:#e09d8d;}.c{fill:#ffc697;}.d{fill:#c4d9ff;}.e{fill:#1d2533;}</style></defs><title>sign</title><polygon class="a" points="1145.18 309.03 1154.99 294.5 1120.47 277.47 1115.09 287.78 1145.18 309.03"/><polygon class="a" points="149.59 319.81 139.78 305.28 174.31 288.25 179.69 298.56 149.59 319.81"/><path class="b" d="M650,24.68c-336,0-544.52,137.15-544.52,137.15s65.13,127.94,68.16,134-28.89,15.85-24,24S314,182.44,650,182.44,1140.29,317.18,1145.18,309s-27-18-24-24,68.16-134,68.16-134S986,24.68,650,24.68Z"/><path class="c" d="M101.59,343.81l3.84-100.73L29.59,199.81s68.16-58,72-48,77.81,155.44,72,144C169.75,288.24,101.59,343.81,101.59,343.81Z"/><path class="c" d="M1192.84,333.29,1189,232.57l75.84-43.27s-68.16-58-72-48-77.81,155.44-72,144C1124.68,277.73,1192.84,333.29,1192.84,333.29Z"/><path class="d" d="M384.93,122.59c-5.08-17.08-18.45-38.83-33.93-34.23-11.91,3.54-11.47,13.74-8.59,23.4L356,157.65c4.05,13.63,12.38,22,24.09,18.56,11.91-3.54,17-12.39,11.36-31.54l20.44-6.08c5.49,18.46-.34,40.28-29.11,48.84-31.35,9.32-49.82-9.22-56.08-30.27l-8.51-28.64c-5.38-18.12,4.43-43.94,29.43-51.38a40.83,40.83,0,0,1,17-1.5c3.64.61,8,.81,10.4.1,2-.59,2.87-2,1.53-6.46l13.49-4,15.23,51.24Z"/><path class="d" d="M443.77,81.95c-1.41-8.34-4.72-13.08-8.93-13.1l-6.68.21-1.71-10.12,49.19-8.3,1.71,10.12-6.38,2c-4,1.4-5.54,7-4.14,15.3l10.35,61.41c1.38,8.16,3.88,13,9.13,13.06l6.68-.21,1.71,10.12-49.4,8.33-1.71-10.12,6.38-2c4.75-1.71,5.51-7.14,4.14-15.3Z"/><path class="d" d="M546.46,107.14l1.61,23.7c.56,8.26,3.23,13.85,10.71,14.07l4.79.22.7,10.24-51,3.47-.7-10.24,6.55-1.35c4.9-1.24,6.19-6.56,5.63-14.82L520.51,70.3c-.57-8.44-3.41-13.48-7.59-13.92l-6.67-.45-.7-10.24,58.24-4c26.44-1.8,39.61,8.85,40.87,27.35,1,14.37-5.7,22.94-13.29,27.24l0,.36c7.33,4,10.48,10.65,12.18,20.46,1.73,10.17,2.89,15,6.19,14.73,3.1-.21,3.52-6.19,3.25-10.14l-.56-8.26,12-.81.56,8.26c1.7,25-5.71,32-17.89,32.79-14.87,1-21.32-5.4-25.71-27.12-1.95-10.33-6-21.42-15.52-20.77Zm3.73-48.78c-4.34.29-6.88,2.63-6.29,11.25l1.39,20.47L567,88.6c6.82-.46,13.67-6.52,13-16.22-.77-11.31-8.32-15.49-15.13-15Z"/><path class="d" d="M719.39,93.51c.68-17.81-5-42.7-21.14-43.31-12.41-.47-15.27,9.33-15.65,19.4l-1.81,47.85c-.54,14.21,4.65,24.85,16.85,25.32,12.41.47,20.12-6.26,20.88-26.23l21.31.81c-.73,19.25-13.25,38-43.24,36.91-32.68-1.24-44.22-24.73-43.39-46.68l1.13-29.86c.72-18.89,18.3-40.2,44.37-39.21a40.83,40.83,0,0,1,16.63,4.05c3.25,1.74,7.33,3.34,9.81,3.43,2.07.08,3.35-1,3.53-5.63l14.07.53-2,53.42Z"/><path class="d" d="M777.82,44.09l49.35,7.27-1.5,10.15L819,61.44c-4.2.11-7.42,4.91-8.65,13.28l-5.59,37.93c-4.12,28-3.23,39,13.35,41.45,10.65,1.57,19.07-3,22.37-25.45l7.13-48.44c1-6.77.76-13.72-4.87-15.27l-6.22-1.83L838,53l39.52,5.82-1.5,10.15-6.68-.07c-5.63-.1-7.86,6.48-8.86,13.25l-6.69,45.41C848.9,161,836.09,168.39,815,165.29c-32.36-4.76-38.6-20.6-34-51.77l6.22-42.21c1.23-8.37-.46-13.9-4.46-15.21l-6.42-1.86Z"/><path class="d" d="M970.78,119.35A34.31,34.31,0,0,0,968,104c-2.37-5-10.37-13.65-18.9-16.22-11.1-3.34-18.49,2.52-20.51,9.24-3.16,9.77,3,15,17,23.34,23.94,14.54,32.64,27.31,26.41,48-5.86,19.48-25.27,27.92-45.49,21.83a49.91,49.91,0,0,1-17.39-9.75c-4-3.27-7.09-5.89-10.26-6.85s-6.39,1.84-9.11,4.4l-9.91-3L891,138l9.91,3c-.41,5,.43,9.34,2.3,14.6,2.88,8.39,11.08,17.06,24.56,21.12,8.32,2.51,16.34-1.85,18.41-8.74,3-9.82-6.3-17.12-12.12-21.51l-13.8-10.17c-15.87-11.92-20.1-23.72-14.91-41,5.5-18.27,25-24.81,44.6-18.9a71.88,71.88,0,0,1,15.83,7c2.91,1.82,5.63,3.57,8.6,4.47,2.38.72,4.38-.19,6.13-1l9.71,2.92-9.76,32.4Z"/><path class="e" d="M314.61,129.41c-6.92-23.29,7.58-47.88,31-54.84a48.89,48.89,0,0,1,17.54-2c4.23.43,8.21.75,9.4.4s.77-2.48-.15-5.59l18.26-5.43,21.54,11.44,16.46,55.38-27,8L382.48,126.7c-6.39-19.32-14-28.89-18-27.71-4.37,1.3-4.06,7.4-2,14.31l14.31,48.14c1.49,5,4.65,8.38,8.22,7.32,5.16-1.53,5.92-10.59,2.2-26l26.39-7.85,21.49,11.26c5.84,35.63-15.32,49.43-38.34,56.28-28.37,8.44-62.79-7.81-73.61-44.21Zm90.76-12.9L390.13,65.27l-13.49,4c1.33,4.49.45,5.88-1.53,6.46-2.38.71-6.76.51-10.4-.1a40.83,40.83,0,0,0-17,1.5c-25,7.43-34.82,33.26-29.43,51.38l8.51,28.64c6.26,21,24.73,39.59,56.08,30.27,28.77-8.55,34.59-30.38,29.11-48.84l-20.44,6.08c5.69,19.15.55,28-11.36,31.54-11.71,3.48-20-4.93-24.09-18.56L342.4,111.76c-2.87-9.66-3.31-19.86,8.59-23.4,15.48-4.6,28.85,17.15,33.93,34.23Zm-60.48,16.67c-2.74-.5-6.51.62-9.52,2.83a33.23,33.23,0,0,0,8.66,6.63c-1,6.69-1.11,15.16,4.59,29.24a88.17,88.17,0,0,1-17.49-25.41,38.66,38.66,0,0,0,3.64-10.28c-4.13-.09-7.7,1-9.72,2.89l-2.82-9.49c-5.69-19.15,4.29-43,26.32-49.51a43.75,43.75,0,0,1,15.56-1.43c5.38.65,9.76.86,13.53-.27,2.78-.83,4.65-3.26,3.52-7.05l6.35-1.89,13.44,45.2-13.29,4c-7.8-21.15-21.28-38.18-37.55-33.34-15.08,4.48-14.52,16.52-11.24,27.57Zm-9.83,1.8a22.1,22.1,0,0,1,3.64-10.28c-5.17-5.78-7.48-12.8-8.91-22.7a83.41,83.41,0,0,0-4,26.54c3.8,1.88,7.15,4.45,8.66,6.63Z"/><path class="e" d="M440.3,82.53c-1.38-8.16-4.65-10.17-8.59-9.87l-6.71,0-2.75-16.33,56.54-9.54,18,14.85,2.36,14-6.18,2c-3.61,1-6.25,5.25-4.64,14.84l9.87,58.57,15.81,12.85,2.27,13.49-58.58,9.88-15.58-12.71-2.75-16.33,7.78-2.41c3.76-1.36,4.35-6.57,3.3-12.79Zm13.82,60.83c1.38,8.16.61,13.59-4.14,15.3l-6.38,2,1.71,10.12,49.4-8.33L493,152.32l-6.68.21c-5.25,0-7.75-4.9-9.13-13.06L466.84,78.06c-1.41-8.34.18-13.9,4.14-15.3l6.38-2-1.71-10.12-49.19,8.3,1.71,10.12,6.68-.21c4.2,0,7.52,4.76,8.93,13.1ZM468,107.43c-2.28-1.08-5.14-.59-7.55,1.27a31.79,31.79,0,0,0,8,7.6c-2.07,6.37-2.94,14.92-1.83,30.24-4-14.85-7.59-22.63-11.64-28a27.12,27.12,0,0,0,4.86-9.76c-3.1-.94-5.75-.49-7.55,1.27l-4.85-28.75c-2.27-13.49-7.13-16.14-10.92-16.23l-5.43.19-.66-3.91,42.25-7.13.66,3.9-5.19,1.6c-3.55,1.33-7.27,5.42-5,18.91Zm-7.58,1.1c.18-6.42,1.82-10.35,4.44-13.53-3.78-3.74-7.1-9.75-10.78-22.83.82,13.55-.35,20.32-2.7,25.1,3.51,2.15,6.35,5.32,8.42,11.36Z"/><path class="e" d="M517,70.54c-.56-8.26-3.62-10.58-7.57-10.67l-6.68-.63-1.12-16.52,63.82-4.34c37.59-2.56,58,25.46,59.38,46.29a27,27,0,0,1-13.61,25.64l14.25-1,17.09,16.34.72,10.6c1.59,23.35-7.12,32.6-23.85,33.74-11.57.79-24.62-5-33-18.32-7-10.89-8.69-27-10.38-30.51l-9.71.66,1.43,21,15.29,14.29,1,15.26L524,176.5l-14.24-14.19-1.12-16.52,8-1.63c3.88-1,5-6.11,4.55-12.4Zm48.88,35.28c9.5-.65,13.57,10.44,15.52,20.77,4.38,21.71,10.84,28.13,25.71,27.12,12.19-.83,19.59-7.83,17.89-32.79l-.56-8.26-12,.81.56,8.26c.27,4-.15,9.93-3.25,10.14-3.3.22-4.46-4.57-6.19-14.73-1.7-9.81-4.85-16.45-12.18-20.46l0-.36C599,92,605.64,83.45,604.66,69.08c-1.26-18.5-14.43-29.15-40.87-27.35l-58.24,4,.7,10.24,6.67.45c4.18.44,7,5.48,7.59,13.92l4.23,62.14c.56,8.26-.74,13.58-5.63,14.82l-6.55,1.35.7,10.24,51-3.47-.7-10.24-4.79-.22c-7.48-.21-10.15-5.8-10.71-14.07l-1.61-23.7Zm-2.08-61c21.48-1.46,36,4.23,37.36,24.52.88,12.93-4.79,21.07-13.2,25.61-1.75-1.32-4.64-1.13-8.26.56a39.22,39.22,0,0,1,11.13,8.08c2.88,5.76,4.48,13.95,5.1,29.24-3.75-15.44-11.36-23.58-18.53-28.33,1.66-3,2.29-5.93,1.47-8.94-3-1.24-5.88-1-9.71.66A15.54,15.54,0,0,0,557.8,97a17.23,17.23,0,0,0-12,.82,16.09,16.09,0,0,0-11.57.79,31.8,31.8,0,0,0,7.21,8.35c-2.69,6.14-4.4,14.55-5,29.93-2.48-15.17-5.32-23.27-8.41-29a32.51,32.51,0,0,0,5.39-9.21c-3.4-1.21-5.47-1.07-7.23.49l-2-29.09c-.93-13.65-5.5-16.77-9.26-17.23l-5.42-.35-.27-4ZM534.25,98.41c.6-6.36,2.84-10.12,5.75-13-3.39-4.1-6.31-10.4-8.67-23.77-.12,13.54-1.95,20.16-4.75,24.68,2.87,2.51,5.38,5.95,6.84,12.16Zm15.95-43.12c-8.47.58-10.65,5.06-10,14.57l1.61,23.7L567,91.85a18,18,0,0,0,16.71-19.72c-.82-12-8.52-18.54-19.68-17.78Zm14.67,2.07c6.82-.46,14.36,3.71,15.13,15,.66,9.7-6.19,15.76-13,16.22L545.3,90.08l-1.39-20.47c-.59-8.62,2-11,6.29-11.25Zm2.28,18.25c-2.27.15-3.79,2.24-3.55,5.83l.31,4.49,3.51-.24c3.51-.24,8.24-4,8-7.4a3.39,3.39,0,0,0-3.52-3Zm12.55,19.71c6.55-4.41,12.1-8.22,17.73-13.84-.37-5.39-2.58-13.54-9.08-23.74,5.4,12.26,1.16,20.13-2.32,23.79-.3,4.71-3.45,10.34-7.15,13.84Z"/><path class="e" d="M650.6,77.39c.92-24.28,22.55-42.92,47-42a48.88,48.88,0,0,1,17.26,3.72c3.87,1.77,7.54,3.35,8.78,3.4s1.53-2.1,1.65-5.34l19,.72L761,55.64l-2.19,57.74-28.13-1.07-14.94-15.7c.15-20.35-4-31.85-8.11-32-4.55-.17-6.22,5.71-6.5,12.9l-1.9,50.18c-.2,5.22,1.71,9.43,5.44,9.57,5.38.2,9-8.12,10.44-23.92l27.51,1L759.36,132c-5.91,35.62-30.38,41.9-54.38,41-29.58-1.12-57-27.56-55.52-65.51Zm90.09,16.93,2-53.42-14.07-.53c-.18,4.68-1.46,5.71-3.53,5.63-2.48-.09-6.57-1.69-9.81-3.43a40.83,40.83,0,0,0-16.62-4.05c-26.06-1-43.65,20.32-44.37,39.21l-1.13,29.86c-.83,21.94,10.71,45.44,43.39,46.68,30,1.14,42.51-17.66,43.24-36.91l-21.31-.81c-.76,20-8.47,26.7-20.88,26.23-12.2-.46-17.39-11.11-16.85-25.32l1.81-47.85c.38-10.07,3.24-19.87,15.65-19.4,16.13.61,21.82,25.5,21.14,43.31Zm-62.63-3.64c-2.43-1.35-6.37-1.5-9.93-.38a33.2,33.2,0,0,0,6.08,9.06c-3.13,6-5.92,14-5,29.17a88.16,88.16,0,0,1-8.4-29.68,38.64,38.64,0,0,0,6.75-8.57c-3.88-1.41-7.61-1.55-10.14-.38l.38-9.89c.76-20,17.85-39.31,40.81-38.44a43.75,43.75,0,0,1,15.19,3.64c4.88,2.35,9,3.94,12.89,4.09,2.9.11,5.45-1.6,5.6-5.55l6.62.25-1.79,47.13-13.86-.53c-.6-22.54-7.9-43-24.86-43.63-15.72-.6-19.06,11-19.5,22.5Zm-9.89-1.46a22.08,22.08,0,0,1,6.75-8.57c-3-7.14-3-14.52-1.15-24.36a83.43,83.43,0,0,0-12.3,23.85c3,3,5.35,6.51,6.08,9.06Z"/><path class="e" d="M834.45,53.16l.58-3.92,46.49,6.84L894.3,75.8l-2.07,14.07-6.68-.07c-3.74-.19-7.57,3.07-9,12.69l-7.48,50.75c-3.91,26.53-24.43,35.16-47.77,31.72-28.26-4.16-50.6-25.83-43.8-72l6.22-42.21c1.21-8.19-1.29-11.11-5.13-12l-6.4-2,2.41-16.38,56.73,8.35Zm-58.12,1.09,6.42,1.86c4,1.32,5.69,6.84,4.46,15.21L781,113.52c-4.59,31.17,1.66,47,34,51.77,21.09,3.11,33.9-4.29,38.83-37.77l6.69-45.41c1-6.77,3.22-13.35,8.86-13.25l6.68.07,1.5-10.15L838,53l-1.5,10.15,6.22,1.83c5.63,1.56,5.86,8.5,4.87,15.27l-7.13,48.44c-3.3,22.44-11.72,27-22.37,25.45-16.59-2.44-17.47-13.49-13.35-41.45l5.59-37.93c1.23-8.37,4.45-13.17,8.65-13.28l6.68.07,1.5-10.15-49.35-7.27Zm46.92-.37-.58,3.92-5.43-.07c-3.79.17-8.59,2.92-10.58,16.45L802.41,103c-.61-1.55-3.89-2-7.58-1.12a34.63,34.63,0,0,0,5.27,9.69c-3.94,5.42-7.4,13.28-8.37,28.42-2.51-15.65-4-24.24-5.14-30.42a29.13,29.13,0,0,0,7.63-7.79c-3.07-1.91-6.34-2.39-7.58-1.12l4.25-28.85c2-13.53-1.81-17.55-5.39-18.81l-5.22-1.5.58-3.92Zm-28.36,47.68c2.15-6.05,4.9-9.1,8.39-11.5-2.44-4.73-3.75-11.47-3.22-25-3.4,13.15-6.6,19.22-10.3,23,2.65,3.3,4.41,7,4.51,13.4Zm26.91,24.7c-2.75,18.7.67,21,5.58,21.75,3.28.48,7.4-6.19,9.47-20.26l6.71-45.59-7.4-.91c-5.66.08-8.36,4.23-9.62,12.77Zm51.83-65-.58,3.92-3.38.23c-9,.31-11.39,6.33-12.84,16.12l-4.25,28.85a4.43,4.43,0,0,0-5.73-.84l4.25-28.85c1.44-9.79.49-16.12-7.85-19.17l-2.56-1.1.58-3.92Z"/><path class="e" d="M901.4,94.89c6.33-21,28.45-27.72,50.45-21.09a78.59,78.59,0,0,1,14.79,6.15c3.71,2.06,6.22,3.75,8.2,4.35a6.14,6.14,0,0,0,5.34-1.21l14.67,4.42,9.48,21.65-10.9,36.2-13.08-3.94-13.48-19.85c.7-8.06-.39-16.66-8.51-19.11-7.14-2.15-11.59.46-13.15,5.63-1.35,4.48-.45,7.95,11.64,15.91,25.4,16.86,36.83,37.78,29,63.81-6.54,21.72-29.93,30.47-49.75,24.5-8.33-2.51-15.73-6.62-19-10.22-2.6-2.85-5.5-5.42-8.08-6.19-2.78-.84-6,3.28-7.72,4.82l-17.25-5.19-8.76-19,12.82-42.57,17.44,5.25a96.91,96.91,0,0,0,6.81,20.47c2.52,5.27,7.42,11.26,15,13.52,4.16,1.25,10.53.92,11.88-3.57,1.92-6.38-13.6-14.43-20.38-20.61C907,138.11,894.34,118.33,901.4,94.89Zm27.23,2.18c2-6.72,9.41-12.58,20.51-9.24C957.66,90.4,965.66,99,968,104a34.31,34.31,0,0,1,2.74,15.3l9.71,2.92,9.76-32.4-9.71-2.92c-1.75.79-3.75,1.69-6.13,1-3-.9-5.69-2.65-8.6-4.47a71.88,71.88,0,0,0-15.83-7c-19.62-5.91-39.1.63-44.6,18.9-5.19,17.24-1,29,14.91,41l13.8,10.17c5.81,4.38,15.07,11.68,12.12,21.51-2.08,6.89-10.09,11.25-18.41,8.74-13.48-4.06-21.68-12.73-24.56-21.12-1.87-5.26-2.71-9.65-2.3-14.6L891,138l-11.16,37.06,9.91,3c2.72-2.57,5.94-5.36,9.11-4.4s6.27,3.58,10.26,6.85a49.91,49.91,0,0,0,17.39,9.75c20.22,6.09,39.62-2.36,45.49-21.83,6.23-20.68-2.47-33.45-26.41-48C931.67,112.09,925.47,106.84,928.63,97.07Zm34.74,41.85c-5.93-3.29-9.69-4.42-13.68-4.12a23.43,23.43,0,0,0-13.48-4.06c10.67,5.47,19.18,9.53,24.36,13.16,3.95,10.59,2.73,20.37-6.67,32.21,3.55-13.22-.29-24.9-6.9-28.77-.25-4.21-1.72-9.35-11.58-16.83a20.23,20.23,0,0,0-12.49-3.76c-3.75-2.63-6.72-3.53-9.71-2.92-7-9.06-7.45-16.91-4.28-27.42C913.87,80,931.85,74.17,948.7,79.24a62.75,62.75,0,0,1,12.92,5.21c3.65,2.23,8.34,5.33,12.3,6.52a8.79,8.79,0,0,0,6.92-.74L986,91.79l-8,26.54-3.77-1.13c1-12.5-8.76-27.64-24.22-32.29-14.27-4.3-22.32,3.05-24.6,10.64-2.75,9.14-.4,15.67,11,23.05C948,126.2,958.43,132.36,963.37,138.93Zm-27.05-8.52c-11-9.33-15.12-15.83-12.85-22.67-4.22-4.65-5-10.54-1.94-20.13-4.75,5.71-9.26,12.81-11,19.42,3.43,8,10.46,14.8,25,23.14Z"/></svg>