<svg xmlns="http://www.w3.org/2000/svg" viewBox="0 0 1300 440"><defs><style>.a{fill:#e09d8d;}.b{fill:#996868;}.c{fill:#ffc697;}.d{fill:#c4d9ff;}.e{fill:#1d2533;}.f{fill:#fff;}.g{fill:none;stroke:#fff;stroke-miterlimit:10;stroke-width:4px;}</style></defs><title>sign</title><path class="a" d="M122.32,228.32C125.93,237.83,49.24,272,49.24,272l74.83,42.35L117.95,409s76.27-37.59,73.07-43.63S118.71,218.81,122.32,228.32Z"/><path class="b" d="M158.65,366.58s-1.36,1,1.74,7.41,26.83-14.48,30.73-8.63L186,354.59Z"/><path class="c" d="M104.28,228.27c-7,3.18-10.29,7.07-7.92,12.29,2.7,6,61.92,128.57,64,133.28-.51-1.44,3.47-5.05,12.61-9.66,12-6,30.14-13.79,40.78-18.62s21.75-11,20.06-15.19S148.2,209.84,148.2,209.84C131.16,216.47,116.47,222.74,104.28,228.27Z"/><path class="b" d="M201.28,329.79s-.74,2.37,2,8.93,27-14.4,30.54-8.35l-4.44-11Z"/><path class="a" d="M160.65,361.38a.69.69,0,0,0,.06.15S160.71,361.5,160.65,361.38Z"/><path class="a" d="M1177.59,228.32c-3.61,9.51,73.07,43.63,73.07,43.63l-74.83,42.35L1182,409s-76.27-37.59-73.07-43.63S1181.2,218.81,1177.59,228.32Z"/><path class="b" d="M1141.25,366.58s1.36,1-1.74,7.41-26.83-14.48-30.73-8.63l5.12-10.76Z"/><path class="c" d="M1195.63,228.27c7,3.18,10.29,7.07,7.92,12.29-2.7,6-61.92,128.57-64,133.28.51-1.44-3.47-5.05-12.61-9.66-12-6-30.14-13.79-40.78-18.62s-21.75-11-20.06-15.19,85.58-120.54,85.58-120.54C1168.75,216.47,1183.44,222.74,1195.63,228.27Z"/><path class="b" d="M1098.62,329.79s.74,2.37-2,8.93-27-14.4-30.54-8.35l4.44-11Z"/><path class="a" d="M1139.25,361.38a.69.69,0,0,1-.06.15S1139.2,361.5,1139.25,361.38Z"/><path class="a" d="M650,109.07C427.3,109.07,326,132,150.53,192c-7.33,2.51-10.45,6.86-8.2,12.13,2.56,6,59,129.8,60.92,134.55-2.05-4.62,10.67-9.47,20.4-12.83C368,276.13,470.85,251.81,650,252.86c179.1-1,282,23.27,426.31,73,9.73,3.36,22.45,8.21,20.4,12.83,2-4.75,58.36-128.54,60.92-134.55,2.24-5.27-.87-9.62-8.2-12.13C973.9,132,872.61,109.07,650,109.07Z"/><path class="d" d="M811.47,166.05a14.91,14.91,0,0,0-13.54-16.71c-7.2-.67-9.69,3.17-10.19,8.55l-1.62,17.48,14,1.29-.88,9.54-14-1.29-1.93,20.84c-.57,6.18.41,9.39,5.1,11l4.29,1.35L792,225.8l-35.43-3.28.71-7.66,4.58-.25c3.45-.36,4.94-4.15,5.51-10.34l4.3-46.51c.58-6.32-.75-10.37-3.52-11.17l-4.45-1.09.71-7.66,59.7,5.52-2.71,29.31-10.44-1Z"/><path class="d" d="M840.12,145.14l33.76,5.25L872.7,158l-4.59,0c-2.88.1-5.17,3.71-6.14,10l-4.42,28.41c-3.26,20.94-2.82,29.21,8.53,31,7.28,1.13,13.13-2.33,15.74-19.14l5.64-36.28c.79-5.07.74-10.27-3.1-11.41l-4.24-1.34,1.18-7.6,27,4.2-1.18,7.6-4.59,0c-3.87-.05-5.49,4.88-6.28,10l-5.29,34c-3.9,25.08-12.8,30.66-27.23,28.42-22.13-3.44-26.17-15.27-22.55-38.62l4.92-31.61c1-6.27-.11-10.4-2.82-11.37l-4.38-1.36Z"/><path class="d" d="M928.12,227.32c-1.43,6-1.21,10,2.06,11.59l2.88,1.38-1.78,7.49-25.24-6,1.78-7.49,4.57.39c3.47.13,5.47-3.42,6.91-9.46l10.79-45.45c1.47-6.17.72-10.37-1.92-11.56l-4.26-1.7,1.78-7.49,30.89,7.33,7,51.48.14,0,6.77-28.5c1.47-6.17.72-10.38-1.92-11.56l-4.26-1.7,1.78-7.49,26.48,6.29-1.78,7.49-4.43-.36c-3-.16-5.58,3.25-7,9.43l-15.22,64.1-16-3.8-8.91-69.83-.28-.07Z"/><path class="e" d="M765.38,148.77l-4.44-1.22,1.14-12.37,64.64,6L836,155.3l-3,32.26L816.18,186l-7.85-12.11.46-5c.44-4.71-1-7.42-3.56-7.65-3.25-.3-5.2,2.37-5.47,6.81l-.14,3.1,12.93,18.69-1,11.16-14.69-1.22-1.48,16,8.36,12.71-1.12,12.1-40.79-3.77-8-12.13,1.14-12.37,5.58-.3c2.73-.29,4.07-4,4.5-8.67l4.24-45.84C769.84,151.35,768,149.29,765.38,148.77Zm32.55.57a14.91,14.91,0,0,1,13.54,16.71L811,171.7l10.44,1,2.71-29.31-59.7-5.52-.71,7.66,4.45,1.09c2.77.8,4.11,4.85,3.52,11.17l-4.3,46.51c-.57,6.18-2.06,10-5.51,10.34l-4.58.25-.71,7.66L792,225.8l.71-7.66-4.29-1.35c-4.69-1.65-5.67-4.86-5.1-11l1.93-20.84,14,1.29.88-9.54-14-1.29,1.62-17.48C788.24,152.51,790.73,148.67,797.93,149.34Zm23.42-3.93-2.29,24.73-5.36-.5.31-3.36c1.24-13.44-8-18.5-15.87-19.23-11-1-12.45,5.36-12.94,10.6l-1.84,19.9,14.11,1.31-.3,3.23c-4.84-1.53-7.95-1.82-11-1a11.2,11.2,0,0,0-8.33-.77,23.83,23.83,0,0,0,3.91,7c-2.53,4.24-4.65,10.28-6.7,21.62.07-11.52-.91-17.85-2.62-22.48a20.39,20.39,0,0,0,5-6.18,4.64,4.64,0,0,0-5.22-.48l2-21.78c.95-10.22-1.78-13-4.27-13.82l-3.62-.88.27-3Zm-43.5,34.75c1.28-4.63,3.08-7.17,5.25-9-1.68-3.41-2.78-8.39-2.84-18.57-1.92,10-3.92,14.69-6.34,17.72,1.93,2.21,3.24,5,3.51,9.81Z"/><path class="e" d="M878.84,151.7l.46-2.93,31.8,4.94,8.47,14.71L917.93,179l-4.59,0c-2.56-.13-5.24,2.33-6.36,9.53l-5.91,38c-3.09,19.88-17.3,26.41-33.27,23.93-19.33-3-34.33-19.13-29-53.68l4.91-31.61c1-6.14-.72-8.31-3.34-9l-4.36-1.5L838,142.34l38.8,6Zm-39.9,1,4.38,1.36c2.72,1,3.8,5.1,2.82,11.37l-4.92,31.61c-3.63,23.34.41,35.17,22.55,38.62,14.43,2.24,23.33-3.34,27.23-28.42l5.29-34c.79-5.07,2.42-10,6.28-10l4.59,0,1.18-7.6-27-4.2-1.18,7.6,4.24,1.34c3.84,1.14,3.89,6.34,3.1,11.41l-5.64,36.28c-2.61,16.81-8.46,20.27-15.74,19.14-11.35-1.76-11.78-10-8.53-31L862,167.93c1-6.27,3.26-9.88,6.14-10l4.59,0,1.18-7.6-33.76-5.25Zm32.21-.46-.46,2.93-3.72,0c-2.6.14-5.94,2.22-7.52,12.36l-3.36,21.61c-.39-1.15-2.64-1.5-5.18-.81a26,26,0,0,0,3.47,7.23c-2.79,4.08-5.28,10-6.18,21.31-1.48-11.71-2.35-18.12-3.06-22.74a21.92,21.92,0,0,0,5.36-5.86c-2.08-1.42-4.32-1.76-5.18-.81l3.36-21.61c1.58-10.14-1-13.13-3.41-14.05l-3.56-1.1.46-2.94Zm-20.2,35.8c1.57-4.54,3.5-6.83,5.93-8.64-1.6-3.53-2.4-8.57-1.82-18.73-2.54,9.85-4.82,14.41-7.42,17.29,1.77,2.46,2.92,5.23,2.89,10ZM869,206.46c-2.18,14,.14,15.73,3.5,16.25,2.24.35,5.17-4.66,6.81-15.2l5.31-34.15-5.06-.65c-3.89.08-5.81,3.2-6.8,9.6Zm36.57-48.83-.46,2.94-2.32.19c-6.21.26-7.92,4.78-9.06,12.12l-3.36,21.61a2.83,2.83,0,0,0-3.92-.61l3.36-21.61c1.14-7.34.58-12.07-5.09-14.32l-1.74-.82.46-2.93Z"/><path class="e" d="M951.81,266.8l-6.65-14.34-3.36-26.33-3.46,14.58,5.31,11.39-2.87,12.08-31.58-7.5L903,243.56l2.87-12.08,5.57.49c2.75.1,4.58-3.35,5.68-7.95l10.63-44.79c1.43-6-.06-8.34-2.62-9.22l-4.23-1.84,2.87-12.08,35.3,8.38,3.57,7.65,1.53-6.44,31.44,7.47,7.15,15.29-2.46,10.38-4.43-.36c-2.54-.33-5.27,1.94-7,9L973.6,272Zm-12.9-84.93.28.07,8.91,69.83,16,3.8,15.22-64.1c1.47-6.17,4-9.59,7-9.43l4.43.36,1.78-7.49-26.48-6.29-1.78,7.49,4.26,1.7c2.63,1.18,3.38,5.38,1.92,11.56l-6.77,28.5-.14,0-7-51.48L925.68,159l-1.78,7.49,4.26,1.7c2.63,1.18,3.38,5.38,1.92,11.56l-10.79,45.45c-1.43,6-3.44,9.59-6.91,9.46l-4.57-.39L906,241.78l25.24,6,1.78-7.49-2.88-1.38c-3.26-1.61-3.49-5.55-2.06-11.59ZM954,168.11l5.53,41.14a8.77,8.77,0,0,0-7.17-1.7,52.22,52.22,0,0,0,4.82,7.94c-.82,4.66-1.33,10.51-1.67,22.36-2.65-12.15-4.8-19-6.88-24.39a17.23,17.23,0,0,0,3.32-6c-2.65-1.74-4.85-2.26-6.76-1.6L942,182.2c-.27-2.56-.75-4.2-2.54-4.63s-2.4,1.51-2.87,3.48l-5.11,21.54a3,3,0,0,0-4-.95l5.05-21.28c2.37-10,.07-13.17-2.29-14.28l-3.46-1.38.69-2.89Zm-1.61,39.3c1.09-4.6,1.72-7.22,2.51-9.95-2.73-5.09-4.82-11-7.45-20.78.53,9.42.22,15-1.7,19.44,2.7,2.72,4.29,5.87,6.23,11.19Zm37.33-30.82-.69,2.89-3.71-.33c-2.61-.06-6.1,1.74-8.47,11.73l-5.05,21.28a2.83,2.83,0,0,0-3.86-.92L973,190c2.37-10,.07-13.17-2.29-14.28l-3.46-1.38.69-2.89Z"/><path class="e" d="M720.47,243.8l.79-20.62,4.56.17L725,244Z"/><path class="e" d="M729.55,185c7.56.22,13.76,6.12,13.42,14.81s-5.95,14.2-14.1,13.82l-11.45-.51c-7.07-.27-13.33-6.17-13-14.79s6.6-14,14.09-13.75Zm1.19,19.24c4.38.17,8.24-.45,8.4-4.58s-3.95-5.05-8-5.21l-15.95-.61c-3.36-.13-6.69.57-6.84,4.64s3.11,5,6.47,5.15Z"/><path class="e" d="M717.09,154.46c-4.68-.18-7,3.81-7.11,7-.13,3.52,1.63,4.62,4,4.71l7.79.3.26-6.83,4.26.16-.26,6.83,9.29.35c2.76.11,4.16-.46,4.79-2.79l.5-2.12,3.42.13-.66,17.31-3.42-.13-.22-2.22c-.24-1.67-2-2.28-4.71-2.39L714.3,174c-2.82-.11-4.59.65-4.88,2l-.38,2.19-3.42-.13L706.74,149l13.07.5-.19,5.1Z"/><path class="e" d="M724.27,144.1l.79-20.62,4.56.17-.79,20.62Z"/><path class="d" d="M325.61,209.65,348.17,204l-4-15.85c-1.54-6.16-4.13-9.54-7.29-9.31l-4.43.41-1.86-7.47,33.15-8.27,1.86,7.47-4.1,1.72c-2.76,1.24-3.46,5.46-1.93,11.61l11.3,45.32c1.5,6,3.55,9.55,7.15,9.35l4.43-.41,1.86,7.47-33.15,8.27-1.86-7.47,4.1-1.72c3.41-1.55,3.57-5.62,2.06-11.65L351,215.55l-22.56,5.63L333,239.12c1.5,6,3.55,9.55,7.15,9.35l4.56-.44,1.86,7.47-33.29,8.3-1.86-7.47,4.24-1.75c3.14-1.48,3.29-5.55,1.79-11.58l-11.3-45.32c-1.54-6.16-4.13-9.54-7-9.38l-4.56.44-1.86-7.47L325.82,173l1.86,7.47-4.1,1.72c-2.76,1.24-3.46,5.46-1.93,11.61Z"/><path class="d" d="M451.35,203.37c3,16.74-6,32.94-23.63,35.95s-31.25-7-34.2-25.11l-4.2-25.44c-2.68-15.7,6.32-32,23.79-35s31.08,8.52,34.06,25.13Zm-38.12,10.89c1.66,9.71,4.65,18,13,16.54s8.35-10.88,6.81-19.92l-6-35.4c-1.27-7.45-4.2-14.48-12.44-13.08s-8.67,9-7.4,16.47Z"/><path class="d" d="M458.47,147.35l34-3.75.85,7.65-4.43,1.17c-2.76.85-4,4.93-3.32,11.23l3.16,28.58C491,213.3,493.59,221.16,505,219.9c7.33-.81,12.07-5.68,10.2-22.59l-4-36.5c-.56-5.1-2-10.1-6-10.21l-4.44-.19-.85-7.65,27.19-3,.85,7.65-4.43,1.17c-3.75,1-4,6.15-3.46,11.25l3.78,34.22c2.79,25.23-4.35,32.94-18.86,34.54-22.26,2.46-29.26-7.91-31.85-31.39l-3.52-31.8c-.7-6.31-2.82-10-5.7-10.24l-4.58-.17Z"/><path class="d" d="M594.09,161.15A26.7,26.7,0,0,0,588.7,151c-2.72-3-9.9-7-16-6.68-7.93.44-11.28,6.44-11,11.7.29,7.69,5.52,9.83,16.44,12.2,18.83,4.23,27.45,11,28.34,27.22.85,15.23-9.62,26.09-24.06,26.89a31.72,31.72,0,0,1-13.48-2.5c-3.34-1.3-6-2.37-8.22-2.25s-3.67,2.91-4.81,5.41l-7.08.39-1.61-29,7.08-.39a26.11,26.11,0,0,0,4.94,9.73C563.1,209,570.42,213,580,212.5a10.32,10.32,0,0,0,9.76-10.82c-.43-7.68-8.11-10.5-12.88-12.13l-11.28-3.7c-13-4.41-18.54-11.68-19.29-25.16-.79-14.29,10.18-23.82,24.19-24.6a45.19,45.19,0,0,1,11.84,1,23.46,23.46,0,0,0,6.59,1c1.7-.09,2.77-1.24,3.71-2.23l6.94-.39L601,160.77Z"/><path class="d" d="M645.65,179.51l.14,22.14c0,5.4,2.19,9.3,9.42,9.25,9.92-.06,12.29-7,12.23-15.33l0-6.61,8.93-.06.2,30.51-55.71.36,0-7.69,4.53-.7c3.4-.56,4.51-4.62,4.47-10.83l-.3-46.71c0-6.34-1.77-10.25-4.61-10.77l-4.54-.65,0-7.69,55.71-.36.19,29.43-8.93.06,0-5.67c-.06-10.12-5.77-15.35-12.43-15.31-7.23,0-9.34,3.3-9.3,9.51l.11,17.55,14-.09.06,9.58Z"/><path class="e" d="M303.78,198.26c-1.5-6-3.89-7.38-6.56-7l-4.6.31-3-12.05,76.06-19,13.38,10.3,2.58,10.35-4.1,1.72c-2.41.88-3.92,4.18-2.16,11.25l10.78,43.22,11.72,8.9,2.48,10-36,9L360.68,263l.75,3-38.51,9.61-11.55-8.81-3-12.05,5.17-2.12c2.48-1.18,2.53-5.08,1.39-9.67Zm17.88-4.46c-1.54-6.16-.83-10.37,1.93-11.61l4.1-1.72L325.82,173l-33.15,8.27,1.86,7.47,4.56-.44c2.88-.16,5.48,3.22,7,9.38L317.42,243c1.5,6,1.35,10.1-1.79,11.58l-4.24,1.75,1.86,7.47,33.29-8.3L344.68,248l-4.56.44c-3.6.2-5.65-3.32-7.15-9.35l-4.48-17.94L351,215.55l4.48,17.94c1.5,6,1.35,10.1-2.06,11.65l-4.1,1.72,1.86,7.47,33.15-8.27-1.86-7.47-4.43.41c-3.6.2-5.65-3.32-7.15-9.35l-11.3-45.32c-1.54-6.16-.83-10.37,1.93-11.61l4.1-1.72-1.86-7.47-33.15,8.27,1.86,7.47,4.43-.41c3.16-.23,5.75,3.16,7.29,9.31l4,15.85-22.56,5.63ZM362,166.34l.72,2.88-3.45,1.42c-3.31,1.38-4,6.71-2.13,14.31l5.29,21.22c-1.36-.77-3.29-.29-5,1.24a19.72,19.72,0,0,0,5.73,5.39c-.85,4.8-1,11.24.82,22.61-3.6-10.93-6.76-16.54-9.76-20.38a23,23,0,0,0,2.66-7.48,15.17,15.17,0,0,0-9.49,2.37,14.33,14.33,0,0,0-9.22,2.3,14.74,14.74,0,0,0-9.35,2.33,15.17,15.17,0,0,0-9.49,2.37,26.4,26.4,0,0,0,5.86,5.35c-.85,4.8-.86,11.21,1,22.58-3.74-10.89-6.76-16.54-9.9-20.35A20.4,20.4,0,0,0,319,217c-2.32-.53-4.25-.05-5.09,1.27l-5.29-21.22c-1.9-7.6-5-12-8.6-11.63l-3.71.37-.72-2.88,28.47-7.1.72,2.88-3.45,1.42c-3.31,1.38-4,6.71-2.13,14.31l4.54,18.21,27.37-6.83-4.54-18.21c-1.89-7.6-4.89-12-8.6-11.63l-3.57.33-.72-2.88Zm-42.65,50.43c-.32-4.79.54-7.79,2-10.23-2.71-2.66-5.4-7-8.81-16.58,1.49,10.06,1.15,15.16-.13,18.81,2.55,1.45,4.72,3.69,6.55,8.1Zm25.78-14.36L342.3,191l-2.93,1.15c-3.2,1.22-3.72,4.41-2.12,10.83l.33,1.31Zm2.56,42.49,4.62-2c1.83-.87,2.1-3.31.73-8.81l-1.18-4.72-7.56,1.89Zm9.75-37.63a15.1,15.1,0,0,1,1.84-10.2c-2.71-2.66-5.54-7-8.95-16.55,1.62,10,1.15,15.16,0,18.78a15.92,15.92,0,0,1,6.55,8.1Z"/><path class="e" d="M465.15,207.58c4.36,25.55-8,40.67-27.43,44-20,3.41-41.53-7.42-46.51-36.57l-4.36-25.55c-3.41-20,9.52-35.18,25.87-38,26.69-4.56,45.5,15.51,48.25,31.61Zm-18-28.7c-3-16.61-16.59-28.12-34.06-25.13s-26.47,19.31-23.79,35l4.2,25.44c3,18.12,16.73,28.09,34.2,25.11s26.63-19.2,23.63-35.95Zm-39.57,18.4c-1.3-.87-4.09-.4-6.71,1.15a25,25,0,0,0,5.44,5.78,38.19,38.19,0,0,0,1.21,22.25,151.51,151.51,0,0,1-10.29-20.7,34.76,34.76,0,0,0,3.22-7.26c-2.84-.61-5.77-.11-6.85,1.17l-1.93-11.31c-2.32-13.57,4.75-29.43,21.8-32.35s28.84,9.73,31.16,23.3l1.93,11.31c-1.44-.85-4.23-.37-6.85,1.17a34.77,34.77,0,0,0,5.44,5.78,78.52,78.52,0,0,1-2.7,22.92c-.66-9.75-3.54-17.34-6.38-21.37a21.91,21.91,0,0,0,3.22-7.26c-3-.59-5.77-.11-6.71,1.15l-3.07-18c-2.2-12.91-8.24-16.26-15.37-15s-11.85,6.41-9.64,19.31Zm-6.75.88a16.34,16.34,0,0,1,2.74-10.06c-3.4-4.76-4.33-10.22-4.44-17.59a64,64,0,0,0-4.64,19.14c2.32,1.8,4.29,4.06,5.92,8.58Zm6.34-19.3c-1.27-7.45-1-15,7.4-16.47S425.76,168,427,175.48l6,35.4c1.54,9,1.44,18.52-6.81,19.92s-11.37-6.82-13-16.54Zm18.26,1.67c-.91-5.32-1.82-9-3.78-8.67-1.68.29-2.2,3.11-1,10.17l5.36,31.4c.89,5.19,2.33,11.11,3.72,10.87,2.1-.36,2.12-6.11.89-13.3Zm14.24,11c0-4.8,1.15-7.59,2.74-10.05-2.86-5.81-5.63-11.09-10.73-16.52,2.12,5.66,3.28,12.45,1.65,18.07,2.46,1.77,4.43,4,5.92,8.58Z"/><path class="e" d="M497.56,143.57l-.33-3,32-3.53,12,12,1.17,10.6L538,160.84c-2.51.55-4.45,3.62-3.65,10.86l4.23,38.24c2.21,20-9.8,30-25.87,31.79-19.44,2.15-38.13-9.51-42-44.26l-3.52-31.8c-.68-6.17-2.86-7.83-5.57-7.81l-4.6-.31-1.36-12.34,39-4.31ZM459.32,155l4.58.17c2.88.23,5,3.93,5.7,10.24l3.52,31.8c2.6,23.48,9.59,33.85,31.85,31.39,14.51-1.6,21.65-9.32,18.86-34.54L520,159.84c-.56-5.1-.28-10.29,3.46-11.25l4.43-1.17-.85-7.65-27.19,3,.85,7.65,4.44.19c4,.1,5.41,5.11,6,10.21l4,36.5c1.87,16.91-2.87,21.78-10.2,22.59-11.41,1.26-14-6.6-16.32-27.67l-3.16-28.58c-.7-6.31.56-10.38,3.32-11.23l4.43-1.17-.85-7.65-34,3.75Zm31-8.85.33,3L487,150c-2.48.82-5.15,3.69-4,13.89l2.4,21.74c-.68-1-2.94-.76-5.21.58a26,26,0,0,0,5.24,6.08c-1.62,4.66-2.49,11-.4,22.18-4.49-10.91-7-16.88-8.9-21.16a21.9,21.9,0,0,0,3.64-7.06c-2.37-.82-4.63-.58-5.21.58l-2.4-21.74c-1.13-10.2-4.37-12.42-7-12.68l-3.72-.13-.33-3ZM480.14,186c.33-4.79,1.59-7.51,3.47-9.89-2.47-3-4.55-7.65-6.65-17.6.13,10.17-.89,15.17-2.65,18.63,2.35,1.91,4.18,4.29,5.41,8.91Zm22.26,13c1.56,14.09,4.24,15.15,7.62,14.78,2.25-.25,3.77-5.85,2.6-16.45L508.84,163l-5.06.69c-3.73,1.09-4.77,4.6-4.06,11Zm22.54-56.68.33,3-2.19.79c-5.93,1.88-6.39,6.68-5.58,14.06l2.4,21.74a2.84,2.84,0,0,0-3.95.44l-2.4-21.74c-.82-7.38-2.59-11.8-8.65-12.49l-1.89-.33-.33-3Z"/><path class="e" d="M543.7,161.39c-.91-16.45,11.72-26.75,27.42-27.62a49.38,49.38,0,0,1,11,.61c2.87.52,4.89,1.08,6.3,1a4.15,4.15,0,0,0,3.14-2.2l10.47-.58,11.22,12.9,1.57,28.31-9.34.52L592.1,163.7c-1.46-5.87-4.2-11.67-10-11.34-5.09.28-7.34,3.25-7.12,7.29.19,3.5,1.6,5.73,11.25,8.3,20.32,5.49,32.62,17.39,33.75,37.74a27.94,27.94,0,0,1-26.17,29.85c-5.94.33-11.68-.7-14.62-2.43-2.35-1.36-4.82-2.44-6.66-2.33s-3.05,3.82-3.82,5.35l-12.31.69-10.13-11.2-1.85-33.29,12.45-.69a73,73,0,0,0,9.23,12.74c2.87,3.09,7.44,6.08,12.81,5.78,3-.17,7-2,6.79-5.52-.28-5-12.16-6.76-18-9.41C557.53,190.5,544.72,179.72,543.7,161.39Zm18-5.33c-.29-5.26,3.06-11.26,11-11.7,6.09-.34,13.27,3.72,16,6.68a26.7,26.7,0,0,1,5.39,10.11l6.93-.39-1.41-25.34-6.94.39c-.94,1-2,2.14-3.71,2.23a23.46,23.46,0,0,1-6.59-1,45.19,45.19,0,0,0-11.84-1c-14,.78-25,10.31-24.19,24.6.75,13.48,6.26,20.75,19.29,25.16l11.28,3.7c4.78,1.63,12.46,4.45,12.88,12.13A10.32,10.32,0,0,1,580,212.5c-9.62.54-16.95-3.52-20.79-8.71a26.11,26.11,0,0,1-4.94-9.73l-7.08.39,1.61,29,7.08-.39c1.14-2.5,2.55-5.28,4.81-5.41s4.88.95,8.22,2.25a31.72,31.72,0,0,0,13.48,2.5c14.44-.8,24.91-11.66,24.06-26.89-.9-16.18-9.51-23-28.34-27.22C567.23,165.89,562,163.75,561.72,156.06ZM594,176.84c-4.59-.83-7.28-.68-9.77.54a14.71,14.71,0,0,0-9.62.54c8.16,1.17,14.59,1.89,18.77,3.15,5,6.48,6.58,13.7,3.35,24.42-.85-10.23-6.08-17.51-11.25-18.57-1.16-2.91-3.32-6.17-11.43-9a12.71,12.71,0,0,0-8.92.5c-3-.91-5.15-.79-6.94.39-6.65-4.63-8.79-10.06-9.25-18.28-.71-12.81,9.45-21.48,21.48-22.15a39.4,39.4,0,0,1,9.53.42c2.88.65,6.62,1.66,9.45,1.5a5.8,5.8,0,0,0,4.27-2.27l3.68-.2,1.15,20.76-2.69.15c-2.35-9.06-12.18-17.31-23.22-16.69-10.19.57-13.62,7.79-13.29,13.72.4,7.14,3.46,11.17,12.53,13.5S589.23,173.46,594,176.84Zm-19.4.81c-9.3-3.81-13.47-7.36-13.63-12.76-3.81-2.22-5.74-6.17-6-13.73-1.7,5.23-2.92,11.38-2.49,16.5,4.1,4.77,10.23,7.81,21.57,10Z"/><path class="e" d="M622.32,145.51l-4.54-.78-.08-12.42,60.25-.39,11.15,13.7.21,31.86-14.88.1-9.57-11.82,0-4.72c0-2.83-.74-4.45-3-4.44s-3.53,2.18-3.37,4.75l.16,3.37,12.58,15.71,0,6.07,7.09,0,11.15,14,.21,32.67-62.23.4-9.15-11.28-.08-12.42,5.52-.85c2.69-.56,3.66-4.34,3.63-9.07l-.3-46C627,147.64,625,145.76,622.32,145.51Zm37.36,33.91-.06-9.58-14,.09-.11-17.55c0-6.21,2.07-9.46,9.3-9.51,6.66,0,12.37,5.19,12.43,15.31l0,5.67,8.93-.06L676,134.36l-55.71.36,0,7.69,4.54.65c2.84.52,4.57,4.43,4.61,10.77l.3,46.71c0,6.21-1.07,10.27-4.47,10.83l-4.53.7,0,7.69,55.71-.36-.2-30.51-8.93.06,0,6.61c.05,8.37-2.31,15.27-12.23,15.33-7.23,0-9.38-3.85-9.42-9.25l-.14-22.14Zm13.9-42.75.16,24.84-4,0,0-3.37c-.09-14-8.62-17.63-15-17.59-9.5.06-11.87,6-11.83,11.82l.13,20,14.18-.09,0,3.24a15.12,15.12,0,0,0-9.78.2,14.72,14.72,0,0,0-9.64-.07,23.83,23.83,0,0,0,4.58,6.59c-2.1,4.47-3.62,10.69-4.54,22.17-1.07-11.47-2.67-17.67-4.82-22.11a20.41,20.41,0,0,0,4.35-6.64c-2-1.07-4-1.05-5.25,0L632,153.81C632,143.55,629,141,626.4,140.48l-3.69-.52,0-3Zm-35.76,38.84c.82-4.73,2.36-7.44,4.33-9.48-2-3.23-3.6-8.08-4.65-18.2-.93,10.13-2.46,15-4.56,18.25,2.14,2,3.72,4.7,4.46,9.42Zm20.87,26.87c0,2.16.59,4.18,2,4.17,1.7,0,4.37-3.27,4.32-11.23v-2.16l-6.38,0Z"/><path class="f" d="M438.65,67.26l1.76,15.62,7.08-.8a4.65,4.65,0,0,0,3.12-1.71,4.46,4.46,0,0,0,.92-3.42l-.05-.48.54-.06,1.39,12.4-.54.06,0-.43a4.48,4.48,0,0,0-5-4.11l-7.19.81,1.52,13.47a3.23,3.23,0,0,0,1.29,2.27,3.36,3.36,0,0,0,2.53.72l.64-.07.11.53-16.31,1.83-.06-.54.7-.08a3.28,3.28,0,0,0,2.28-1.26,3.48,3.48,0,0,0,.78-2.51l-3.36-29.89A3,3,0,0,0,428.68,67a3.32,3.32,0,0,0-1.71-.24l-.7.08-.06-.54L446.77,64a23,23,0,0,0,3.61-.73,15,15,0,0,0,2.72-1l1,9.07-.54.06-.06-.54a5.26,5.26,0,0,0-1.79-3.63,5.14,5.14,0,0,0-3.9-1.06Z"/><path class="f" d="M471.51,69.19l-1.72.16L472.24,96a2.63,2.63,0,0,0,1.08,2,3,3,0,0,0,2.09.59l.59-.05,0,.54-14.79,1.36,0-.54.65-.06a2.81,2.81,0,0,0,1.94-1,2.67,2.67,0,0,0,.65-2.07l-2.35-25.6a2.67,2.67,0,0,0-1-1.91,2.74,2.74,0,0,0-2-.63l-.7.06,0-.54,16.51-1.51a16.17,16.17,0,0,1,8.29,1.14q3.85,1.76,4.29,6.6A9.15,9.15,0,0,1,486,80.19a8.13,8.13,0,0,1-5.31,3.55,8,8,0,0,1,3,1.56,13.72,13.72,0,0,1,2.54,2.53,54.31,54.31,0,0,0,4.12,5.29,14.25,14.25,0,0,0,3.34,3,5.08,5.08,0,0,0,2.89.49l0,.54-4.52.41a17.33,17.33,0,0,1-7-.45,10.18,10.18,0,0,1-4.65-3.69,29,29,0,0,1-4.27-7,6.5,6.5,0,0,0-1.75-2.28,3.26,3.26,0,0,0-1.78-.76l0-.43,1.34-.12q4.57-.47,5.1-5.89a5.58,5.58,0,0,0,.09-1.42q-.05-.59-.2-1.64a6.5,6.5,0,0,0-.89-2.3,4.3,4.3,0,0,0-1.76-1.76,7,7,0,0,0-3.54-.76Q472.26,69.12,471.51,69.19Z"/><path class="f" d="M496.05,96.8l.65,0a3.17,3.17,0,0,0,2.14-1,2.64,2.64,0,0,0,.76-2.09l-1.93-25.52a2.65,2.65,0,0,0-1.07-1.95,3.17,3.17,0,0,0-2.27-.67l-.65,0,0-.54,15.29-1.16,0,.54-.65,0a3.16,3.16,0,0,0-2.09,1,2.73,2.73,0,0,0-.82,2.07l1.94,25.58a2.78,2.78,0,0,0,1.12,2,3.16,3.16,0,0,0,2.21.64l.65,0,0,.54-15.29,1.16Z"/><path class="f" d="M544.66,65.94q5.16,4,5.61,11.6t-4.2,12.18q-4.65,4.58-13.33,5.09l-18.22,1.08,0-.54.7,0a2.87,2.87,0,0,0,2.05-1,3,3,0,0,0,.79-2.1l-1.52-25.55a3,3,0,0,0-1.09-1.94,3,3,0,0,0-2.15-.68l-.65,0,0-.54,18.22-1.08Q539.5,61.95,544.66,65.94ZM532,92.69a9.67,9.67,0,0,0,7.78-4.19q2.72-3.89,2.33-10.47t-3.55-10.15a9.65,9.65,0,0,0-8.23-3.27l-6.09.36L525.87,93Z"/><path class="f" d="M588.29,91.7l.43,0,0,.54-15.86.63,0-.54.43,0a1.83,1.83,0,0,0,1.54-.71,2,2,0,0,0,.44-1.21,3.33,3.33,0,0,0-.26-1.12l-2.3-4.88-11.44.45-2,5.1a3,3,0,0,0-.17,1.11,1.9,1.9,0,0,0,.56,1.17,1.94,1.94,0,0,0,1.62.56l.43,0,0,.54L551,93.72l0-.54.43,0a4.28,4.28,0,0,0,2.24-.79,5,5,0,0,0,1.75-2.18l10.22-24.4q2.16-5.44,2.22-6.68l.49,0L584,88.84a5,5,0,0,0,2,2.22A4.38,4.38,0,0,0,588.29,91.7Zm-26.19-9,9.6-.38-5.2-11.09Z"/><path class="f" d="M618.18,59.7l-.7,0a5.14,5.14,0,0,0-2.65.82,6.8,6.8,0,0,0-2,1.94l-9.25,15,.27,11a2.91,2.91,0,0,0,1,2,3,3,0,0,0,2.18.78h.59v.54l-15.12.37v-.54l.65,0a3,3,0,0,0,3-2.93l-.27-11-9.91-14.56a5.77,5.77,0,0,0-2.07-1.87A5.39,5.39,0,0,0,581,60.6l-.65,0v-.54l16.41-.4v.54h-.59a1.67,1.67,0,0,0-1.47.71,2.16,2.16,0,0,0-.43,1.15,1.65,1.65,0,0,0,.24.83L602,75.16l7-12.59a2.09,2.09,0,0,0,.14-.84,2.17,2.17,0,0,0-.49-1.12,1.67,1.67,0,0,0-1.5-.64h-.54v-.54l11.55-.28Z"/><path class="f" d="M648.2,90.88h1.13v.54L633,91.47v-.54h1.13a3,3,0,0,0,2.13-.87,2.76,2.76,0,0,0,.88-2.06l-.1-27.81q0-3.29-3.2-3.28h-1.35v-.54q8.37-.73,12-3.5h.54L645.22,88a2.72,2.72,0,0,0,.87,2A2.91,2.91,0,0,0,648.2,90.88Z"/><path class="f" d="M669.28,71.34a5.18,5.18,0,0,0-3.74,1.47l-.37-.44a8.68,8.68,0,0,1,4.52-3.57,9.37,9.37,0,0,1,3.3-.61,13.27,13.27,0,0,1,2.89.33,8.43,8.43,0,0,1,2.66,1.19q4.61,3.07,4.54,9.93a12.42,12.42,0,0,1-3.71,9q-3.82,3.74-10.7,3.67T658,88q-3.79-4.28-3.71-12.54.11-10.74,6.12-17.33a17.65,17.65,0,0,1,7.28-4.73,27.06,27.06,0,0,1,9.3-1.47c.54,0,1.1,0,1.67.07l.21.38q-7.58,2.3-11.3,6.69-3.17,3.8-4,10.44-.3,2.75-.34,6.58-.07,6.91,1.14,10.27a4.82,4.82,0,0,0,8,2q2.35-2.41,2.4-8,.08-8.26-4.39-8.9A5.55,5.55,0,0,0,669.28,71.34Z"/><path class="f" d="M704.24,59.79V59.5a3,3,0,0,0-.71-2.16,2.89,2.89,0,0,0-2.09-.87l-3.65-.09-.37,15.71a1.64,1.64,0,0,0,.51,1.18,1.69,1.69,0,0,0,1.18.5h.35v.31l-8.69-.2v-.31h.31a1.73,1.73,0,0,0,1.24-.44,1.57,1.57,0,0,0,.53-1.18l.37-15.67-3.62-.08a2.93,2.93,0,0,0-2.16.77,3,3,0,0,0-.8,2.12v.28h-.32l.12-5a8.74,8.74,0,0,0,1.46.35,12.19,12.19,0,0,0,1.84.2l11.61.27a10.5,10.5,0,0,0,2.29-.15,8.18,8.18,0,0,0,1-.24l-.12,5Z"/><path class="f" d="M727.13,74.66h.35V75l-8.65-.3v-.31h.31a1.73,1.73,0,0,0,1.24-.43,1.57,1.57,0,0,0,.54-1.18l.23-6.8-8.27-.28-.23,6.8a1.72,1.72,0,0,0,1.67,1.73h.35v.31l-8.68-.3v-.31h.35a1.7,1.7,0,0,0,1.24-.45,1.58,1.58,0,0,0,.54-1.16l.51-14.91a1.59,1.59,0,0,0-.46-1.2A1.7,1.7,0,0,0,707,55.7h-.35v-.31l8.68.3V56h-.35a1.69,1.69,0,0,0-1.21.43,1.64,1.64,0,0,0-.57,1.15l-.24,6.89,8.27.28.23-6.86a1.55,1.55,0,0,0-.8-1.48,1.83,1.83,0,0,0-.87-.25h-.31v-.31l8.65.3v.31h-.35A1.72,1.72,0,0,0,726,58L725.45,73a1.55,1.55,0,0,0,.8,1.44A1.83,1.83,0,0,0,727.13,74.66Z"/><path class="f" d="M761.28,57.32a3.28,3.28,0,0,0-3.05,1.52,3.13,3.13,0,0,0-.58,1.7L756,92.73a11.94,11.94,0,0,1-2.41,6.74,11.74,11.74,0,0,1-5.24,4.05,14.75,14.75,0,0,1-6,1q-.7,0-1.4-.13l0-.49a8.92,8.92,0,0,0,5-4.41,17.44,17.44,0,0,0,1.93-7.33l1.68-32A3.32,3.32,0,0,0,748,57.06a3.63,3.63,0,0,0-1.7-.52l-.7,0,0-.54,16.39.86,0,.54Z"/><path class="f" d="M800.85,65.33l-.75-.05a2.52,2.52,0,0,0-1.77.5,2.2,2.2,0,0,0-.86,1.54l-1.22,17.83q-.4,5.82-4.18,8.89t-10.81,2.59q-7-.48-10.72-4t-3.28-9.37l1.22-17.89a2.08,2.08,0,0,0-.62-1.67,2.56,2.56,0,0,0-1.71-.77l-.75-.05,0-.54,14.17,1,0,.54-.75-.05a2.45,2.45,0,0,0-1.77.53,2.11,2.11,0,0,0-.81,1.57L775,83.43q-.34,5,1.76,7.91A7.86,7.86,0,0,0,783,94.58a8.42,8.42,0,0,0,6.73-2.19,10.53,10.53,0,0,0,2.9-7.16l1.24-18.1a2.27,2.27,0,0,0-.64-1.69,2.52,2.52,0,0,0-1.68-.74l-.7,0,0-.54,10,.68Z"/><path class="f" d="M827.84,67.19,843,68.57l0,.54L842,69a3,3,0,0,0-2.14.56,2.67,2.67,0,0,0-1.06,1.86l-2.14,23.5a28.93,28.93,0,0,0-.07,5.52l0,.76-.48,0-22.7-24L811.81,95a2.76,2.76,0,0,0,.71,2,2.92,2.92,0,0,0,2,1l.91.08,0,.54-15.06-1.37,0-.54.86.08a3,3,0,0,0,2.17-.59,2.55,2.55,0,0,0,1-1.88l2.15-23.66a27.4,27.4,0,0,0,.05-5.36l0-.76.48.1,22.66,23.91,1.61-17.69a2.59,2.59,0,0,0-.65-2,2.93,2.93,0,0,0-2-1l-.91-.08Z"/><path class="f" d="M868,104l-25.27-2.87.06-.54.64.07a2.91,2.91,0,0,0,3.27-2.46l2.9-25.54a2.91,2.91,0,0,0-2.63-3.12l-.64-.07.06-.54,18.89,2.14a20.73,20.73,0,0,0,3.2.09,13.3,13.3,0,0,0,2.47-.26l-1,8.53-.54-.06.05-.48a5.16,5.16,0,0,0-.87-3.85,5,5,0,0,0-3.44-1.8l-7.73-.88-1.48,13,6.12.69a4.09,4.09,0,0,0,3.09-.9,4.2,4.2,0,0,0,1.47-2.88l0-.38.54.06-1.29,11.38-.54-.06,0-.38A4,4,0,0,0,864,89.13a4.07,4.07,0,0,0-2.08-.83l-6.17-.7-1.44,12.72,6.44.73a8.65,8.65,0,0,0,5.89-1.42,11.63,11.63,0,0,0,4-5.27l.48.05Z"/><path class="g" d="M887,92.81c30.36,4.36,59.41,9.53,86.61,15.51"/><path class="g" d="M337.44,104c24.1-4.75,49.47-8.86,75.76-12.34"/><line class="g" x1="337.44" y1="104.02" x2="329.3" y2="115.38"/><line class="g" x1="325.65" y1="97.86" x2="337.44" y2="104.02"/><polyline class="g" points="966.62 97.87 973.68 109.14 962.8 115.19"/></svg>