<svg xmlns="http://www.w3.org/2000/svg" viewBox="0 0 1920 600"><defs><style>.a{fill:#171e26;}.b{fill:#1d2533;}</style></defs><title>skyline</title><polygon class="a" points="0 290.68 107.91 290.68 107.91 264.9 157.32 197.23 177.73 272.42 192.77 278.87 352.82 95.19 361.42 56.52 367.86 94.11 389.34 127.41 522.54 214.42 522.54 166.08 556.91 35.03 577.37 170.31 577.32 245.57 652.51 290.68 658.52 281.01 756.15 416.49 789.7 416.49 789.7 382.3 781.95 376.5 863.24 282.95 878.96 304.47 914.17 292.74 914.17 262.22 960 263.4 960 285.7 969.33 297.43 969.33 275.13 976.79 264.91 986.1 277.8 986.1 305 1027.62 305 1027.62 282.81 1034.07 273.5 1040.51 281.38 1040.51 304.29 1316.14 301.42 1316.14 242.72 1328.31 219.09 1341.19 229.83 1341.19 193.32 1356.23 168.98 1368.4 184.73 1368.4 234.84 1398.47 234.84 1474.35 138.91 1481.51 148.93 1523.03 98.1 1576.01 155.38 1609.66 171.84 1598.92 181.87 1681.97 268.49 1697.72 274.93 1697.72 300.71 1737.81 278.51 1762.87 293.55 1767.16 282.09 1795.8 281.38 1795.8 241.29 1818.71 225.76 1830.16 234.84 1830.16 248.44 1865.24 249.16 1920 222.67 1920 600 0 600 0 290.68"/><circle class="b" cx="340" cy="279.12" r="12.39"/><path class="b" d="M346.72,263.6s19.68-18,10-21.55S346.72,263.6,346.72,263.6Z"/><path class="b" d="M369.45,250.64C361.77,243.74,352.2,267,352.2,267s24.92-9.43,17.24-16.33"/><path class="b" d="M354.8,273.16s26.65.12,22-9.07S354.8,273.16,354.8,273.16Z"/><path class="b" d="M379.43,277.71c-1.65-10.19-23.67,1.91-23.67,1.91s25.33,8.28,23.67-1.91"/><path class="b" d="M354.85,285.27s19.59,18.06,22.32,8.11S354.85,285.27,354.85,285.27Z"/><path class="b" d="M370,307.1c6.05-8.36-18.06-15.42-18.06-15.42s12,23.79,18.06,15.42"/><path class="b" d="M346.46,294.37s-.51,26.64,8.75,22.08S346.46,294.37,346.46,294.37Z"/><path class="b" d="M338.49,319.28c10.32-.29,1.24-23.72,1.24-23.72s-11.56,24-1.24,23.72"/><path class="b" d="M333.24,294s-21.6,15.6-12.39,20.26S333.24,294,333.24,294Z"/><path class="b" d="M307.84,305.08C315,312.5,326.17,290,326.17,290s-25.51,7.69-18.33,15.1"/><path class="b" d="M324,283.63s-26.57-2-22.53,7.53S324,283.63,324,283.63Z"/><path class="b" d="M299.71,275.81c.41,10.32,23.73,1,23.73,1s-24.14-11.28-23.73-1"/><path class="b" d="M324.57,271.06s-17.36-20.21-21.23-10.64S324.57,271.06,324.57,271.06Z"/><path class="b" d="M312.71,248.16c-7.13,7.47,15.8,17.73,15.8,17.73s-8.67-25.2-15.8-17.73"/><path class="b" d="M333.49,263s3-26.48-6.65-22.8S333.49,263,333.49,263Z"/><path class="b" d="M341.25,238.57c-10.3.77-.13,23.75-.13,23.75s10.42-24.52.13-23.75"/></svg>