<svg xmlns="http://www.w3.org/2000/svg" xmlns:xlink="http://www.w3.org/1999/xlink" viewBox="0 0 500 400"><defs><style>.a{fill:#f6d092;}.b{fill:#a8766c;}.c{fill:#686868;}.d{fill:url(#a);}.e{fill:url(#b);}.f{fill:#d6d6d6;}.g{fill:url(#c);}.h{fill:#afafaf;}.i{fill:#c4c4c4;}.j{fill:#bcbcbc;}.k{fill:#777;}.l{fill:#ffc697;}.m{fill:#efefef;}.n{fill:#e09d8d;}.o{fill:#444;}.p{fill:#f2a900;}</style><linearGradient id="a" x1="409.82" y1="379.93" x2="409.82" y2="91.37" gradientUnits="userSpaceOnUse"><stop offset="0" stop-color="#999"/><stop offset="0.61" stop-color="#a8a8a8"/><stop offset="0.73" stop-color="#ccc"/><stop offset="0.8" stop-color="#adadad"/><stop offset="1" stop-color="#b3b3b3"/></linearGradient><linearGradient id="b" x1="204.35" y1="400" x2="204.35" y2="70.38" gradientUnits="userSpaceOnUse"><stop offset="0" stop-color="#ccc"/><stop offset="1" stop-color="#e6e6e6"/></linearGradient><linearGradient id="c" x1="482.8" y1="337.58" x2="482.8" y2="136.52" gradientUnits="userSpaceOnUse"><stop offset="0.01" stop-color="#4d4d4d"/><stop offset="0.02" stop-color="#333"/><stop offset="0.04" stop-color="#333"/><stop offset="0.05" stop-color="#505050"/><stop offset="0.12" stop-color="#525252"/><stop offset="0.13" stop-color="#333"/><stop offset="0.2" stop-color="#333"/><stop offset="0.21" stop-color="#555"/><stop offset="0.31" stop-color="#5b5b5b"/><stop offset="0.33" stop-color="#333"/><stop offset="0.42" stop-color="#333"/><stop offset="0.43" stop-color="#616161"/><stop offset="0.55" stop-color="#676767"/><stop offset="0.56" stop-color="#4d4d4d"/><stop offset="0.65" stop-color="#4d4d4d"/><stop offset="0.66" stop-color="#6d6d6d"/><stop offset="0.76" stop-color="#747474"/><stop offset="0.77" stop-color="#4d4d4d"/><stop offset="0.85" stop-color="#4d4d4d"/><stop offset="0.86" stop-color="#7a7a7a"/><stop offset="0.94" stop-color="#7d7d7d"/><stop offset="0.95" stop-color="#4d4d4d"/><stop offset="0.99" stop-color="#4d4d4d"/><stop offset="1" stop-color="gray"/></linearGradient></defs><title>ticket_machine</title><path class="a" d="M1920-50c-32.76,0-46.26,33-46.26,50h-39.36c0-24-14.22-50.37-48.91-50.34S1736.35-24,1736.35,0h-39c0-24-15.33-50.37-49.11-49.83S1600.45-24,1600.45,0h-39.31c0-24-14.64-50.17-49.14-49.76S1462.85-24,1462.85.77l-39.31.07c0-24.73-12.11-51-49.13-51S1325.26-24,1325.26,0h-39.31c0-24-14.57-50.37-49.14-50.21S1187.67-24,1187.67,0h-39.31c0-24-16.75-50.37-49.15-50.08S1050.12-24,1050.12,0h-39c0-24-15.11-50.37-49.19-50.34S912.93-24,912.93,0H873.7c0-24-15.85-50.37-49-50.37S775.74-24,775.74,0H736.38c0-24-15.67-50.37-48.91-50.34S638.35-24,638.35,0h-39c0-24-16-50.37-49.11-49.83S502.44-24,502.44,0H463.13c0-24-17.48-50.17-49.14-49.76S364.85-24,364.85.77L325.54.84c0-24.73-19.67-51-49.14-51S227.26-24,227.26,0H187.95c0-24-17.82-50.37-49.14-50.21S89.67-24,89.67,0H50.35c0-17-19-49.93-50.35-50V-60H1920Z"/><path class="b" d="M473.71,93.68c.27,8.58-30.31,16.07-58.45,16.48s-65.4,1.21-65.4,1.21V85.76s24.44-.77,58.26-1.37,65.74-12.69,65.6-20.48V93.68"/><path class="b" d="M30.82,300.1c5-47.66,12-83.63,34.92-115.29V159.18c-18.31,11.65-34.42,43.64-34.92,99.9Z"/><path class="c" d="M460.94,306.76s14.57,17.42,14.57,30.82V136.52c0,11.52-14.57,30.82-14.57,30.82Z"/><path class="d" d="M358.71,91.37h82.14a20.09,20.09,0,0,1,20.09,20.09V359.83a20.09,20.09,0,0,1-20.09,20.09H358.71a0,0,0,0,1,0,0V91.37A0,0,0,0,1,358.71,91.37Z"/><path class="e" d="M344,400H64.75A14.75,14.75,0,0,1,50,385.25V70.38H358.71V385.25A14.75,14.75,0,0,1,344,400Z"/><path class="f" d="M63.39.84H345.31a13.39,13.39,0,0,1,13.39,13.39V70.38a0,0,0,0,1,0,0H50a0,0,0,0,1,0,0V14.23A13.39,13.39,0,0,1,63.39.84Z"/><path class="g" d="M475.51,136.52V337.58H483a7.07,7.07,0,0,0,7.07-7.07V143.59a7.07,7.07,0,0,0-7.07-7.07Z"/><path class="h" d="M460.94,312.56s-4.78,12-28.73,25l15.56-4a342.58,342.58,0,0,1-36.25,15.81c25.66-6.68,34.2-11.08,46.51-20.29L448.29,331c9.13-7.21,12.65-12.59,12.65-12.59Z"/><path class="i" d="M410.76,141.37a226.42,226.42,0,0,0-33.8-.74c5.83.74,13.06,4.56,13.06,4.56s-5.37,5-18.77,10.54c18.19.33,43.48-2.09,43.48-2.09-9.8-1.61-12.65-3.8-12.65-3.8s1.23-1.63,14.11-3C396,144.09,398.29,144.46,410.76,141.37Z"/><rect class="j" x="138.86" y="236.23" width="128.8" height="76.24" rx="8.9" ry="8.9"/><rect class="k" x="158" y="236.23" width="88" height="13.38"/><polygon class="l" points="167.04 254.67 167.04 220.01 233.62 217.51 233.62 252.44 167.04 254.67"/><polygon class="b" points="169.29 251.18 171.53 216.27 240.6 220.26 238.61 252.44 169.29 251.18"/><path class="j" d="M158,236.23l1.94,4.77h25.95s3.85,4.21,16.11,4.21S218.18,241,218.18,241H244l2-4.77h1.77l-.7,76.24H245.8L243.91,317H161l-2.71-4.52h-1.53l.31-76.24Z"/><polygon class="m" points="159.94 241 161 317 158.29 312.48 158 236.23 159.94 241"/><rect class="j" x="69.09" y="22.47" width="201.78" height="27.7" rx="8.61" ry="8.61"/><path class="k" d="M113.82,40.84q0,.35.7.35v.35h-4.9v-.35a.88.88,0,0,0,.4-.09.28.28,0,0,0,.18-.26V33.12H105a1.63,1.63,0,0,0-.56.1.37.37,0,0,0-.27.37h-.57V30.87h.57a.37.37,0,0,0,.27.37,1.63,1.63,0,0,0,.56.1h14.12a1.63,1.63,0,0,0,.56-.1.37.37,0,0,0,.27-.37h.57v2.72h-.57a.37.37,0,0,0-.27-.37,1.63,1.63,0,0,0-.56-.1h-5.25Z"/><path class="k" d="M124.41,41.19q.83,0,.83-.35V32q0-.35-.83-.35v-.35h5.28v.35q-.83,0-.83.35v8.81q0,.35.83.35v.35h-5.28Z"/><path class="k" d="M152.78,40.14h-.35a4.21,4.21,0,0,0-.91.23q-.72.23-1.81.52a24,24,0,0,1-2.5.5,19.25,19.25,0,0,1-2.93.21,23.14,23.14,0,0,1-3.85-.31,13,13,0,0,1-3.26-1,6.39,6.39,0,0,1-2.24-1.62,3.52,3.52,0,0,1,0-4.53,6.44,6.44,0,0,1,2.24-1.64,13.23,13.23,0,0,1,3.26-1,21.88,21.88,0,0,1,3.85-.33,25.49,25.49,0,0,1,2.94.16q1.32.16,2.31.33t1.56.33a4.1,4.1,0,0,0,.7.16.4.4,0,0,0,.27-.1l.18-.15.48.23-2.48,2.35-.32-.14a.45.45,0,0,0,0-.12l0-.14q-.06-.21-.64-.44a8.94,8.94,0,0,0-1.42-.4Q147,33.12,146,33a14.24,14.24,0,0,0-1.73-.12,13.65,13.65,0,0,0-2.56.23,8.36,8.36,0,0,0-2.13.68,4.34,4.34,0,0,0-1.45,1.1,2.31,2.31,0,0,0,0,3A4.31,4.31,0,0,0,139.6,39a8.36,8.36,0,0,0,2.13.68,13.65,13.65,0,0,0,2.56.23,16.62,16.62,0,0,0,2.13-.14,19.42,19.42,0,0,0,2-.37,8.75,8.75,0,0,0,1.54-.5q.62-.28.62-.53a.29.29,0,0,0-.13-.23l.45-.15L153,40Z"/><path class="k" d="M162,40.84a.28.28,0,0,0,.19.26,1.06,1.06,0,0,0,.45.09v.35h-5v-.35q.7,0,.7-.35V32q0-.35-.7-.35v-.35h5v.35a1.06,1.06,0,0,0-.45.09A.28.28,0,0,0,162,32v3.69l6.58-3.16.7-.38c.17-.1.25-.18.25-.24a.2.2,0,0,0-.14-.19.9.9,0,0,0-.33-.06v-.35h6.68v.35a2.52,2.52,0,0,0-1.14.29l-7.31,3.55L174,40.24a7.59,7.59,0,0,0,1,.57,4,4,0,0,0,1.1.38v.35h-5.88v-.35c.28,0,.41,0,.41-.14s-.15-.21-.45-.43l-5.44-3.82L162,38.07Z"/><path class="k" d="M195.08,33.43c0-.14-.09-.25-.27-.32a2.87,2.87,0,0,0-.94-.11h-10.3v2.41h6.23a3.53,3.53,0,0,0,1-.11.51.51,0,0,0,.35-.55h.57v3h-.57a.54.54,0,0,0-.35-.57,3,3,0,0,0-1-.13h-6.23v2.68h10.62a1.91,1.91,0,0,0,.78-.14c.2-.09.3-.21.3-.37h.57v2.66h-.57a.3.3,0,0,0-.3-.33,6.09,6.09,0,0,0-.78,0H179.37v-.35a.88.88,0,0,0,.4-.09.28.28,0,0,0,.18-.26V32a.28.28,0,0,0-.18-.26.88.88,0,0,0-.4-.09v-.35h14.5a2.44,2.44,0,0,0,.94-.13c.18-.08.27-.2.27-.34h.57v2.56Z"/><path class="k" d="M209.39,40.84q0,.35.7.35v.35h-4.9v-.35a.88.88,0,0,0,.4-.09.28.28,0,0,0,.18-.26V33.12h-5.25a1.63,1.63,0,0,0-.56.1.37.37,0,0,0-.27.37h-.57V30.87h.57a.37.37,0,0,0,.27.37,1.63,1.63,0,0,0,.56.1h14.12a1.63,1.63,0,0,0,.56-.1.37.37,0,0,0,.27-.37H216v2.72h-.57a.37.37,0,0,0-.27-.37,1.63,1.63,0,0,0-.56-.1h-5.25Z"/><path class="k" d="M221.32,38.34l.32.1a.44.44,0,0,0,.13.31,2.3,2.3,0,0,0,.87.46,12.71,12.71,0,0,0,1.5.4q.84.17,1.77.28a14.4,14.4,0,0,0,1.65.11q.54,0,1.4,0a13,13,0,0,0,1.69-.2,6.39,6.39,0,0,0,1.43-.43q.6-.27.6-.72t-.56-.66a5.9,5.9,0,0,0-1.46-.31q-.91-.1-2.07-.13l-2.37-.09q-1.21-.06-2.37-.19a9.52,9.52,0,0,1-2.07-.46,3.87,3.87,0,0,1-1.46-.87,2,2,0,0,1-.56-1.45,1.89,1.89,0,0,1,.46-1.18,3.84,3.84,0,0,1,1.42-1,10.44,10.44,0,0,1,2.42-.73,18.45,18.45,0,0,1,3.43-.28,24,24,0,0,1,2.93.16q1.24.16,2.15.33t1.53.33a4.38,4.38,0,0,0,1,.16,1.29,1.29,0,0,0,.64-.12l.38.16-2.19,2.43-.32-.08a.85.85,0,0,0-.25-.45,2.71,2.71,0,0,0-.84-.46,9.93,9.93,0,0,0-1.38-.4q-.8-.17-1.72-.28a16.23,16.23,0,0,0-1.85-.11q-.7,0-1.45.07a10.64,10.64,0,0,0-1.35.2,3.71,3.71,0,0,0-1,.36.64.64,0,0,0-.4.55.76.76,0,0,0,.56.7,5.86,5.86,0,0,0,1.46.35q.91.12,2.07.15l2.37.1q1.21.06,2.37.2a9.85,9.85,0,0,1,2.07.47,3.91,3.91,0,0,1,1.46.86,1.89,1.89,0,0,1,.56,1.42,2,2,0,0,1-.87,1.65,6.78,6.78,0,0,1-2.18,1,14.83,14.83,0,0,1-2.81.5q-1.51.13-2.81.13-1.81,0-3-.13a17.41,17.41,0,0,1-2-.31c-.54-.12-1-.23-1.29-.33a2.88,2.88,0,0,0-.83-.15.64.64,0,0,0-.41.16l-.45-.16Z"/><path class="m" d="M114.81,41.7q0,.35.7.35v.35h-4.9v-.35A.88.88,0,0,0,111,42a.28.28,0,0,0,.18-.26V34h-5.25a1.63,1.63,0,0,0-.56.1.37.37,0,0,0-.27.37h-.57V31.73h.57a.37.37,0,0,0,.27.37,1.63,1.63,0,0,0,.56.1h14.12a1.63,1.63,0,0,0,.56-.1.37.37,0,0,0,.27-.37h.57v2.72h-.57a.37.37,0,0,0-.27-.37,1.63,1.63,0,0,0-.56-.1h-5.25Z"/><path class="m" d="M125.4,42.05q.83,0,.83-.35V32.9q0-.35-.83-.35V32.2h5.28v.35q-.83,0-.83.35V41.7q0,.35.83.35v.35H125.4Z"/><path class="m" d="M153.77,41h-.35a4.21,4.21,0,0,0-.91.23q-.72.23-1.81.52a24,24,0,0,1-2.5.5,19.25,19.25,0,0,1-2.93.21,23.14,23.14,0,0,1-3.85-.31,13,13,0,0,1-3.26-1,6.39,6.39,0,0,1-2.24-1.62,3.52,3.52,0,0,1,0-4.53,6.44,6.44,0,0,1,2.24-1.64,13.23,13.23,0,0,1,3.26-1,21.88,21.88,0,0,1,3.85-.33,25.49,25.49,0,0,1,2.94.16q1.32.16,2.31.33t1.56.33a4.1,4.1,0,0,0,.7.16A.4.4,0,0,0,153,33l.18-.15.48.23-2.48,2.35-.32-.14a.45.45,0,0,0,0-.12l0-.14q-.06-.21-.64-.44a8.94,8.94,0,0,0-1.42-.4q-.84-.17-1.78-.29a14.24,14.24,0,0,0-1.73-.12,13.65,13.65,0,0,0-2.56.23,8.36,8.36,0,0,0-2.13.68,4.34,4.34,0,0,0-1.45,1.1,2.31,2.31,0,0,0,0,3,4.31,4.31,0,0,0,1.45,1.1,8.36,8.36,0,0,0,2.13.68,13.65,13.65,0,0,0,2.56.23,16.62,16.62,0,0,0,2.13-.14,19.42,19.42,0,0,0,2-.37,8.75,8.75,0,0,0,1.54-.5q.62-.28.62-.53a.29.29,0,0,0-.13-.23l.45-.15,2.1,2.06Z"/><path class="m" d="M163,41.7a.28.28,0,0,0,.19.26,1.06,1.06,0,0,0,.45.09v.35h-5v-.35q.7,0,.7-.35V32.9q0-.35-.7-.35V32.2h5v.35a1.06,1.06,0,0,0-.45.09.28.28,0,0,0-.19.26v3.69l6.58-3.16.7-.38c.17-.1.25-.18.25-.24a.2.2,0,0,0-.14-.19.9.9,0,0,0-.33-.06V32.2h6.68v.35a2.52,2.52,0,0,0-1.14.29l-7.31,3.55L175,41.1a7.59,7.59,0,0,0,1,.57,4,4,0,0,0,1.1.38v.35h-5.88v-.35c.28,0,.41,0,.41-.14s-.15-.21-.45-.43l-5.44-3.82L163,38.93Z"/><path class="m" d="M196.06,34.29c0-.14-.09-.25-.27-.32a2.87,2.87,0,0,0-.94-.11h-10.3v2.41h6.23a3.53,3.53,0,0,0,1-.11.51.51,0,0,0,.35-.55h.57v3h-.57a.54.54,0,0,0-.35-.57,3,3,0,0,0-1-.13h-6.23v2.68h10.62a1.91,1.91,0,0,0,.78-.14c.2-.09.3-.21.3-.37h.57v2.66h-.57a.3.3,0,0,0-.3-.33,6.09,6.09,0,0,0-.78,0H180.35v-.35a.88.88,0,0,0,.4-.09.28.28,0,0,0,.18-.26V32.9a.28.28,0,0,0-.18-.26.88.88,0,0,0-.4-.09V32.2h14.5a2.44,2.44,0,0,0,.94-.13c.18-.08.27-.2.27-.34h.57v2.56Z"/><path class="m" d="M210.37,41.7q0,.35.7.35v.35h-4.9v-.35a.88.88,0,0,0,.4-.09.28.28,0,0,0,.18-.26V34H201.5a1.63,1.63,0,0,0-.56.1.37.37,0,0,0-.27.37h-.57V31.73h.57a.37.37,0,0,0,.27.37,1.63,1.63,0,0,0,.56.1h14.12a1.63,1.63,0,0,0,.56-.1.37.37,0,0,0,.27-.37H217v2.72h-.57a.37.37,0,0,0-.27-.37,1.63,1.63,0,0,0-.56-.1h-5.25Z"/><path class="m" d="M222.3,39.2l.32.1a.44.44,0,0,0,.13.31,2.3,2.3,0,0,0,.87.46,12.71,12.71,0,0,0,1.5.4q.84.17,1.77.28a14.4,14.4,0,0,0,1.65.11q.54,0,1.4,0a13,13,0,0,0,1.69-.2,6.39,6.39,0,0,0,1.43-.43q.6-.27.6-.72t-.56-.66a5.9,5.9,0,0,0-1.46-.31q-.91-.1-2.07-.13l-2.37-.09q-1.21-.06-2.37-.19a9.52,9.52,0,0,1-2.07-.46,3.87,3.87,0,0,1-1.46-.87,2,2,0,0,1-.56-1.45,1.89,1.89,0,0,1,.46-1.18,3.84,3.84,0,0,1,1.42-1,10.44,10.44,0,0,1,2.42-.73,18.45,18.45,0,0,1,3.43-.28,24,24,0,0,1,2.93.16q1.24.16,2.15.33t1.53.33a4.38,4.38,0,0,0,1,.16,1.29,1.29,0,0,0,.64-.12l.38.16-2.19,2.43-.32-.08a.85.85,0,0,0-.25-.45,2.71,2.71,0,0,0-.84-.46,9.93,9.93,0,0,0-1.38-.4q-.8-.17-1.72-.28a16.23,16.23,0,0,0-1.85-.11q-.7,0-1.45.07a10.64,10.64,0,0,0-1.35.2,3.71,3.71,0,0,0-1,.36.64.64,0,0,0-.4.55.76.76,0,0,0,.56.7,5.86,5.86,0,0,0,1.46.35q.91.12,2.07.15l2.37.1q1.21.06,2.37.2a9.85,9.85,0,0,1,2.07.47,3.91,3.91,0,0,1,1.46.86,1.89,1.89,0,0,1,.56,1.42,2,2,0,0,1-.87,1.65,6.78,6.78,0,0,1-2.18,1,14.83,14.83,0,0,1-2.81.5q-1.51.13-2.81.13-1.81,0-3-.13a17.41,17.41,0,0,1-2-.31c-.54-.12-1-.23-1.29-.33a2.88,2.88,0,0,0-.83-.15.64.64,0,0,0-.41.16l-.45-.16Z"/><circle class="f" cx="82.74" cy="37.57" r="5.2"/><circle class="k" cx="82.11" cy="36.94" r="4.57"/><polygon class="f" points="78.51 38.34 81.09 36.7 80.52 33.84 82.11 36.35 85.27 35.3 82.64 37.03 83.77 39.88 81.58 37.64 78.51 38.34"/><circle class="f" cx="258.77" cy="37.3" r="5.2"/><circle class="k" cx="258.14" cy="36.67" r="4.57"/><polygon class="f" points="256.93 40.01 257.65 37.04 255.25 35.37 258.14 36.08 259.68 33.13 258.99 36.2 261.78 37.47 258.65 37.37 256.93 40.01"/><rect class="j" x="294" y="26.69" width="52" height="17.86" rx="3.99" ry="3.99"/><rect class="k" x="310.6" y="26.69" width="19.81" height="3.93"/><path class="m" d="M350.75,41.56A17.15,17.15,0,1,1,333.6,24.41,17.15,17.15,0,0,1,350.75,41.56ZM333.6,27.11a14.45,14.45,0,1,0,14.45,14.45A14.45,14.45,0,0,0,333.6,27.11Z"/><polygon class="j" points="311.51 29.84 329.3 29.84 330.41 26.68 330.41 44.54 329.44 47.56 311.51 47.56 310.6 44.54 310.6 26.68 311.51 29.84"/><polyline class="m" points="310.6 26.68 311.51 29.84 311.51 47.56 310.6 44.54 310.6 26.68"/><circle class="f" cx="338.89" cy="35.61" r="5.2"/><circle class="k" cx="338.26" cy="34.99" r="4.57"/><polygon class="f" points="337.05 38.32 337.77 35.35 335.37 33.68 338.26 34.39 339.8 31.45 339.12 34.52 341.9 35.79 338.77 35.68 337.05 38.32"/><circle class="f" cx="302.33" cy="35.61" r="5.2"/><circle class="k" cx="301.7" cy="34.99" r="4.57"/><polygon class="f" points="300.49 38.32 301.21 35.35 298.82 33.68 301.7 34.39 303.25 31.45 302.56 34.52 305.34 35.79 302.22 35.68 300.49 38.32"/><path class="n" d="M349.29,34.64c-1.45-.91-2.67-.47-3.9.34-6.66,4.32-9.51,11.24-11.95,20.21-.38,1.43.06,2.39,1.46,3.51s14,14.05,72.07,18,66,6.85,66.73,17V63.91c-.36-11.54-35-10.24-66.84-13.13S350.74,35.55,349.29,34.64Z"/><rect class="j" x="62" y="367.98" width="52" height="17.86" rx="3.99" ry="3.99"/><rect class="k" x="78.6" y="367.98" width="19.81" height="3.93"/><path class="m" d="M90.5,376.9a17.15,17.15,0,1,1-17.15-17.15A17.15,17.15,0,0,1,90.5,376.9ZM73.34,362.45A14.45,14.45,0,1,0,87.8,376.9,14.45,14.45,0,0,0,73.34,362.45Z"/><polygon class="j" points="79.51 371.14 97.3 371.14 98.41 367.98 98.41 385.83 97.44 388.85 79.51 388.85 78.6 385.83 78.6 367.98 79.51 371.14"/><polyline class="m" points="78.6 367.98 79.51 371.14 79.51 388.85 78.6 385.83 78.6 367.98"/><circle class="f" cx="106.89" cy="376.9" r="5.2"/><circle class="k" cx="106.26" cy="376.28" r="4.57"/><polygon class="f" points="105.05 379.61 105.77 376.64 103.37 374.98 106.26 375.68 107.8 372.74 107.12 375.81 109.9 377.08 106.77 376.98 105.05 379.61"/><circle class="f" cx="70.33" cy="376.9" r="5.2"/><circle class="k" cx="69.7" cy="376.28" r="4.57"/><polygon class="f" points="68.49 379.61 69.21 376.64 66.82 374.98 69.7 375.68 71.25 372.74 70.56 375.81 73.34 377.08 70.22 376.98 68.49 379.61"/><path class="n" d="M30.82,259.09c4.65,50.28,50.47,102.35,51.2,104s.68,2.69-.31,3.79c-6.27,6.86-12,11.7-19.88,12.5-1.47.16-2.75,0-3.62-1.48S31.93,333.47,30.82,300.1,30.82,259.09,30.82,259.09Z"/><circle class="f" cx="149.58" cy="302.24" r="5.2"/><circle class="k" cx="148.96" cy="301.61" r="4.57"/><polygon class="f" points="145.7 303.52 148 301.51 147.01 298.77 148.96 301.01 151.91 299.5 149.58 301.61 151.12 304.26 148.63 302.37 145.7 303.52"/><circle class="f" cx="256.58" cy="302.24" r="5.2"/><circle class="k" cx="255.96" cy="301.61" r="4.57"/><polygon class="f" points="254.19 304.89 255.04 301.95 252.72 300.19 255.57 301.02 257.24 298.15 256.42 301.18 259.15 302.58 256.03 302.33 254.19 304.89"/><circle class="f" cx="256.58" cy="247.24" r="5.2"/><circle class="k" cx="255.96" cy="246.61" r="4.57"/><polygon class="f" points="252.44 248.03 255.03 246.41 254.49 243.55 256.06 246.07 259.22 245.05 256.58 246.76 257.68 249.62 255.52 247.36 252.44 248.03"/><circle class="f" cx="148.58" cy="247.24" r="5.2"/><circle class="k" cx="147.96" cy="246.61" r="4.57"/><polygon class="f" points="149.51 249.59 147.55 247.24 144.78 248.17 147.07 246.28 145.63 243.28 147.69 245.66 150.37 244.19 148.42 246.64 149.51 249.59"/><rect class="o" x="72.65" y="114.02" width="262.7" height="8.88"/><path class="m" d="M115,344.17,134,318H278c2.86-63.33-3.78-131-3.78-131L294,174s5.49,85.09,0,170Z"/><path class="j" d="M115,174c-2.91,78.43,0,170,0,170l19-26.34s-5.69-66.48-4.88-130.66H274l19.57-13Z"/><polygon class="m" points="343.47 130.99 343.47 106 335.35 114.02 335.35 122.9 73 122.9 65.73 130.25 343.47 130.99"/><rect class="p" x="103.87" y="112.46" width="201.78" height="35.58"/><path class="p" d="M305.66,149.26c-4,0-4.94,3.87-4.94,6.07h-4.13c0-2.93-1.49-6.32-5.14-6.32s-5.16,3.39-5.16,6.32h-4.1c0-2.93-1.61-6.32-5.16-6.25s-5,3.32-5,6.25h-4.13c0-2.93-1.54-6.2-5.16-6.14s-5.16,3.29-5.16,6.39l-4.13,0c0-3.1-1.27-6.49-5.16-6.49s-5.16,3.28-5.16,6.21H239c0-2.93-1.53-6.32-5.16-6.3s-5.16,3.37-5.16,6.3h-4.13c0-2.93-1.76-6.32-5.16-6.29s-5.16,3.35-5.16,6.29H210.1c0-2.93-1.59-6.32-5.17-6.32s-5.15,3.39-5.15,6.32h-4.12c0-2.93-1.67-6.32-5.15-6.32s-5.14,3.39-5.14,6.32h-4.13c0-2.93-1.65-6.32-5.14-6.32s-5.16,3.39-5.16,6.32h-4.1c0-2.93-1.68-6.32-5.16-6.25s-5,3.32-5,6.25h-4.13c0-2.93-1.84-6.2-5.16-6.14s-5.16,3.29-5.16,6.39l-4.13,0c0-3.1-2.07-6.49-5.16-6.49s-5.16,3.28-5.16,6.21h-4.13c0-2.93-1.87-6.32-5.16-6.3s-5.16,3.37-5.16,6.3h-4.13c0-2.2-2-6.06-5.29-6.07V148H305.66Z"/><polygon class="j" points="65.73 106 65.73 130.25 73 122.9 73 114 335.35 114.02 343.47 106 65.73 106"/></svg>