<svg xmlns="http://www.w3.org/2000/svg" viewBox="0 0 500 400"><defs><style>.a{fill:#f2a900;}.b{fill:none;stroke:#fc0;stroke-miterlimit:10;stroke-width:10px;}.c{fill:#fc0;}</style></defs><title>ticket_machine</title><rect class="a" x="103.87" y="112.46" width="201.78" height="66.55"/><path class="a" d="M305.66,179.26c-4,0-4.94,3.87-4.94,6.07h-4.13c0-2.93-1.49-6.32-5.14-6.32s-5.16,3.39-5.16,6.32h-4.1c0-2.93-1.61-6.32-5.16-6.25s-5,3.32-5,6.25h-4.13c0-2.93-1.54-6.2-5.16-6.14s-5.16,3.29-5.16,6.39l-4.13,0c0-3.1-1.27-6.49-5.16-6.49s-5.16,3.28-5.16,6.21H239c0-2.93-1.53-6.32-5.16-6.3s-5.16,3.37-5.16,6.3h-4.13c0-2.93-1.76-6.32-5.16-6.29s-5.16,3.35-5.16,6.29H210.1c0-2.93-1.59-6.32-5.17-6.32s-5.15,3.39-5.15,6.32h-4.12c0-2.93-1.67-6.32-5.15-6.32s-5.14,3.39-5.14,6.32h-4.13c0-2.93-1.65-6.32-5.14-6.32s-5.16,3.39-5.16,6.32h-4.1c0-2.93-1.68-6.32-5.16-6.25s-5,3.32-5,6.25h-4.13c0-2.93-1.84-6.2-5.16-6.14s-5.16,3.29-5.16,6.39l-4.13,0c0-3.1-2.07-6.49-5.16-6.49s-5.16,3.28-5.16,6.21h-4.13c0-2.93-1.87-6.32-5.16-6.3s-5.16,3.37-5.16,6.3h-4.13c0-2.2-2-6.06-5.29-6.07V178H305.66Z"/><path class="b" d="M125.31,112.46v25.45c10.48.71,15.66,6.22,15,17H271.59c.18-10.69,5.72-15.32,15.32-15.36V112.46"/><path class="c" d="M194.83,130.27c-2.42-1.36-5.37-2.65-8.14-4.25a53.23,53.23,0,0,0-.41-6.31l-.41-4.13a33.52,33.52,0,0,0,4,.18c3.42-.06,5-1.18,5.61-2.48a2.48,2.48,0,0,0,.22-.81l-26.16,0A102.82,102.82,0,0,0,181.55,115c.06,1.59.29,2.89.53,4.9.18,1.12.3,2.3.41,3.48a167.76,167.76,0,0,1-14.9-10.85h-7.19c5.78,5.81,15.48,12.64,22.32,16.56-.06.83-.12,1.3-.24,2.12-.24,1.53.12,1.77,1.24,1.3a5.78,5.78,0,0,0,1.95-1.77,31.7,31.7,0,0,0,3.13,1.42,10.82,10.82,0,0,0,4,.94,4.36,4.36,0,0,0,2.18-.71C195.83,132,196.07,131,194.83,130.27Z"/><path class="c" d="M235.91,112.4c4.43,3.46,6.91,7.19,6.91,9.91,0,2.24-2.3,3.72-6.43,3.72a26.11,26.11,0,0,1-13.57-4.31,31.76,31.76,0,0,1-9.51-9.28h-5.2a10.57,10.57,0,0,0,.31,1.07c2.36,6.73,13.28,17.82,25.73,17.82,4.9,0,9.32-1.95,11.21-7a11.15,11.15,0,0,0,.71-4,13.7,13.7,0,0,0-2.83-8Z"/></svg>