<svg xmlns="http://www.w3.org/2000/svg" viewBox="0 0 480 200"><defs><style>.a{fill:#f6d092;}.b{fill:#f2a900;}.c{fill:none;stroke:#fc0;stroke-miterlimit:10;stroke-width:10px;}</style></defs><title>ticket</title><path class="a" d="M1420-50c-32.76,0-46.26,33-46.26,50h-39.36c0-24-14.22-50.37-48.91-50.34S1236.35-24,1236.35,0h-39c0-24-15.33-50.37-49.11-49.83S1100.45-24,1100.45,0h-39.31c0-24-14.64-50.17-49.14-49.76S962.85-24,962.85.77L923.54.84c0-24.73-12.11-51-49.13-51S825.26-24,825.26,0H785.95c0-24-14.57-50.37-49.14-50.21S687.67-24,687.67,0H648.36c0-24-16.75-50.37-49.15-50.08S550.12-24,550.12,0h-39c0-24-15.11-50.37-49.19-50.34S412.93-24,412.93,0H373.7c0-24-15.85-50.37-49-50.37S275.74-24,275.74,0H236.38c0-24-15.67-50.37-48.91-50.34S138.35-24,138.35,0h-39c0-24-16-50.37-49.11-49.83S2.44-24,2.44,0H-36.87c0-24-17.48-50.17-49.14-49.76S-135.15-24-135.15.77l-39.31.07c0-24.73-19.67-51-49.14-51S-272.74-24-272.74,0h-39.31c0-24-17.82-50.37-49.14-50.21S-410.33-24-410.33,0h-39.31c0-17-19-49.93-50.35-50V-60H1420Z"/><path class="b" d="M460,0c0,20,20,20,20,20V30s-20,0-20,20,20,20,20,20V80s-20,0-20,20,20,20,20,20v10s-20,0-20,20,20,20,20,20v10s-20,0-20,20H20c0-20-20-20-20-20V170s20,0,20-20S0,130,0,130V120s20,0,20-20S0,80,0,80V70s20,0,20-20S0,30,0,30V20S20,20,20,0Z"/><path class="c" d="M40,144.44c35.29,0,44.12,8.89,44.12,35.56H395.88c0-26.67,8.82-35.56,44.12-35.56V55.56c-35.29,0-44.12-8.89-44.12-35.56H84.12c0,26.67-8.82,35.56-44.12,35.56Z"/></svg>