<svg xmlns="http://www.w3.org/2000/svg" viewBox="0 0 1920 60"><defs><style>.a{fill:#f6d092;}</style></defs><title>ticket_bottom</title><path class="a" d="M1920,10c-32.76,0-46.26,33-46.26,50h-39.36c0-24-14.22-50.37-48.91-50.34S1736.35,36,1736.35,60h-39c0-24-15.33-50.37-49.11-49.83S1600.45,36,1600.45,60h-39.31c0-24-14.64-50.17-49.14-49.76s-49.14,25.8-49.14,50.53l-39.31.07c0-24.73-12.11-51-49.13-51S1325.26,36,1325.26,60h-39.31c0-24-14.57-50.37-49.14-50.21S1187.67,36,1187.67,60h-39.31c0-24-16.75-50.37-49.15-50.08S1050.12,36,1050.12,60h-39C1011.15,36,996,9.63,962,9.66s-49,26.34-49,50.34H873.7c0-24-15.85-50.37-49-50.37s-49,26.37-49,50.37H736.38c0-24-15.67-50.37-48.91-50.34S638.35,36,638.35,60h-39c0-24-16-50.37-49.11-49.83S502.44,36,502.44,60H463.13c0-24-17.48-50.17-49.14-49.76S364.85,36,364.85,60.77l-39.31.07c0-24.73-19.67-51-49.14-51S227.26,36,227.26,60H187.95c0-24-17.82-50.37-49.14-50.21S89.67,36,89.67,60H50.35c0-17-19-49.93-50.35-50V0H1920Z"/></svg>