<svg xmlns="http://www.w3.org/2000/svg" viewBox="0 0 500 400"><defs><style>.a{fill:#f2a900;}.b{fill:none;stroke:#fc0;stroke-miterlimit:10;stroke-width:10px;}.c{fill:#fc0;}</style></defs><title>ticket_machine</title><rect class="a" x="103.87" y="112.46" width="201.78" height="105.34"/><path class="a" d="M305.66,218.05c-4,0-4.94,3.87-4.94,6.07h-4.13c0-2.93-1.49-6.32-5.14-6.32s-5.16,3.39-5.16,6.32h-4.1c0-2.93-1.61-6.32-5.16-6.25s-5,3.32-5,6.25h-4.13c0-2.93-1.54-6.2-5.16-6.14s-5.16,3.29-5.16,6.39l-4.13,0c0-3.1-1.27-6.49-5.16-6.49s-5.16,3.28-5.16,6.21H239c0-2.93-1.53-6.32-5.16-6.3s-5.16,3.37-5.16,6.3h-4.13c0-2.93-1.76-6.32-5.16-6.29s-5.16,3.35-5.16,6.29H210.1c0-2.93-1.59-6.32-5.17-6.32s-5.15,3.39-5.15,6.32h-4.12c0-2.93-1.67-6.32-5.15-6.32s-5.14,3.39-5.14,6.32h-4.13c0-2.93-1.65-6.32-5.14-6.32s-5.16,3.39-5.16,6.32h-4.1c0-2.93-1.68-6.32-5.16-6.25s-5,3.32-5,6.25h-4.13c0-2.93-1.84-6.2-5.16-6.14s-5.16,3.29-5.16,6.39l-4.13,0c0-3.1-2.07-6.49-5.16-6.49s-5.16,3.28-5.16,6.21h-4.13c0-2.93-1.87-6.32-5.16-6.3s-5.16,3.37-5.16,6.3h-4.13c0-2.2-2-6.06-5.29-6.07v-1.26H305.66Z"/><path class="b" d="M125.31,112.46v66.45c10.48.71,15.66,6.22,15,17H271.59c.18-10.69,5.72-15.32,15.32-15.36V112.46"/><path class="c" d="M189.81,155.76a33.52,33.52,0,0,1-4-.18l.41,4.13a53.23,53.23,0,0,1,.41,6.31c2.77,1.59,5.72,2.89,8.14,4.25,1.24.71,1,1.71.18,2.13a4.36,4.36,0,0,1-2.18.71,10.82,10.82,0,0,1-4-.94,31.7,31.7,0,0,1-3.13-1.42,5.78,5.78,0,0,1-1.95,1.77c-1.12.47-1.47.24-1.24-1.3.12-.83.18-1.3.24-2.12-7.73-4.43-19.12-12.57-24.37-18.76-1.06-1.3-1-2.18.18-3.07A9.56,9.56,0,0,1,161,145.9a5.26,5.26,0,0,1,2.07-.47,6.49,6.49,0,0,1,2.42.47A138.32,138.32,0,0,0,182,150a4.54,4.54,0,0,1,3.07-2.6c.94-.29,1.18.12,1,1.18l-.35,2.06c3,.35,6,.65,8.85.77,1.06,0,1.3.77.83,1.83C194.77,154.58,193.24,155.7,189.81,155.76Zm-23.31-4.13a168.08,168.08,0,0,0,16,11.74c-.12-1.18-.24-2.36-.41-3.48-.24-2-.47-3.3-.53-4.9A93.15,93.15,0,0,1,166.51,151.63Z"/><path class="c" d="M188.51,130.39a9.71,9.71,0,0,0,3.78,1.06c.89,0,1.3-.24,1.3-.77,0-2.06-3.89-5-7.79-7-1.12-.59-1.06-1.36,0-1.89a4.91,4.91,0,0,1,3.83.24c3.19,1.59,6.25,5.25,6.25,8.67,0,2.89-1,4.84-3.6,5.31,1.89,1.83,3.42,4.13,3.42,6.73,0,3.42-2.54,5.31-6,5.31A16.43,16.43,0,0,1,181,145c-6.67-4.6-9.44-9.5-9.44-12.57,0-2,.83-3.3,2.36-3.78-5.55-3-12.21-6.79-15-8.73-1.48-1.06-1.36-1.89.06-2.48a6,6,0,0,1,2.3-.53c1.59,0,3.89.77,6.67,2.3C174.41,122.6,182.67,127.61,188.51,130.39Zm-13.39,1.06c-.06,1.65,3.54,5.55,8.5,8.67a15.86,15.86,0,0,0,7.67,2.71c1.06,0,1.83-.24,1.83-.88,0-1.89-3.3-4.72-8.44-7.38C178.6,131.39,175.18,130.33,175.12,131.45Z"/><path class="c" d="M176.24,112.92a8.2,8.2,0,0,0-1.59-.18,5.61,5.61,0,0,0-2.83.83c-1.06.59-1.12,1.47,0,2.24,5.49,3.6,13.69,7.85,17.23,9.09a9.74,9.74,0,0,0,3.19.65,4,4,0,0,0,3.13-1.42c.89-1,.53-1.65-.41-2.07-5.43-2.3-10.8-5-14.34-8.32-.6-.55-1.13-1.06-1.61-1.54h-3.42C175.79,112.45,176,112.69,176.24,112.92Z"/><path class="c" d="M188.1,114.52a14.54,14.54,0,0,0,4.37,1.06,4,4,0,0,0,3.25-1.3c.79-.79.78-1.49.12-2l-12.18,0A33.67,33.67,0,0,0,188.1,114.52Z"/><path class="c" d="M209.6,145.19c1.71-3.83,5.31-5.37,9.5-5.37a30.16,30.16,0,0,1,13.57,3.78c7.32,4,13.39,10,13.39,16.76a11.15,11.15,0,0,1-.71,4c-1.89,5.07-6.31,7-11.21,7-12.45,0-23.37-11.09-25.73-17.82a10.37,10.37,0,0,1-.59-3.54A6.45,6.45,0,0,1,209.6,145.19ZM230.67,149a30.48,30.48,0,0,0-13.81-4c-2.83,0-4.72.59-5.19,1.83-.94,2.6,3,9.56,11.15,14.93A26.11,26.11,0,0,0,236.39,166c4.13,0,6.43-1.47,6.43-3.72C242.82,158.65,238.34,153.16,230.67,149Z"/><path class="c" d="M224.71,131a7.57,7.57,0,0,1,1.18.06c-2.36-2.54-4.31-5.37-4.31-7.49,0-1.71,2.07-3.3,4.31-3.3,1.3,0,3.19,1.06,6.49,3,3,1.89,6.9,3.89,9.09,3.89,1.24,0,2-.41,2-1.18,0-2-3.84-5.07-7.79-7.2-1.12-.59-1.06-1.42-.24-1.95a4.74,4.74,0,0,1,4.13.29c3.25,1.65,6.37,6,6.37,9.5,0,4-2,5.66-5.08,5.66s-8.61-2.71-12.27-5c-1.95-1.24-3.48-2.18-3.48-1.77s1.65,3.42,5.31,6.67c3.42,3.25,9.2,5.9,14.51,8.32.94.41,1.3,1.18.35,2.12a4.3,4.3,0,0,1-3.25,1.3,10.82,10.82,0,0,1-3.07-.53c-3.3-1.12-11.57-5.66-17.05-9.32-1.12-.77-1.06-1.65,0-2.24A5.33,5.33,0,0,1,224.71,131Z"/><path class="c" d="M242.83,112.33a5.18,5.18,0,0,1-3.78,1.25,12.52,12.52,0,0,1-3.48-.53c.16-.24.28-.48.41-.73l-11.81,0a20.43,20.43,0,0,0,6.62,5,14.66,14.66,0,0,0,6.79,1.83c4.2,0,7.51-2.39,8.14-6.79Z"/></svg>