<svg xmlns="http://www.w3.org/2000/svg" viewBox="0 0 1920 60.48"><defs><style>.a{fill:#f6d092;}</style></defs><title>ticket_top</title><path class="a" d="M1920,50c-32.76,0-46.26-33-46.26-50h-39.36c0,24-14.22,50-48.91,50s-49.12-26-49.12-50h-39c0,24-15.33,50-49.11,49.5S1600.45,24,1600.45,0h-39.31c0,24-14.64,50-49.14,49.62s-49.14-25.53-49.14-50.09l-39.31,0c0,24.56-12.11,50.52-49.13,50.48s-49.15-26-49.15-50h-39.31c0,24-14.57,50-49.14,49.87S1187.67,24,1187.67,0h-39.31c0,24-16.75,50-49.15,49.75S1050.12,24,1050.12,0h-39c0,24-15.11,50-49.19,50s-49-26-49-50H873.7c0,24-15.85,50-49,50s-49-26-49-50H736.38c0,24-15.67,50-48.91,50S638.35,24,638.35,0h-39c0,24-16,50-49.11,49.5S502.44,24,502.44,0H463.13c0,24-17.48,50-49.14,49.62S364.85,24.09,364.85-.47l-39.31,0C325.54,24.08,305.87,50,276.4,50S227.26,24,227.26,0H187.95c0,24-17.82,50-49.14,49.87S89.67,24,89.67,0H50.35c0,17-19,50-50.35,50V60H1920Z" transform="translate(0 0.48)"/></svg>