<svg xmlns="http://www.w3.org/2000/svg" viewBox="0 0 1920 600"><defs><style>.a{fill:#096;}.b{fill:#006842;}</style></defs><title>trees</title><ellipse class="a" cx="400.06" cy="196.76" rx="230.21" ry="119.6"/><ellipse class="a" cx="984.64" cy="137.92" rx="174.19" ry="106.36"/><ellipse class="a" cx="149.08" cy="260.54" rx="191.98" ry="137.7"/><ellipse class="b" cx="135.74" cy="395.63" rx="178.65" ry="111.54"/><ellipse class="b" cx="267.99" cy="316.36" rx="135.37" ry="89.43"/><ellipse class="a" cx="993.61" cy="275.03" rx="198.94" ry="112.26"/><ellipse class="b" cx="1357.81" cy="180.3" rx="236.57" ry="153.99"/><ellipse class="b" cx="686.63" cy="162.78" rx="204.3" ry="127.92"/><ellipse class="a" cx="756.07" cy="324.68" rx="203.93" ry="122.94"/><ellipse class="a" cx="477.35" cy="355.63" rx="152.91" ry="91.99"/><ellipse class="a" cx="1280.04" cy="300.84" rx="203.53" ry="127.87"/><ellipse class="b" cx="1030.76" cy="361.94" rx="174.14" ry="98.29"/><ellipse class="a" cx="1724.56" cy="221.91" rx="211.43" ry="118.2"/><ellipse class="a" cx="1530.03" cy="338.98" rx="239.83" ry="158.68"/><ellipse class="b" cx="1826.17" cy="341.07" rx="180.37" ry="119.16"/><ellipse class="a" cx="1499.66" cy="540.66" rx="230.21" ry="119.6"/><ellipse class="b" cx="525.74" cy="524.95" rx="257.75" ry="135.31"/><ellipse class="a" cx="1767.1" cy="527.76" rx="208.44" ry="137.7"/><ellipse class="a" cx="906.11" cy="509.25" rx="198.94" ry="159.12"/><ellipse class="b" cx="1233.27" cy="527.76" rx="204.3" ry="127.92"/><ellipse class="a" cx="338.69" cy="474.1" rx="152.91" ry="91.99"/><ellipse class="a" cx="147.89" cy="550.16" rx="190.8" ry="118.2"/></svg>