<svg xmlns="http://www.w3.org/2000/svg" viewBox="0 0 1920 600"><defs><style>.a{fill:#096;}.b{fill:#006842;}</style></defs><title>trees</title><ellipse class="a" cx="335.01" cy="263.55" rx="295.26" ry="197.96"/><ellipse class="b" cx="1341.57" cy="173.72" rx="265.06" ry="173.72"/><ellipse class="a" cx="994.06" cy="214.06" rx="182.61" ry="118.27"/><ellipse class="b" cx="593.2" cy="166.25" rx="110.88" ry="100.66"/><ellipse class="b" cx="431.16" cy="386.1" rx="116.32" ry="86.1"/><ellipse class="a" cx="32.98" cy="195.43" rx="166.05" ry="119.29"/><ellipse class="b" cx="158" cy="549.61" rx="233.81" ry="150.66"/><ellipse class="b" cx="53.98" cy="381.71" rx="145.06" ry="118.16"/><ellipse class="b" cx="993.61" cy="398.95" rx="198.94" ry="169.92"/><ellipse class="b" cx="777.45" cy="332.33" rx="252.08" ry="186.21"/><ellipse class="a" cx="756.07" cy="474.1" rx="203.93" ry="186.1"/><ellipse class="a" cx="516.83" cy="520.95" rx="212.82" ry="139.24"/><ellipse class="a" cx="1280.04" cy="438.01" rx="203.53" ry="193.56"/><ellipse class="a" cx="980.49" cy="539.12" rx="224.42" ry="140.16"/><ellipse class="a" cx="1773.21" cy="266.9" rx="233.33" ry="171.11"/><ellipse class="b" cx="1886.3" cy="530.5" rx="240.49" ry="148.79"/><ellipse class="b" cx="1539.87" cy="472.19" rx="229.99" ry="216.63"/></svg>